<svg width="71" height="67" viewBox="0 0 71 67" fill="none" xmlns="http://www.w3.org/2000/svg">
<path fill-rule="evenodd" clip-rule="evenodd" d="M67.8039 38.4258C67.8039 38.4258 70.4102 41.16 67.0057 43.9031C67.0057 43.9031 69.1887 48.2513 64.8007 49.6361C64.8007 49.6361 66.0002 53.6492 61.9959 54.3504C61.9959 54.3504 62.1944 59.466 57.78 58.6766C57.78 58.6766 58.684 63.6511 53.8683 62.9499C53.8683 62.9499 53.0613 66.9851 48.369 65.2343V61.0889C50.4973 58.5415 52.2036 55.6694 53.4229 52.582C53.5155 52.3571 53.6081 52.141 53.6963 51.8984C53.8418 51.5192 53.9874 51.1267 54.1373 50.7386C56.2894 51.2369 59.1162 50.7827 60.792 48.2249C62.997 44.8733 61.9959 41.1997 59.6851 40.106C58.6987 39.6331 57.5682 39.5573 56.5275 39.8944H56.457C56.5584 36.7412 56.6245 29.8484 54.2872 25.5398C54.1742 25.2399 53.9075 25.025 53.5905 24.9782C53.2735 24.9315 52.9561 25.0604 52.7614 25.3149C50.8033 27.8418 46.6535 26.1484 46.6535 26.1484C43.937 31.5418 38.8478 27.4185 38.8478 27.4185C34.4731 31.5418 31.3155 27.4185 31.3155 27.4185C25.7104 30.5804 23.1658 26.2807 23.1658 26.2807C19.8892 27.4581 18.1604 26.4438 17.2652 25.2531C16.8242 24.6887 16.1627 24.9136 15.7349 25.4692C12.9346 29.1472 13.3888 36.7589 13.5299 39.8944H13.477C12.4315 39.5512 11.2938 39.6255 10.3018 40.1016C7.99096 41.1953 7.00312 44.8689 9.19489 48.2205C10.8707 50.7783 13.6975 51.2325 15.8496 50.7342C15.9907 51.1223 16.1407 51.5147 16.2906 51.894C16.3788 52.1277 16.4714 52.335 16.564 52.5776C17.7944 55.6952 19.5187 58.5944 21.6708 61.1638V65.5739C20.0391 65.812 16.6478 65.8517 16.2553 62.1693C16.2553 62.1693 11.7439 63.7261 11.7439 58.2841C11.7439 58.2841 7.02958 58.9677 7.83661 53.7506C7.83661 53.7506 3.62505 53.6536 5.02744 49.0407C5.02744 49.0407 0.617426 47.7618 3.42219 43.8898C3.42219 43.8898 -0.0484851 42.4257 2.48727 38.3156C2.48727 38.3156 -1.19068 35.5064 2.31969 32.7987C2.31969 32.7987 -0.282216 29.2707 3.20169 26.9863C3.20169 26.9863 0.895257 22.9158 5.11123 21.7913C5.11123 21.7913 3.30312 17.3813 7.91158 16.6624C7.91158 16.6624 6.80908 11.9525 11.7218 12.2524C11.7218 12.2524 11.6248 7.93944 16.3347 8.72442C16.3347 8.72442 16.3347 4.41584 20.8461 5.81823C20.8461 5.81823 21.8957 1.40822 26.1073 3.41036C26.1073 3.41036 27.8713 0.00142384 32.3783 2.52836C32.3783 2.52836 34.7862 -1.07903 38.4906 2.62979C38.4906 2.62979 42.2038 -0.457217 44.4485 3.13253C44.4485 3.13253 48.4969 2.11823 49.498 5.52717C49.498 5.52717 54.5342 4.03217 54.5342 8.8479C54.5342 8.8479 58.146 8.15112 58.4459 12.2568C58.4459 12.2568 62.6486 12.2568 61.9739 16.6668C61.9739 16.6668 65.9782 17.4033 64.9815 21.7957C64.9815 21.7957 68.7918 23.6788 66.2825 27.0877C66.2825 27.0877 70.0927 28.4107 67.7819 32.6972C67.8039 32.7105 70.9174 35.5196 67.8039 38.4258Z" fill="black"/>
<path fill-rule="evenodd" clip-rule="evenodd" d="M67.8039 38.4258C67.8039 38.4258 70.4102 41.16 67.0057 43.9031C67.0057 43.9031 69.1887 48.2513 64.8007 49.6361C64.8007 49.6361 66.0002 53.6492 61.9959 54.3504C61.9959 54.3504 62.1944 59.466 57.78 58.6766C57.78 58.6766 58.684 63.6511 53.8683 62.9499C53.8683 62.9499 53.0613 66.9851 48.369 65.2343V61.0889C50.4973 58.5415 52.2036 55.6694 53.4229 52.582C53.5155 52.3571 53.6081 52.141 53.6963 51.8984C53.8418 51.5192 53.9874 51.1267 54.1373 50.7386C56.2894 51.2369 59.1162 50.7827 60.792 48.2249C62.997 44.8733 61.9959 41.1997 59.6851 40.106C58.6987 39.6331 57.5682 39.5573 56.5275 39.8944H56.457C56.5584 36.7412 56.6245 29.8484 54.2872 25.5398C54.1742 25.2399 53.9075 25.025 53.5905 24.9782C53.2735 24.9315 52.9561 25.0604 52.7614 25.3149C50.8033 27.8418 46.6535 26.1484 46.6535 26.1484C43.937 31.5418 38.8478 27.4185 38.8478 27.4185C34.4731 31.5418 31.3155 27.4185 31.3155 27.4185C25.7104 30.5804 23.1658 26.2807 23.1658 26.2807C19.8892 27.4581 18.1604 26.4438 17.2652 25.2531C16.8242 24.6887 16.1627 24.9136 15.7349 25.4692C12.9346 29.1472 13.3888 36.7589 13.5299 39.8944H13.477C12.4315 39.5512 11.2938 39.6255 10.3018 40.1016C7.99096 41.1953 7.00312 44.8689 9.19489 48.2205C10.8707 50.7783 13.6975 51.2325 15.8496 50.7342C15.9907 51.1223 16.1407 51.5147 16.2906 51.894C16.3788 52.1277 16.4714 52.335 16.564 52.5776C17.7944 55.6952 19.5187 58.5944 21.6708 61.1638V65.5739C20.0391 65.812 16.6478 65.8517 16.2553 62.1693C16.2553 62.1693 11.7439 63.7261 11.7439 58.2841C11.7439 58.2841 7.02958 58.9677 7.83661 53.7506C7.83661 53.7506 3.62505 53.6536 5.02744 49.0407C5.02744 49.0407 0.617426 47.7618 3.42219 43.8898C3.42219 43.8898 -0.0484851 42.4257 2.48727 38.3156C2.48727 38.3156 -1.19068 35.5064 2.31969 32.7987C2.31969 32.7987 -0.282216 29.2707 3.20169 26.9863C3.20169 26.9863 0.895257 22.9158 5.11123 21.7913C5.11123 21.7913 3.30312 17.3813 7.91158 16.6624C7.91158 16.6624 6.80908 11.9525 11.7218 12.2524C11.7218 12.2524 11.6248 7.93944 16.3347 8.72442C16.3347 8.72442 16.3347 4.41584 20.8461 5.81823C20.8461 5.81823 21.8957 1.40822 26.1073 3.41036C26.1073 3.41036 27.8713 0.00142384 32.3783 2.52836C32.3783 2.52836 34.7862 -1.07903 38.4906 2.62979C38.4906 2.62979 42.2038 -0.457217 44.4485 3.13253C44.4485 3.13253 48.4969 2.11823 49.498 5.52717C49.498 5.52717 54.5342 4.03217 54.5342 8.8479C54.5342 8.8479 58.146 8.15112 58.4459 12.2568C58.4459 12.2568 62.6486 12.2568 61.9739 16.6668C61.9739 16.6668 65.9782 17.4033 64.9815 21.7957C64.9815 21.7957 68.7918 23.6788 66.2825 27.0877C66.2825 27.0877 70.0927 28.4107 67.7819 32.6972C67.8039 32.7105 70.9174 35.5196 67.8039 38.4258Z" fill="white" fill-opacity="0.09"/>
<path fill-rule="evenodd" clip-rule="evenodd" d="M50.5299 66.575C49.6835 66.5583 48.8469 66.3895 48.0603 66.0766C47.716 65.948 47.4876 65.6194 47.487 65.2519V61.1065C47.487 60.8963 47.562 60.693 47.6987 60.5332C49.772 58.0555 51.4337 55.2607 52.6202 52.2557C52.6461 52.1909 52.6724 52.1262 52.6987 52.0613C52.7621 51.9053 52.8256 51.7486 52.8848 51.5897L52.9588 51.3932L52.9589 51.3928C53.049 51.1528 53.1398 50.9113 53.2332 50.6725L53.3214 50.4343C53.4761 50.0201 53.9135 49.7844 54.3445 49.8831C56.1571 50.302 58.609 49.9624 60.0776 47.7442C61.0393 46.3778 61.3685 44.6643 60.9816 43.0387C60.7621 42.124 60.1596 41.348 59.3279 40.9087C58.5403 40.5289 57.6362 40.4688 56.8053 40.7411H56.7215C56.4496 40.8191 56.1567 40.7619 55.934 40.5873C55.7114 40.4127 55.586 40.1419 55.597 39.8591C55.7999 33.5352 55.1075 28.8341 53.5331 25.9544C53.5153 25.9221 53.4913 25.8936 53.4625 25.8706C51.6456 28.1726 48.5189 27.6346 47.0901 27.1936C46.394 28.4446 45.2056 29.3468 43.8134 29.6808C41.8201 30.1218 39.8885 29.1252 38.9316 28.5166C37.5115 29.6852 36.0518 30.2188 34.5745 30.0954C33.2866 29.9616 32.082 29.3958 31.1567 28.4901C26.6012 30.7392 23.8758 28.4504 22.8703 27.2906C19.4746 28.3049 17.6092 27.0921 16.6257 25.8176C16.5612 25.8641 16.5046 25.9207 16.4582 25.9852C13.9224 29.3148 14.2796 36.5163 14.434 39.5901V39.8282C14.4441 40.1089 14.3198 40.3777 14.0995 40.5519C13.8792 40.726 13.589 40.7849 13.3182 40.7103H13.2388C12.4048 40.4335 11.4961 40.4904 10.7031 40.869C9.87181 41.3111 9.26977 42.0881 9.04934 43.0035C8.66243 44.629 8.99163 46.3425 9.95339 47.7089C11.4087 49.9139 13.8607 50.2667 15.6864 49.8478C16.1213 49.7477 16.5624 49.9881 16.7139 50.4079C16.8551 50.7915 17.0006 51.1752 17.1549 51.55C17.2069 51.6922 17.2622 51.8275 17.3177 51.9634L17.3178 51.9634L17.3178 51.9635L17.3178 51.9635L17.3178 51.9635L17.3178 51.9636L17.3178 51.9636L17.3178 51.9636L17.3178 51.9637L17.3179 51.9637C17.3519 52.047 17.386 52.1305 17.4195 52.216C18.6139 55.2445 20.2892 58.0605 22.3808 60.5553C22.5174 60.7151 22.5925 60.9184 22.5925 61.1286V65.5386C22.5971 65.9799 22.275 66.3566 21.8384 66.4206C20.4669 66.6191 18.5264 66.6235 17.0888 65.5077C16.3454 64.9232 15.8191 64.1066 15.5938 63.1881C14.5589 63.3483 13.5013 63.1189 12.6259 62.5442C11.6601 61.8562 11.0956 60.7185 10.9412 59.1573C9.85732 59.1351 8.81958 58.7143 8.02622 57.9754C7.20596 57.1419 6.8311 55.9645 6.91048 54.4474C5.98404 54.2429 5.15857 53.7201 4.57759 52.9701C3.92932 52.0881 3.7441 50.915 4.02634 49.5214C3.02424 49.0795 2.23344 48.265 1.82133 47.2503C1.50654 46.1906 1.66746 45.0465 2.26233 44.1148C1.64317 43.6259 1.18278 42.9645 0.939332 42.2141C0.577711 41.0851 0.749702 39.8194 1.4553 38.4435C0.855542 37.8217 0.00441001 36.6795 0 35.3212C0.0204771 34.269 0.479256 33.2731 1.26567 32.5738C0.708463 31.562 0.493433 30.3971 0.652681 29.253C0.843462 28.2298 1.39603 27.3094 2.20941 26.66C1.89189 25.8353 1.53027 24.455 2.0727 23.132C2.46915 22.2297 3.21109 21.5243 4.13218 21.1739C3.83494 20.0328 3.96349 18.8226 4.4938 17.7694C5.05391 16.8299 5.97282 16.1595 7.03837 15.9128C6.92507 14.7506 7.2542 13.5884 7.96007 12.6582C8.74543 11.7825 9.87089 11.2889 11.0471 11.3043C11.1986 10.288 11.6935 9.35424 12.4495 8.6583C13.3596 7.91985 14.5247 7.57111 15.6908 7.6881C15.8671 6.72917 16.384 5.86623 17.1461 5.25818C17.9972 4.63196 19.0909 4.44674 20.4051 4.70252C20.8212 3.67382 21.5863 2.82448 22.566 2.30348C23.6302 1.82972 24.8425 1.81536 25.9176 2.26379C26.4857 1.5948 27.232 1.10084 28.0697 0.839353C29.3354 0.460092 30.751 0.627672 32.2813 1.34209C32.9927 0.608328 33.9346 0.141257 34.9493 0.0190909C36.1974 -0.104389 37.4498 0.371892 38.6846 1.42588C39.474 0.931963 40.8896 0.239591 42.389 0.482142C43.425 0.658134 44.3502 1.23476 44.9645 2.08739C46.5962 1.86688 49.0702 2.16677 50.1727 4.44233C51.1341 4.2968 52.7702 4.23506 54.0006 5.15675C54.8466 5.81345 55.3804 6.79319 55.4735 7.86009C56.3193 7.88495 57.1375 8.16641 57.8196 8.66712C58.66 9.34472 59.2092 10.3183 59.3543 11.3881C60.4031 11.5455 61.3655 12.0594 62.0797 12.8434C62.7927 13.7214 63.1331 14.8439 63.0279 15.9701C63.9835 16.328 64.8068 16.9697 65.3872 17.8091C66.0408 18.8464 66.2801 20.0917 66.0575 21.2974C67.0083 21.915 67.705 22.8543 68.02 23.9434C68.2353 24.8805 68.0954 25.8641 67.6275 26.7041C68.3505 27.1702 68.9126 27.8477 69.2371 28.6445C69.6781 29.7778 69.5811 31.07 68.9417 32.4988C69.6722 33.3553 70.0973 34.4304 70.15 35.5549C70.1429 36.6211 69.7442 37.6476 69.0299 38.4391C69.5172 39.2083 69.7544 40.1095 69.709 41.0189C69.6031 42.2128 69.0388 43.3192 68.1346 44.106C68.6079 45.3323 68.6235 46.6881 68.1787 47.925C67.7322 48.9414 66.9084 49.7446 65.8811 50.1653C66.0442 51.2423 65.8424 52.3429 65.3078 53.292C64.7618 54.1482 63.913 54.7671 62.9308 55.0251C62.847 55.9821 62.5251 57.6711 61.3256 58.6987C60.6252 59.2991 59.7299 59.6236 58.8075 59.6115C58.8454 60.7709 58.4473 61.9023 57.6917 62.7823C56.8596 63.5884 55.7128 63.9841 54.5606 63.8628C54.1963 64.7646 53.5414 65.5189 52.6996 66.0061C52.0415 66.3894 51.2914 66.5861 50.5299 66.575ZM49.251 64.6125C50.0635 64.9141 50.9622 64.8824 51.7514 64.5243C52.3797 64.1308 52.8292 63.5072 53.0039 62.7868C53.0993 62.3297 53.5343 62.0262 53.9961 62.0944C55.0854 62.2532 55.8792 62.0944 56.3423 61.6049C57.0787 60.8464 56.9994 59.3249 56.9112 58.853C56.8593 58.5688 56.9499 58.2772 57.1537 58.0725C57.3576 57.8671 57.6493 57.7748 57.9343 57.8255C58.8736 57.9931 59.5748 57.8608 60.082 57.4198C60.964 56.6392 61.1315 54.9766 61.1139 54.3989C61.1076 53.9648 61.4181 53.5907 61.846 53.5169C62.6041 53.451 63.2939 53.052 63.729 52.4277C64.3685 51.3913 63.9584 49.936 63.9539 49.9228C63.8158 49.4616 64.0729 48.9749 64.5317 48.8291C65.5239 48.5116 66.1766 48.0044 66.4677 47.312C67.0321 45.989 66.2251 44.3309 66.2163 44.3132C66.0318 43.9419 66.1309 43.4922 66.4544 43.2328C67.3364 42.514 67.8215 41.7598 67.87 40.9837C67.881 40.2749 67.6297 39.587 67.1644 39.0521C67.0026 38.8813 66.9157 38.6528 66.9232 38.4176C66.9307 38.1824 67.0318 37.9599 67.2041 37.7997C67.8558 37.2733 68.256 36.497 68.3066 35.6608C68.3066 34.3995 67.2218 33.3896 67.2085 33.3808C66.9092 33.1076 66.8346 32.6655 67.0277 32.3092C67.6539 31.1405 67.8215 30.1571 67.5216 29.3809C67.2237 28.7267 66.6828 28.2142 66.0134 27.9521C65.749 27.8594 65.5444 27.6466 65.4622 27.3788C65.379 27.111 65.4281 26.8196 65.5945 26.5938C66.1722 25.8132 66.3839 25.0856 66.2251 24.4417C65.9581 23.344 64.7257 22.674 64.6184 22.6156L64.611 22.6116C64.2473 22.4306 64.0543 22.0245 64.1436 21.6282C64.3994 20.4992 64.2979 19.5731 63.8349 18.8719C63.3507 18.204 62.641 17.734 61.8371 17.5489C61.3653 17.4637 61.048 17.017 61.1227 16.5434C61.2947 15.4674 61.1227 14.6339 60.6817 14.0738C59.9188 13.1918 58.512 13.1477 58.4988 13.1477C58.0348 13.1488 57.6492 12.7903 57.6168 12.3274C57.5418 11.2999 57.2243 10.5634 56.6774 10.1489C56.1125 9.76667 55.4252 9.60938 54.7503 9.7079C54.4922 9.75764 54.2255 9.68973 54.0226 9.52268C53.8194 9.35563 53.7013 9.1066 53.7007 8.84353C53.7007 7.78954 53.4228 7.04425 52.876 6.63853C51.7735 5.81386 49.8155 6.3607 49.789 6.36952C49.5638 6.43636 49.3213 6.41064 49.1152 6.29806C48.9091 6.18547 48.7563 5.99533 48.6909 5.76976C47.9368 3.20313 44.8321 3.94842 44.7219 4.00575C44.3498 4.10038 43.9593 3.94345 43.7561 3.61767C43.4177 2.94214 42.792 2.45584 42.0538 2.29467C40.6338 2.06094 39.1256 3.29574 39.1124 3.30897C38.7614 3.59885 38.2475 3.57402 37.9261 3.25164C36.9074 2.23293 35.9416 1.75665 35.0596 1.84485C34.2998 1.97338 33.6206 2.3945 33.1677 3.01791C32.9131 3.39905 32.4091 3.52171 32.0078 3.30015C30.6584 2.55045 29.4853 2.32113 28.5195 2.61219C27.8636 2.81463 27.3049 3.25091 26.9496 3.83817C26.7298 4.26057 26.2145 4.43234 25.7853 4.22625C24.7754 3.74556 23.9287 3.66177 23.2672 3.97929C22.1515 4.5129 21.7634 6.02995 21.7634 6.04318C21.7072 6.28116 21.5547 6.48511 21.3423 6.60635C21.1299 6.72758 20.8768 6.75521 20.6432 6.68263C19.5275 6.33424 18.6852 6.3607 18.1384 6.7576C17.296 7.37059 17.2564 8.73769 17.2564 8.75092C17.2542 9.01017 17.1381 9.25533 16.9388 9.42124C16.7407 9.58757 16.4795 9.65851 16.2244 9.61528C15.0249 9.41242 14.1164 9.56677 13.5255 10.0783C12.6435 10.8457 12.6435 12.2216 12.6435 12.2348C12.6498 12.4819 12.5522 12.7203 12.3745 12.8919C12.1969 13.0639 11.9553 13.1535 11.7086 13.1389C10.5355 13.0683 9.71083 13.3109 9.24337 13.8621C8.48752 14.7607 8.77126 16.2991 8.80011 16.4556L8.80014 16.4557L8.80158 16.4636L8.80237 16.4684C8.85899 16.7084 8.81261 16.961 8.67448 17.1652C8.53424 17.3677 8.31779 17.5046 8.07472 17.5445C7.02073 17.7032 6.31071 18.0913 5.96232 18.6999C5.36036 19.7441 5.87633 21.2218 5.95311 21.4417C5.95902 21.4587 5.96232 21.4681 5.96232 21.4694C6.05737 21.7032 6.04774 21.9664 5.93586 22.1926C5.81954 22.4119 5.61622 22.572 5.37579 22.6336C4.46292 22.8762 3.87639 23.2907 3.63384 23.8596C3.23694 24.7989 3.76614 26.1175 4.00428 26.5453C4.23139 26.9486 4.10817 27.4588 3.72204 27.714C3.00808 28.1127 2.49916 28.7982 2.32407 29.597C2.08593 30.92 3.02967 32.243 3.0429 32.243C3.32722 32.6293 3.25082 33.1719 2.87091 33.4646C2.09475 34.0644 1.69784 34.6906 1.69784 35.3212C1.69784 36.3267 2.66364 37.2969 3.02085 37.5836C3.37989 37.8597 3.47139 38.3629 3.23253 38.7478C2.51811 39.9076 2.28438 40.8999 2.53575 41.6937C2.754 42.2865 3.1934 42.7717 3.76173 43.0476C4.00708 43.1527 4.19159 43.3634 4.26357 43.6204C4.33554 43.8775 4.28723 44.1533 4.13217 44.3706C3.46626 45.2923 3.25017 46.0684 3.4398 46.6814C3.72645 47.5281 4.85982 48.0353 5.26995 48.1588C5.49572 48.2251 5.68562 48.3789 5.79743 48.5859C5.90923 48.793 5.93367 49.0361 5.8653 49.2613C5.50368 50.452 5.53896 51.356 5.96232 51.9426C6.57091 52.7805 7.84099 52.8246 7.85422 52.8246C8.10726 52.8318 8.34499 52.9475 8.5069 53.1421C8.67103 53.3363 8.74336 53.5919 8.70535 53.8433C8.49808 55.1663 8.67448 56.1409 9.23014 56.7098C10.0412 57.5336 11.4902 57.3801 11.6083 57.3676L11.616 57.3669C11.8687 57.3313 12.1244 57.4069 12.3171 57.5741C12.5103 57.7415 12.6213 57.9845 12.6214 58.24C12.6214 59.6645 12.9478 60.6215 13.596 61.0845C14.5022 61.7385 15.8642 61.3236 15.9631 61.2934L15.9686 61.2918C16.2224 61.2058 16.5015 61.2399 16.7272 61.3844C16.9522 61.5285 17.0998 61.7669 17.1285 62.0327C17.156 62.8301 17.5177 63.5791 18.1251 64.0965C18.9099 64.6015 19.8427 64.8254 20.7711 64.7316V61.4285C18.6574 58.8505 16.9569 55.9598 15.7305 52.8598L15.6928 52.771C15.6094 52.5746 15.5288 52.385 15.4483 52.1586L15.2674 51.6824C12.5964 52.1022 9.92718 50.9185 8.44516 48.6571C7.19565 46.8584 6.78408 44.6076 7.3162 42.4831C7.67266 41.0771 8.61754 39.8927 9.90928 39.2329C10.7402 38.8338 11.6638 38.6677 12.5817 38.7522C12.4098 34.9772 12.3083 28.424 15.0073 24.8783C15.3819 24.3483 15.9816 24.0224 16.6301 23.9963C17.1479 23.9996 17.6324 24.2525 17.9311 24.6755C18.9057 25.972 20.555 26.219 22.8262 25.4031C23.2243 25.2592 23.6685 25.4183 23.8846 25.7824C24.3118 26.4014 24.8902 26.9008 25.5648 27.2333C27.0466 27.9521 28.8238 27.7404 30.8568 26.6026C31.239 26.3862 31.7222 26.484 31.9902 26.832C32.6694 27.6472 33.6321 28.1751 34.6847 28.3093C35.8225 28.3975 37.0088 27.8683 38.2127 26.7261C38.535 26.4246 39.0305 26.4076 39.3726 26.6864C39.3726 26.6864 41.4717 28.3446 43.3989 27.9256C44.3779 27.714 45.1982 26.9643 45.8332 25.7206C46.0328 25.2997 46.5253 25.1066 46.9578 25.2796C46.959 25.2796 46.9653 25.2817 46.9766 25.2856L47.0023 25.2946C47.4167 25.4402 50.6063 26.5607 52.0337 24.7196C52.3833 24.256 52.9455 24.0031 53.5243 24.0492C54.1652 24.1101 54.7315 24.4921 55.0281 25.0635C56.6598 28.0668 57.4315 32.6664 57.3345 38.761C59.7842 38.4974 62.0491 40.0923 62.6265 42.4875C63.1542 44.6036 62.7426 46.8445 61.4976 48.635C60.0167 50.8982 57.3472 52.0836 54.6753 51.6647C54.6444 51.7441 54.6146 51.8246 54.5849 51.9051L54.5473 52.0064C54.5299 52.0529 54.5124 52.0994 54.4945 52.1454L54.4944 52.1457C54.4018 52.3793 54.3092 52.613 54.2122 52.8466C52.9947 55.9235 51.3077 58.7932 49.2113 61.3535L49.251 64.6125ZM44.7748 10.2768C44.8581 10.3593 44.9707 10.4053 45.088 10.4047C45.2006 10.4019 45.3079 10.3561 45.3878 10.2768C45.4713 10.194 45.5183 10.0812 45.5183 9.96366C45.5183 9.84607 45.4713 9.73335 45.3878 9.65055C44.669 8.9229 43.9193 8.59215 43.1828 8.66271C42.5195 8.75721 41.9245 9.12094 41.5379 9.66819C41.4027 9.87156 41.458 10.146 41.6614 10.2812C41.8647 10.4164 42.1392 10.3611 42.2744 10.1577C42.5108 9.82702 42.8697 9.6047 43.271 9.5403C43.8568 9.55011 44.4079 9.82 44.7748 10.2768ZM38.345 21.8707C38.1992 21.8719 38.0621 21.8009 37.979 21.681C37.7053 21.1711 37.2217 20.8068 36.656 20.6844C36.2443 20.678 35.8472 20.8368 35.5535 21.1254C35.383 21.2995 35.1036 21.3025 34.9295 21.132C34.7553 20.9615 34.7524 20.6821 34.9229 20.508C35.4043 20.0434 36.0534 19.7936 36.7221 19.8156C37.463 19.8773 38.1378 20.336 38.7243 21.1871C38.8619 21.3881 38.8105 21.6625 38.6096 21.8001C38.5311 21.8511 38.4385 21.8758 38.345 21.8707ZM57.3919 22.6557C57.4036 22.8906 57.5977 23.0749 57.8329 23.0746L57.8549 23.0349C58.0898 23.0232 58.2742 22.8291 58.2739 22.5939C58.2209 21.5752 57.8902 20.8299 57.2904 20.3889C56.7358 20.0145 56.0508 19.8867 55.3985 20.0361C55.1624 20.0947 55.0183 20.3335 55.0766 20.5697C55.1047 20.6841 55.1774 20.7825 55.2784 20.843C55.3795 20.9034 55.5006 20.921 55.6146 20.8917C56.0106 20.8051 56.4247 20.8797 56.7656 21.0989C57.1449 21.3768 57.3566 21.8971 57.3919 22.6557ZM26.7688 13.6725C26.6516 13.6732 26.5389 13.6272 26.4557 13.5446C26.0888 13.0878 25.5377 12.8179 24.9519 12.8081C24.5508 12.8735 24.1923 13.0956 23.9552 13.4255C23.82 13.6289 23.5456 13.6842 23.3422 13.549C23.1388 13.4138 23.0835 13.1394 23.2187 12.936C23.6053 12.3888 24.2003 12.025 24.8637 11.9305C25.6001 11.8556 26.3498 12.1907 27.0687 12.9228C27.2396 13.0948 27.2396 13.3726 27.0687 13.5446C26.9887 13.624 26.8814 13.6697 26.7688 13.6725ZM11.2411 22.6336C11.2818 22.844 11.4679 22.9947 11.6821 22.9908C11.7015 22.9899 11.7207 22.987 11.7395 22.982C11.9779 22.9354 12.1337 22.7046 12.0878 22.466C12.0276 22.0657 12.1256 21.6575 12.3613 21.3283C12.7786 20.9245 13.354 20.7273 13.9312 20.7902H13.9533C14.1968 20.7902 14.3943 20.5928 14.3943 20.3492C14.3943 20.1057 14.1968 19.9082 13.9533 19.9082H13.9312C12.9081 19.9082 12.154 20.1949 11.6821 20.7638C11.2831 21.2993 11.1234 21.9762 11.2411 22.6336ZM63.1249 37.9496C62.8813 37.9496 62.6838 37.7521 62.6838 37.5086C62.7533 36.9256 62.5593 36.342 62.1546 35.9166C61.8239 35.6804 61.4148 35.5809 61.0125 35.6387C60.8549 35.6679 60.6938 35.6108 60.5897 35.4889C60.4857 35.367 60.4546 35.1989 60.5082 35.0479C60.5617 34.8969 60.6917 34.7859 60.8493 34.7567C61.5103 34.6492 62.1865 34.8182 62.7191 35.2242C63.288 35.7005 63.5747 36.4634 63.5659 37.4998C63.5682 37.6182 63.5228 37.7327 63.4398 37.8173C63.3569 37.9019 63.2434 37.9496 63.1249 37.9496ZM6.45625 36.9309C6.45625 37.1744 6.65369 37.3719 6.89725 37.3719V37.3763C7.14081 37.3763 7.33825 37.1789 7.33825 36.9353C7.27148 36.3552 7.46529 35.7754 7.86745 35.3521C8.19471 35.1082 8.60645 35.0065 9.00965 35.0699C9.1672 35.099 9.32834 35.0419 9.43236 34.92C9.53638 34.7981 9.56748 34.63 9.51394 34.479C9.46041 34.328 9.33037 34.217 9.17282 34.1879C8.51318 34.0805 7.83845 34.2496 7.30738 34.6553C6.73408 35.1316 6.45625 35.8989 6.45625 36.9309ZM16.101 58.315H16.0348C15.0117 58.1695 14.3017 57.7682 13.918 57.1331C13.5959 56.5458 13.532 55.851 13.7416 55.2148C13.8358 55.0063 14.0737 54.9045 14.2896 54.9802C14.5054 55.056 14.6275 55.2843 14.5707 55.5058C14.4478 55.8968 14.4859 56.3206 14.6765 56.6833C15.034 57.1451 15.579 57.4233 16.1627 57.4418C16.4063 57.4589 16.5899 57.6702 16.5728 57.9137C16.5558 58.1573 16.3445 58.3409 16.101 58.3238V58.315ZM54.5077 56.6436C54.5248 56.8872 54.736 57.0708 54.9796 57.0537L55.0457 57.0449C56.0689 56.895 56.7833 56.4981 57.167 55.8586C57.4865 55.2705 57.5503 54.5768 57.3434 53.9403C57.263 53.7101 57.0112 53.5887 56.7811 53.669C56.5509 53.7494 56.4295 54.0012 56.5099 54.2313C56.6326 54.6218 56.5962 55.045 56.4084 55.4088C56.1659 55.8057 55.6631 56.0615 54.9178 56.1717C54.6743 56.1888 54.4907 56.4 54.5077 56.6436Z" fill="#372168"/>
</svg>
