<svg width="190" height="100" viewBox="0 0 190 118" fill="none" xmlns="http://www.w3.org/2000/svg">
<path fill-rule="evenodd" clip-rule="evenodd" d="M128.169 36.8961C128.172 36.8867 128.175 36.8772 128.178 36.8678C130.328 30.5078 126.608 22.9278 121.058 17.3178C112.498 8.75777 101.758 14.9078 101.758 14.9078C92.4883 10.6878 86.5983 16.6178 86.5983 16.6178C71.8483 13.8778 68.8983 22.2978 68.8983 22.2978C55.6383 23.7678 52.8983 32.8378 52.8983 32.8378C43.4035 32.7296 41.1936 42.2315 40.1177 46.8574C40.0004 47.3617 39.8966 47.8081 39.7983 48.1778C38.9783 51.0978 43.8683 50.2178 45.8683 48.2978C44.2483 50.6078 40.1383 57.9178 38.9483 73.7178C37.7183 90.0278 45.5283 108.028 45.5283 108.028C45.5283 108.028 43.9383 90.1278 47.9383 84.2278C48.8808 82.8376 49.7711 81.7855 50.6091 80.7952C53.3276 77.5828 55.4954 75.0211 57.1083 63.6778C57.1083 63.6778 59.4283 54.3178 67.0083 57.2678C72.3939 59.3638 74.3771 58.1633 77.1901 56.4604C78.3363 55.7666 79.6203 54.9894 81.3283 54.3178C84.5662 53.1342 88.1417 53.2853 91.2683 54.7378C92.7503 55.3907 94.2904 55.9029 95.8683 56.2678C105.229 58.4786 110.505 57.0001 114.222 54.1631C114.64 54.7765 120.513 63.1768 128.798 63.6778C132.712 63.9148 133.885 68.3948 135.053 72.8569C135.709 75.3604 136.363 77.8582 137.498 79.5978C140.658 84.4378 140.818 95.8578 138.898 107.378C145.112 95.9976 147.822 83.0342 146.688 70.1178C144.393 45.0384 129.25 37.4099 128.169 36.8961Z" fill="#323232"/>
<path fill-rule="evenodd" clip-rule="evenodd" d="M128.169 36.8961C128.172 36.8867 128.175 36.8772 128.178 36.8678C130.328 30.5078 126.608 22.9278 121.058 17.3178C112.498 8.75777 101.758 14.9078 101.758 14.9078C92.4883 10.6878 86.5983 16.6178 86.5983 16.6178C71.8483 13.8778 68.8983 22.2978 68.8983 22.2978C55.6383 23.7678 52.8983 32.8378 52.8983 32.8378C43.4035 32.7296 41.1936 42.2315 40.1177 46.8574C40.0004 47.3617 39.8966 47.8081 39.7983 48.1778C38.9783 51.0978 43.8683 50.2178 45.8683 48.2978C44.2483 50.6078 40.1383 57.9178 38.9483 73.7178C37.7183 90.0278 45.5283 108.028 45.5283 108.028C45.5283 108.028 43.9383 90.1278 47.9383 84.2278C48.8808 82.8376 49.7711 81.7855 50.6091 80.7952C53.3276 77.5828 55.4954 75.0211 57.1083 63.6778C57.1083 63.6778 59.4283 54.3178 67.0083 57.2678C72.3939 59.3638 74.3771 58.1633 77.1901 56.4604C78.3363 55.7666 79.6203 54.9894 81.3283 54.3178C84.5662 53.1342 88.1417 53.2853 91.2683 54.7378C92.7503 55.3907 94.2904 55.9029 95.8683 56.2678C105.229 58.4786 110.505 57.0001 114.222 54.1631C114.64 54.7765 120.513 63.1768 128.798 63.6778C132.712 63.9148 133.885 68.3948 135.053 72.8569C135.709 75.3604 136.363 77.8582 137.498 79.5978C140.658 84.4378 140.818 95.8578 138.898 107.378C145.112 95.9976 147.822 83.0342 146.688 70.1178C144.393 45.0384 129.25 37.4099 128.169 36.8961Z" fill="white" fill-opacity="0.05"/>
<path fill-rule="evenodd" clip-rule="evenodd" d="M43.6283 108.827C43.9459 109.555 44.6641 110.026 45.4583 110.027C45.6016 110.038 45.7456 110.035 45.8883 110.017C46.8415 109.776 47.4775 108.877 47.3883 107.897C46.9583 103.117 46.5083 89.7473 49.4583 85.3973C50.2435 84.2641 51.0914 83.1758 51.9983 82.1374L52.0018 82.1332C54.8103 78.8249 57.249 75.9524 58.9383 64.1373C59.2483 62.9973 60.3683 60.1373 62.3683 59.1373C63.5647 58.5714 64.9518 58.5714 66.1483 59.1373C72.4483 61.5573 75.0883 59.9773 78.0883 58.1373C79.3064 57.3581 80.5915 56.6888 81.9283 56.1373C84.6664 55.1525 87.6833 55.2927 90.3183 56.5273C91.9298 57.2322 93.6038 57.7846 95.3183 58.1773C103.13 60.0279 109.042 59.5988 113.716 56.8195C116.002 59.6371 121.439 65.2345 128.678 65.6773C130.978 65.8173 131.928 68.8074 133.128 73.3673C133.648 75.9313 134.559 78.4001 135.828 80.6873C138.448 84.6973 138.928 95.2973 136.928 107.047C136.772 107.99 137.304 108.912 138.198 109.247C138.422 109.334 138.659 109.378 138.898 109.377C139.595 109.38 140.243 109.02 140.608 108.427C147.098 96.6954 149.936 83.2927 148.758 69.9373C146.699 47.4248 134.735 38.3699 130.478 35.8365C131.953 28.5974 127.398 20.8881 122.368 15.8673C115.248 8.74735 106.148 10.4573 101.568 12.6573C93.6083 9.44735 87.9583 12.8573 85.9083 14.4473C73.6383 12.5173 68.9583 17.9373 67.4883 20.4473C56.9783 21.9873 52.8383 28.0973 51.4883 30.8773C41.6639 31.6354 39.2309 41.7545 38.1567 46.2225L38.1483 46.2573C38.0283 46.7873 37.9183 47.2573 37.8083 47.6373C37.2874 49.0866 37.8553 50.7025 39.1683 51.5073C39.8828 51.9127 40.6977 52.1069 41.5183 52.0673C39.6983 56.3373 37.6683 63.2073 36.8883 73.5673C35.6283 90.1674 43.2983 108.067 43.6283 108.827ZM47.5783 47.3782C47.2357 46.7163 46.5536 46.2997 45.8083 46.2973C45.2638 46.2727 44.7329 46.4714 44.3383 46.8473C43.5988 47.4636 42.7081 47.871 41.7583 48.0273C41.8183 47.7573 41.8883 47.4773 41.9683 47.1673C43.3883 41.1973 45.5083 34.8273 52.5983 34.8273H52.7483C52.908 34.8273 53.0643 34.8082 53.2147 34.7721C61.0715 35.475 76.7444 38.5497 83.5526 51.6636C82.5008 51.8122 81.46 52.0732 80.4483 52.4473C78.9025 53.0757 77.4165 53.8422 76.0083 54.7373C73.3783 56.3373 72.0583 57.1373 67.5883 55.3973C65.8051 54.6133 63.8215 54.478 61.973 54.9848C60.9485 51.4641 59.9527 48.1263 52.7983 45.8974C52.4571 45.7902 52.0846 45.8732 51.8212 46.115C51.5578 46.3569 51.4435 46.721 51.5212 47.07C51.599 47.4191 51.8571 47.7002 52.1983 47.8074C58.3449 49.7201 59.0629 52.1687 60.0569 55.5586L60.0683 55.5974L60.116 55.7563C56.4179 57.9604 55.1228 62.797 55.0226 63.1713L55.0183 63.1873V63.3873C53.5283 74.1573 51.6383 76.3974 49.0183 79.4974C48.0164 80.6424 47.0815 81.8444 46.2183 83.0974C44.3783 85.8174 43.5783 90.4973 43.2883 95.0974C41.6783 88.8673 40.3283 81.1774 40.8783 73.8673C42.0583 58.2073 46.1983 51.2173 47.4383 49.4473C47.8668 48.8376 47.9208 48.0401 47.5783 47.3782ZM63.4783 34.5773C60.6508 33.7915 57.7681 33.235 54.8583 32.9116C55.62 31.1826 58.7648 25.6327 68.3362 24.3544C74.1552 25.4413 87.1571 29.1239 95.7283 40.9273C95.9171 41.1858 96.2182 41.3382 96.5383 41.3373V41.3673C96.9153 41.3683 97.2608 41.1572 97.4319 40.8213C97.6031 40.4854 97.5707 40.0817 97.3483 39.7773C89.1686 28.5251 77.4403 24.2982 70.7203 22.7619C71.2363 21.6881 74.3938 16.405 86.0883 18.5773C86.1382 18.5865 86.1882 18.5936 86.2382 18.5989C91.9539 20.3344 101.781 24.9191 105.538 36.4073C105.678 36.8367 106.087 37.1194 106.538 37.0973C106.627 37.0878 106.714 37.0676 106.798 37.0373C107.323 36.8658 107.609 36.302 107.438 35.7773C103.807 24.6778 94.9478 19.5809 88.7517 17.3171C90.1449 16.3576 93.1266 14.8353 97.2762 15.5931C97.3156 15.6069 97.3564 15.6184 97.3983 15.6273L97.4231 15.6333C97.6117 15.6773 98.823 15.9605 100.537 16.6056C100.621 16.6419 100.704 16.6792 100.788 16.7173C100.904 16.7702 101.023 16.8114 101.144 16.8411C104.817 18.3111 110.292 21.3079 113.318 26.8373C113.494 27.1588 113.832 27.3583 114.198 27.3573C114.366 27.3582 114.531 27.3169 114.678 27.2373C114.912 27.1105 115.086 26.8957 115.161 26.6405C115.236 26.3852 115.206 26.1106 115.078 25.8773C112.314 20.8313 107.833 17.7498 104.126 15.9443C107.097 14.7864 113.881 13.1027 119.498 18.7273C124.058 23.2773 128.208 30.2173 126.208 36.2173C125.99 36.8634 125.701 37.4837 125.348 38.0673C124.85 38.9599 124.208 39.7641 123.448 40.4473C121.651 42.2035 120.011 44.1142 118.548 46.1573L118.158 46.6873C116.687 48.8707 114.92 50.8395 112.908 52.5373C110.458 54.4173 106.058 56.6473 96.1783 54.3073C94.7224 53.9766 93.3023 53.5043 91.9383 52.8973C89.9721 51.9896 87.8535 51.5274 85.7289 51.5163C81.7999 43.3681 74.1118 37.51 63.4783 34.5773ZM100.758 50.2573C100.908 50.6454 101.282 50.9003 101.698 50.8973C101.818 50.8984 101.936 50.8781 102.048 50.8373C102.299 50.7433 102.501 50.5529 102.61 50.3086C102.719 50.0643 102.726 49.7865 102.628 49.5373C101.847 47.4975 100.914 45.5187 99.8383 43.6173C99.708 43.3842 99.4899 43.2129 99.2326 43.1415C98.9752 43.0701 98.7 43.1046 98.4683 43.2373C97.9921 43.512 97.8269 44.1194 98.0983 44.5973C99.1248 46.415 100.014 48.307 100.758 50.2573ZM116.898 54.3773C118.898 56.7473 123.338 61.3074 128.898 61.6373C134.254 61.9671 135.756 67.6887 136.966 72.297L136.968 72.3074C137.398 74.454 138.132 76.5282 139.148 78.4673C141.448 81.9973 142.218 88.0674 142.148 94.5674C144.597 86.7119 145.493 78.4552 144.788 70.2573C143.008 50.7573 133.178 42.3373 129.128 39.6673C129.079 39.7596 129.026 39.8481 128.974 39.9352L128.974 39.9357L128.972 39.9383C128.94 39.9917 128.908 40.0445 128.878 40.0973C128.2 41.2788 127.347 42.3509 126.348 43.2773C124.771 44.8222 123.326 46.4955 122.027 48.2798C123.618 50.2599 127.526 53.8187 135.558 54.7774C136.111 54.8105 136.531 55.2851 136.498 55.8373C136.465 56.3896 135.991 56.8105 135.438 56.7774L135.448 56.7573H135.328C127.178 55.7895 122.846 52.264 120.822 49.9374C119.641 51.5248 118.343 53.0224 116.938 54.4174L116.898 54.3773Z" fill="black" fill-opacity="0.1"/>
</svg>
