<svg width="89" height="100" viewBox="0 0 89 73" fill="none" xmlns="http://www.w3.org/2000/svg">
<path fill-rule="evenodd" clip-rule="evenodd" d="M81.3987 64.1665C81.3987 64.1665 80.3573 68.8323 72.513 66.3828C72.3631 66.8293 72.1676 67.2593 71.9297 67.6659C69.9163 71.1257 65.8024 72.7658 61.9609 71.6401L60.9527 71.3568C58.9656 70.8069 57.4826 70.4403 56.2286 70.1362L56.1162 70.1071H56.087H56.0079V56.4764C58.4569 53.8419 60.3875 50.7694 61.6984 47.4198L61.9567 46.7741C62.0942 46.4158 62.2316 46.0451 62.3733 45.6785C64.4062 46.1492 67.0807 45.7243 68.6637 43.3081C70.0385 41.2002 70.0843 38.959 69.3178 37.3884C67.8451 36.4996 66.2428 35.8461 64.5687 35.4513C61.5234 34.6181 59.4822 32.6477 58.9489 30.094C58.6032 28.4652 58.8823 26.5239 59.9238 24.3202C61.3151 21.3707 60.4445 19.2878 59.2281 17.9422C58.0866 16.6925 56.312 15.8885 54.4165 15.6135C49.155 14.8637 46.1514 16.2509 44.9142 17.0591C44.5259 17.3136 44.0236 17.3136 43.6353 17.0591C42.3855 16.2551 39.3944 14.8637 34.1288 15.6135C32.225 15.8885 30.4628 16.6841 29.3214 17.9422C28.105 19.2878 27.2385 21.3707 28.6257 24.3202C29.6672 26.5239 29.9463 28.486 29.6005 30.094C29.0714 32.631 27.0468 34.6056 24.0308 35.4555C22.3019 35.8589 20.6623 36.5777 19.1942 37.5759C18.5152 39.1298 18.611 41.2793 19.9316 43.3081C21.5146 45.7243 24.1891 46.1492 26.222 45.6785C26.3553 46.0451 26.4928 46.4158 26.6386 46.7741L26.8969 47.4198C27.3134 48.4321 27.755 49.3986 28.2299 50.3067C28.3716 50.5845 28.5174 50.8511 28.6674 51.1066C29.7414 53.0553 31.0587 54.8596 32.5874 56.4764V70.1029C32.5874 70.1029 32.5874 70.1029 32.5208 70.1029C31.271 70.4028 29.638 70.8153 27.6634 71.3526L26.3095 71.7359C22.471 72.8658 18.3513 71.2855 16.2531 67.8783C15.9619 67.4093 15.7243 66.9091 15.5449 66.3869C7.70478 68.8365 6.65915 64.1707 6.65915 64.1707C0.631155 63.8499 1.08523 59.2467 1.34768 57.9219C1.36443 57.8495 1.41713 57.7908 1.48728 57.7663C1.55743 57.7417 1.63525 57.7549 1.69345 57.8011C4.43458 59.9715 10.1793 55.9431 6.13425 48.6904C1.96839 41.1919 8.43797 38.9715 12.6705 37.001C17.9194 34.5557 18.1861 27.9528 18.1652 26.3239C18.1652 25.9073 18.1652 25.4616 18.1652 25.0283C18.7943 0.983035 43.9685 1.69956 44.031 1.69956C44.0935 1.69956 69.2636 0.966373 69.8968 25.0283C69.8968 25.4449 69.8968 25.8865 69.8968 26.3239C69.8968 27.9528 70.1468 34.5557 75.3957 37.001C79.6282 38.9715 86.1145 41.196 81.932 48.6904C77.9161 55.8848 84.3815 60.2756 87.2226 58.2719C87.297 58.2214 87.3916 58.2112 87.4751 58.2446C87.5586 58.278 87.6201 58.3506 87.6392 58.4385C87.8558 59.8591 87.9725 64.2707 81.3987 64.1665Z" fill="#FFCB6D"/>
<path fill-rule="evenodd" clip-rule="evenodd" d="M15.5241 68.3074C17.2823 71.1849 20.417 72.934 23.7891 72.919C24.7114 72.9357 25.6314 72.8221 26.5219 72.5815L27.8717 72.2025C29.5172 71.74 31.1002 71.3318 32.6791 70.9527C33.0965 70.898 33.4075 70.5405 33.4039 70.1195V56.493C33.4042 56.2791 33.3222 56.0732 33.1748 55.9181C31.6925 54.3507 30.4158 52.6008 29.3756 50.7108C29.2367 50.4581 29.0978 50.1998 28.959 49.936C28.4966 49.057 28.08 48.1113 27.6634 47.124C27.6451 47.0786 27.6269 47.0338 27.6089 46.9893C27.541 46.8215 27.4751 46.6588 27.4093 46.4908C27.2801 46.1534 27.1468 45.7993 27.0218 45.4535C26.8966 45.0309 26.4639 44.7789 26.0345 44.8786C24.3057 45.2744 21.9853 44.9494 20.6189 42.8665C19.6108 41.3168 19.3317 39.5672 19.8566 38.1424C21.1782 37.2815 22.6381 36.6544 24.1724 36.2886H24.2432C27.5592 35.3513 29.8046 33.1684 30.4045 30.2981C30.8044 28.4152 30.4545 26.2947 29.3672 23.9952C28.3716 21.8831 28.559 20.046 29.9254 18.5296C31.0879 17.3765 32.6058 16.6498 34.2329 16.4675C39.1611 15.7676 41.9481 16.9924 43.1687 17.7839C43.8341 18.2197 44.6945 18.2197 45.3599 17.7839C46.3389 17.1424 49.1675 15.7343 54.2874 16.4633C55.9178 16.6383 57.4394 17.366 58.599 18.5254C59.9654 20.0418 60.157 21.8789 59.1572 23.991C58.07 26.2906 57.7034 28.411 58.1199 30.2898C58.724 33.1684 61.0027 35.3513 64.3354 36.2803H64.3979C65.8927 36.637 67.3272 37.211 68.6554 37.9841C69.1303 39.1589 69.1803 40.9877 67.9555 42.8665C66.5766 44.9536 64.2562 45.2744 62.5399 44.8786C62.2927 44.8229 62.0336 44.8827 61.8359 45.0411C61.7101 45.1414 61.6161 45.2759 61.5651 45.4285C61.436 45.7826 61.3027 46.145 61.1693 46.4825L61.158 46.5116C61.075 46.7252 60.9989 46.9208 60.9152 47.124C59.6434 50.3635 57.7785 53.3374 55.4163 55.8931C55.2511 56.0506 55.1577 56.269 55.158 56.4972V70.1279C55.1583 70.5107 55.4195 70.8441 55.7912 70.936H55.8412H55.8745H55.9079H55.9579H56.0162C57.3034 71.2485 58.7657 71.6109 60.7153 72.1525L61.7151 72.4316C65.9227 73.6715 70.4321 71.8687 72.6254 68.0699L72.6629 67.9995C72.7878 67.7647 72.8919 67.5688 72.9754 67.3867C75.9123 68.1866 78.2702 68.0866 79.9865 67.0951C80.8399 66.6118 81.5236 65.8772 81.9445 64.9914C84.3315 64.9289 86.127 64.254 87.2476 62.9792C88.6515 61.3837 88.5973 59.3508 88.439 58.276C88.3794 57.9027 88.1301 57.5873 87.7808 57.4428C87.4246 57.2929 87.0161 57.3387 86.7019 57.5636C85.7979 58.2052 84.2357 57.9011 83.0651 56.8513C82.3194 56.1681 80.0782 53.6436 82.6235 49.0861C84.0357 46.5533 84.419 44.3954 83.7899 42.4916C82.7921 39.4692 79.4118 37.9281 76.6794 36.6824L76.6288 36.6594L75.7123 36.2428C74.8583 35.847 70.6217 33.5058 70.6925 26.3281V25.0033C70.3551 12.2183 63.1648 6.33614 57.191 3.65333C48.7792 -0.0487507 39.1995 -0.0487507 30.7878 3.65333C24.8181 6.33614 17.632 12.2183 17.2946 24.9867V25.9948V26.3281C17.3237 27.5862 17.1571 33.9724 12.2956 36.2386L11.3791 36.6552L11.316 36.6839C8.58173 37.9285 5.21422 39.4613 4.2138 42.4874C3.58892 44.3912 3.96801 46.5491 5.3844 49.082C7.50482 52.8854 6.70914 55.5515 5.25526 56.8013C4.27212 57.6428 3.02236 57.7761 2.18919 57.1346C1.89941 56.9051 1.51092 56.8435 1.16439 56.9721C0.823802 57.0964 0.573757 57.3907 0.506187 57.7469C0.327055 58.6551 0.0646061 60.9713 1.4685 62.7751C2.44747 64.0165 3.96801 64.7497 6.05094 64.958C6.46993 65.8625 7.16199 66.6128 8.02972 67.1034C9.74605 68.0991 12.1206 68.1949 15.0367 67.3951C15.1831 67.7075 15.3458 68.012 15.5241 68.3074ZM15.9198 65.6495C15.8 65.5834 15.6652 65.549 15.5283 65.5495C15.4667 65.5483 15.4053 65.5539 15.345 65.5662C12.5913 66.4285 10.3834 66.4619 8.96287 65.662C8.27844 65.3049 7.75997 64.6952 7.51732 63.9624C7.43591 63.5987 7.1229 63.3333 6.7508 63.3125C4.90949 63.2167 3.59725 62.6834 2.85573 61.7295C2.28051 60.9137 2.01468 59.9198 2.10587 58.9258C3.59112 59.4517 5.24541 59.1135 6.40504 58.0468C9.40862 55.5057 8.54212 51.1649 6.9091 48.2488C5.73433 46.145 5.3969 44.4245 5.86764 42.9914C6.64666 40.6461 9.56275 39.3088 12.1372 38.1466L13.0704 37.73C18.8609 35.0472 19.0651 27.7278 19.0442 26.2989V25.9698V25.0241C19.6177 2.47493 42.5864 2.52534 44.0039 2.52845C44.0178 2.52849 44.0296 2.52851 44.0394 2.52851H44.0852C44.0947 2.52851 44.1064 2.52849 44.1201 2.52845C45.5202 2.52535 68.4862 2.47435 69.0803 25.0241V26.2947C69.0012 34.289 73.6377 37.0718 75.0625 37.7341L75.9956 38.1507L75.9969 38.1513C78.5544 39.3134 81.4697 40.6381 82.2444 42.9956C82.7193 44.4287 82.3777 46.1492 81.2071 48.2529C78.7034 52.7312 79.9698 56.2639 81.9903 58.0718C83.465 59.3966 85.3896 59.8548 86.8893 59.3216C86.9253 60.2472 86.6216 61.154 86.0353 61.8711C85.1688 62.8667 83.6066 63.35 81.4196 63.3166C81.0342 63.3179 80.7 63.5832 80.6114 63.9582C80.369 64.6933 79.8508 65.3057 79.1658 65.6662C77.7453 66.466 75.5415 66.4327 72.7837 65.5704C72.5714 65.5055 72.342 65.5279 72.1464 65.6329C71.9472 65.7342 71.7971 65.9113 71.7298 66.1244C71.5939 66.5103 71.4224 66.8827 71.2174 67.2367C69.4036 70.3685 65.6802 71.8495 62.2108 70.8194L61.2027 70.5361C59.4322 70.0487 58.0658 69.7029 56.8619 69.4113V56.7638C59.27 54.1006 61.1792 51.0258 62.4983 47.6864L62.7607 47.0282C62.819 46.8782 62.8773 46.7241 62.9315 46.5699C65.0894 46.8449 67.7139 46.2325 69.3802 43.7121C70.7883 41.5542 71.0591 38.9714 70.0843 36.9718C70.0135 36.8265 69.9021 36.7049 69.7635 36.6219C68.2126 35.6903 66.526 35.0058 64.7645 34.5931C62.0567 33.8307 60.232 32.1102 59.7655 29.8732C59.428 28.3735 59.7488 26.5905 60.6778 24.6242C62.3108 21.1665 61.1277 18.7503 59.8446 17.334C58.4264 15.8821 56.55 14.9652 54.5331 14.7386C49.0425 13.9596 45.8723 15.3885 44.4601 16.3133C44.3473 16.3862 44.2022 16.3862 44.0893 16.3133C42.673 15.3927 39.4777 13.9638 34.0121 14.7428C31.9968 14.9703 30.1219 15.8872 28.7048 17.3381C27.4259 18.7545 26.2387 21.1707 27.8717 24.6325C28.784 26.5946 29.1089 28.3568 28.784 29.8773C28.3174 32.0977 26.5178 33.8349 23.835 34.5973C22.0113 35.0263 20.2817 35.7859 18.7318 36.8385C18.5997 36.9268 18.4956 37.0512 18.4319 37.1967C17.5695 39.1797 17.8653 41.6167 19.2359 43.7205C20.6348 45.8576 23.1578 46.9748 25.6804 46.5741L25.8554 47.0407C25.9165 47.1962 25.9739 47.3369 26.0313 47.4776C26.06 47.548 26.0887 47.6183 26.1179 47.6905C26.5386 48.732 27.001 49.7276 27.4843 50.6525C27.6301 50.9441 27.78 51.219 27.9342 51.4856C28.9886 53.3966 30.2683 55.1742 31.7459 56.7804V69.4196C30.3212 69.7696 28.9048 70.1278 27.4343 70.5444L26.0679 70.9318C22.5921 71.9582 18.8596 70.5297 16.9571 67.445C16.7021 67.0365 16.4939 66.6004 16.3364 66.1453C16.2701 65.9306 16.1199 65.7518 15.9198 65.6495Z" fill="#372168"/>
<path fill-rule="evenodd" clip-rule="evenodd" d="M44.0268 17.559C44.0976 17.6084 44.1821 17.6346 44.2684 17.634C44.4011 17.6256 44.5219 17.5544 44.5934 17.4424C44.5954 17.4408 44.6081 17.4244 44.6307 17.3949C45.0217 16.8872 48.4045 12.4937 52.3419 12.8599C52.5708 12.8817 52.774 12.7139 52.7959 12.485C52.8203 12.2575 52.6567 12.0529 52.4294 12.0267C47.7844 11.5852 44.081 16.755 43.9268 16.9758C43.8623 17.0662 43.8365 17.1787 43.8553 17.2882C43.8741 17.3977 43.9358 17.4952 44.0268 17.559ZM55.5788 30.7689C55.3789 30.7734 55.2041 30.6353 55.1622 30.4398C54.7831 28.6485 55.1205 26.6156 56.1703 24.3993C57.2201 22.1831 57.0326 20.1293 55.5413 18.4797C54.319 17.2466 52.7099 16.4714 50.9838 16.2843C49.8393 16.1173 48.6823 16.0504 47.5262 16.0843C47.3773 16.0903 47.2366 16.0164 47.1571 15.8904C47.0775 15.7645 47.0711 15.6057 47.1404 15.4738C47.2097 15.342 47.344 15.2571 47.4928 15.2511C48.6991 15.2122 49.9063 15.2805 51.1005 15.4553C53.0187 15.6715 54.8043 16.5408 56.1578 17.9173C57.3534 19.242 58.4574 21.4999 56.9202 24.7534C55.9537 26.7989 55.6371 28.6527 55.9787 30.2607C56.0021 30.369 55.9815 30.4822 55.9213 30.5752C55.8611 30.6682 55.7663 30.7335 55.6579 30.7564C55.6322 30.764 55.6056 30.7682 55.5788 30.7689ZM32.8915 30.7689C32.9205 30.773 32.95 30.773 32.979 30.7689C33.1812 30.7828 33.3641 30.6492 33.4123 30.4523C33.7955 28.661 33.4539 26.6281 32.4083 24.416C31.3335 22.1373 31.546 20.1585 33.0373 18.4921C34.259 17.2582 35.8684 16.4829 37.5948 16.2967C38.7393 16.1296 39.8963 16.0627 41.0524 16.0968C41.2825 16.0968 41.469 15.9103 41.469 15.6802C41.469 15.4501 41.2825 15.2636 41.0524 15.2636C39.8462 15.2226 38.6387 15.291 37.4448 15.4677C35.5265 15.684 33.7409 16.5533 32.3875 17.9298C31.2085 19.2545 30.0921 21.5124 31.6251 24.7659C32.5916 26.8114 32.9124 28.6652 32.5708 30.2732C32.5473 30.3815 32.568 30.4947 32.6281 30.5877C32.6883 30.6807 32.7831 30.7459 32.8915 30.7689ZM73.9794 43.8622C73.5759 43.8699 73.2248 43.5874 73.1462 43.1915C72.7546 41.2377 71.3549 39.563 68.8637 38.0717C68.6084 37.9184 68.4544 37.6406 68.4595 37.3429C68.4646 37.0452 68.6282 36.7728 68.8886 36.6284C69.149 36.484 69.4666 36.4895 69.7219 36.6428C72.638 38.3883 74.3043 40.4254 74.7792 42.8624C74.8233 43.0796 74.7792 43.3053 74.6564 43.4898C74.5337 43.6743 74.3425 43.8023 74.1252 43.8455C74.077 43.8544 74.0283 43.86 73.9794 43.8622ZM14.9117 44.4913C14.4516 44.4913 14.0785 44.1182 14.0785 43.6581C14.0785 41.1586 15.5991 38.9423 18.7235 36.8511C19.1051 36.6041 19.6143 36.7087 19.8677 37.086C20.1212 37.4634 20.0254 37.9742 19.6525 38.2341C17.0238 39.9963 15.7449 41.771 15.7449 43.6498C15.7471 43.8722 15.6603 44.0862 15.5038 44.2443C15.3473 44.4023 15.1341 44.4913 14.9117 44.4913ZM6.58416 64.9997H6.69247C7.20904 64.9997 9.20448 64.8039 11.6373 62.0212C11.8594 61.802 11.9404 61.4771 11.8472 61.1793C11.7539 60.8815 11.5022 60.6608 11.1948 60.6073C10.8873 60.5539 10.5758 60.6767 10.3876 60.9255C8.30466 63.3001 6.75496 63.3334 6.6883 63.3334C6.22816 63.3046 5.83182 63.6544 5.80306 64.1145C5.7743 64.5746 6.12401 64.971 6.58416 64.9997ZM15.5283 67.216C15.1193 67.2151 14.7715 66.9175 14.7073 66.5137C14.6431 66.1098 14.8815 65.719 15.27 65.5913C17.4088 64.7683 19.2367 63.2971 20.4981 61.3838C20.6476 61.112 20.9357 60.9457 21.2458 60.9523C21.556 60.9588 21.8368 61.1371 21.9746 61.4151C22.1124 61.693 22.0845 62.0244 21.902 62.2753C20.4414 64.5217 18.2975 66.2391 15.7865 67.1744C15.7034 67.2027 15.6161 67.2168 15.5283 67.216ZM75.2708 61.0588C78.3118 64.7456 80.7239 65.0039 81.3404 65.0039L81.4571 64.9956C81.9042 64.9537 82.2377 64.5649 82.2111 64.1166C82.1867 63.6744 81.8207 63.3286 81.3779 63.3292H81.3529C81.3362 63.3292 79.32 63.3292 76.558 59.9965C76.2647 59.6411 75.7387 59.5907 75.3832 59.8841C75.0278 60.1774 74.9774 60.7034 75.2708 61.0588ZM72.4983 67.216C72.3884 67.215 72.2798 67.1908 72.1797 67.1452C70.0281 66.1503 68.1179 64.7006 66.5808 62.8961C66.3172 62.5477 66.3675 62.0549 66.696 61.7669C67.0245 61.4789 67.5196 61.4936 67.8305 61.8004C69.2017 63.4196 70.9071 64.7228 72.8296 65.6205C73.1895 65.7792 73.3894 66.1681 73.309 66.5532C73.2287 66.9377 72.8908 67.2138 72.4983 67.216ZM72.4983 67.216L72.4993 67.2161H72.4963L72.4983 67.216ZM72.513 51.1483C72.2829 51.1483 72.0964 50.9618 72.0964 50.7317C72.1206 44.9109 69.2699 42.5417 69.0702 42.3758C69.0641 42.3707 69.0605 42.3677 69.0595 42.3667C68.9404 42.2774 68.878 42.1314 68.8958 41.9836C68.9136 41.8358 69.0089 41.7088 69.1458 41.6503C69.2827 41.5919 69.4403 41.6109 69.5594 41.7002C69.6969 41.8043 72.9546 44.3205 72.9296 50.7317C72.9296 50.9618 72.743 51.1483 72.513 51.1483ZM16.3448 51.1483C16.3448 51.3784 16.5313 51.5649 16.7613 51.5649C16.9914 51.5649 17.1779 51.3784 17.1779 51.1483C17.1613 46.3326 19.0817 43.8955 19.9149 43.0624C20.0206 42.9567 20.0618 42.8027 20.0232 42.6583C19.9845 42.514 19.8717 42.4012 19.7274 42.3625C19.583 42.3239 19.429 42.3651 19.3233 42.4708C18.4277 43.3748 16.3448 46.0243 16.3448 51.1483ZM23.1934 72.8898H22.8393C22.3792 72.8645 22.0267 72.471 22.052 72.0109C22.0773 71.5507 22.4708 71.1982 22.931 71.2235C26.8677 71.436 29.0215 66.6661 29.0423 66.6161C29.2353 66.2083 29.7179 66.0283 30.1308 66.2099C30.5438 66.3916 30.7371 66.8689 30.567 67.2868L30.5573 67.3074C30.359 67.729 27.9317 72.8898 23.1934 72.8898ZM64.6895 72.8066H64.7395V72.8107C65.0372 72.8189 65.3166 72.6677 65.4725 72.414C65.6284 72.1603 65.6371 71.8427 65.4954 71.5808C65.3537 71.3189 65.083 71.1526 64.7853 71.1444C61.0819 70.9319 59.3947 66.7619 59.3947 66.7202C59.2202 66.3047 58.7469 66.1032 58.3264 66.2655C57.9059 66.4278 57.6908 66.8951 57.8408 67.3201C57.9241 67.5326 59.9029 72.5316 64.6895 72.8066Z" fill="#372168"/>
</svg>
