<svg width="70" height="100" viewBox="0 0 70 74" fill="none" xmlns="http://www.w3.org/2000/svg">
<path fill-rule="evenodd" clip-rule="evenodd" d="M1.71173 41.4525C-0.237426 53.5475 1.13175 64.2844 5.38245 72.4738C6.85074 71.7727 8.38511 71.1266 9.89377 70.543C10.2608 70.4035 10.6022 70.2677 10.9583 70.1355C11.9127 69.7684 12.8597 69.4491 13.7884 69.1371C15.1649 68.6746 16.4901 68.2634 17.7271 67.9C20.1791 67.1842 22.2788 66.6557 23.7141 66.3106C23.7141 66.362 23.7141 65.2094 23.7141 65.2534V54.3037C21.5549 51.9812 19.8526 49.2726 18.6962 46.3198L18.4686 45.7509C18.3475 45.4352 18.2263 45.1085 18.1015 44.7855C16.3102 45.2003 13.9536 44.8259 12.5587 42.6968C12.3929 42.441 12.2433 42.175 12.1109 41.9003C10.9032 39.3308 11.7438 36.7613 13.4837 35.9354C14.322 35.5396 15.2807 35.483 16.1597 35.7775C16.1597 35.6821 16.1377 35.5756 16.1303 35.4582C16.1303 35.4117 16.1303 35.3603 16.1303 35.304V35.2783C16.0928 34.2637 16.1853 33.2484 16.4056 32.2573C16.8125 30.9715 17.6284 29.8539 18.7292 29.0748L18.81 29.0197C19.0303 28.8645 19.2595 28.7223 19.4964 28.5939C22.8992 26.7365 24.9731 23.5687 26.1918 20.8854C26.901 19.3488 27.4294 17.7352 27.7665 16.0767C27.8253 16.4438 27.2416 27.9442 42.1338 28.0103C42.1338 28.0103 40.2433 24.7066 40.2433 21.403C40.2433 21.403 43.1799 26.1749 46.3991 28.0653L46.5423 28.1644C47.0452 28.5095 47.515 28.8178 47.9482 29.1078C49.2109 29.9484 50.1763 30.5981 50.8334 31.347C51.5455 32.1619 51.8905 33.0942 51.8575 34.5258C51.8575 34.5772 51.8575 35.7115 51.8575 35.7628C52.7392 35.4679 53.7008 35.5258 54.5408 35.9244C54.6252 35.9647 54.7023 36.0051 54.7831 36.0528C56.0054 36.787 56.7029 38.4315 56.4202 40.2668C56.2767 41.1316 55.9514 41.956 55.4658 42.6858C54.0709 44.8149 51.7143 45.1893 49.923 44.7745C49.8056 45.0975 49.6844 45.4242 49.556 45.7399L49.3284 46.3088C48.1732 49.2603 46.4721 51.9676 44.3142 54.289V63.3704C44.3142 63.3263 44.3142 66.3437 44.3142 66.3069C45.8669 66.674 48.2015 67.2687 50.9215 68.0799C51.3876 68.2194 51.8648 68.3626 52.3494 68.5167C52.9685 68.71 53.6011 68.9156 54.2471 69.1334L54.7757 69.3133C55.8769 69.6803 57.0075 70.0951 58.1418 70.5393C59.0717 70.899 59.9992 71.2808 60.9242 71.6846C63.5341 66.5455 65.1492 60.5623 65.6961 54.2266L64.6426 72.1104C65.2954 70.7202 65.8641 69.2922 66.3459 67.834C66.3476 67.828 66.3476 67.8216 66.3459 67.8156C72.6081 48.9371 63.9636 27.8561 60.7664 20.6945C58.9347 16.5083 56.2142 12.7707 52.7935 9.74107C42.5522 0.795517 31.2868 3.07871 26.9553 4.4589C27.0397 4.46257 7.75741 3.93032 1.71173 41.4525Z" fill="#8A4E2E"/>
<path fill-rule="evenodd" clip-rule="evenodd" d="M27.185 3.64857C31.9034 2.21912 43.1262 0.251424 53.3552 9.19053C56.8627 12.2846 59.6493 16.11 61.5189 20.3973C71.6611 43.1154 70.1745 58.8297 67.1314 68.0176V68.069C66.639 69.5543 66.0592 71.0092 65.3952 72.4261C65.2462 72.7497 64.8865 72.9196 64.5419 72.8292C64.1974 72.7387 63.9675 72.414 63.9966 72.059L64.4041 65.1654C63.681 67.5192 62.7613 69.808 61.6547 72.0076C61.479 72.354 61.0639 72.5037 60.7077 72.349C59.8047 71.9563 58.8723 71.5745 57.9546 71.2148C56.9121 70.8073 55.7926 70.3999 54.6143 69.9998C54.4852 69.9531 54.3623 69.9126 54.2394 69.8721L54.2393 69.8721L54.2392 69.872L54.239 69.872L54.2389 69.8719L54.2388 69.8719L54.2387 69.8718L54.115 69.8309C53.4506 69.607 52.8229 69.4014 52.2063 69.2106C51.7217 69.0564 51.2482 68.9132 50.7857 68.7737C48.6897 68.146 46.5423 67.5697 44.2261 67.0118C43.8777 66.9284 43.6403 66.6057 43.6645 66.2483V63.4182V54.3001C43.6642 54.1116 43.7365 53.9302 43.8664 53.7935C45.9554 51.5355 47.6048 48.9076 48.7301 46.0446L48.9577 45.4793C49.0715 45.182 49.1889 44.8626 49.3027 44.5506C49.3476 44.4162 49.4305 44.2976 49.5413 44.2092C49.7165 44.0686 49.9464 44.0158 50.1653 44.0661C51.6777 44.4148 53.7223 44.1322 54.9373 42.2895C55.3651 41.6473 55.6516 40.9216 55.7779 40.1604C56.0055 38.6922 55.4879 37.2899 54.4895 36.6879L54.3096 36.5925C53.6366 36.275 52.8666 36.2315 52.1622 36.4714C51.9303 36.5441 51.6774 36.4974 51.4868 36.3466C51.2956 36.1964 51.1912 35.9614 51.2078 35.7189V35.1499V34.4818C51.2335 33.3402 50.9949 32.5657 50.3782 31.8536L50.3562 31.8316C49.7531 31.1407 48.7714 30.4862 47.6322 29.7268L47.6179 29.7172L47.2251 29.4566C47.1352 29.3963 47.0439 29.3355 46.9513 29.2738L46.9486 29.272L46.9454 29.2699L46.9444 29.2692L46.9438 29.2689C46.7058 29.1103 46.459 28.9459 46.2046 28.7702L46.0761 28.6821C44.3326 27.6359 42.6954 25.8409 41.5171 24.347C41.8466 25.4921 42.2957 26.5994 42.8569 27.6506C42.9881 27.8778 42.9881 28.1576 42.8569 28.3848C42.7253 28.6128 42.4815 28.7529 42.2182 28.7518C36.0477 28.7225 31.6539 26.8027 29.1651 23.0438C28.4662 21.9784 27.9409 20.8088 27.6087 19.5787C27.4215 20.0852 27.2013 20.6248 26.9443 21.1901C25.7807 23.7596 23.6407 27.2285 19.9332 29.24C19.7338 29.3524 19.5402 29.4749 19.3533 29.6071C19.3273 29.6296 19.299 29.6493 19.2688 29.6658H19.2468C18.2737 30.351 17.5517 31.336 17.1912 32.4703C16.9952 33.3828 16.9138 34.3163 16.9489 35.249V35.2784V35.4068C16.9524 35.4942 16.961 35.5812 16.9746 35.6675C17.0075 35.8797 16.9458 36.0956 16.8058 36.2585C16.6109 36.4788 16.3059 36.5662 16.0239 36.4824C15.3225 36.2414 14.5547 36.2836 13.8839 36.5998C12.5477 37.2349 11.8173 39.3896 12.8598 41.5884C12.9762 41.833 13.1086 42.0696 13.2562 42.2968C14.4639 44.1322 16.5085 44.4221 18.0281 44.0734C18.2454 44.0233 18.4736 44.0746 18.6485 44.2129C18.7673 44.3061 18.8534 44.4347 18.8944 44.58L18.973 44.7913L18.9731 44.7913L18.9731 44.7914L18.9731 44.7914L18.9731 44.7915L18.9732 44.7915L18.9732 44.7916L18.9732 44.7917L18.9732 44.7917L18.9732 44.7918L18.9733 44.7918C19.0609 45.0279 19.1491 45.2653 19.2395 45.494L19.4597 46.052C20.587 48.9158 22.2376 51.5448 24.3271 53.8045C24.4583 53.9406 24.5319 54.1221 24.5327 54.3111V65.2609C24.5346 65.2902 24.5346 65.3196 24.5327 65.3489V66.285V66.318C24.5163 66.6508 24.2909 66.9367 23.971 67.0301C21.9411 67.5183 19.9332 68.0506 18.0171 68.6122C16.67 69.0087 15.3558 69.4198 14.1078 69.8382C13.0727 70.187 12.155 70.51 11.2997 70.8293C10.9326 70.9615 10.5986 71.0936 10.2462 71.2331C8.70082 71.8315 7.1995 72.4738 5.77893 73.1456C5.65624 73.2021 5.52033 73.2237 5.38616 73.208C5.11133 73.2085 4.85919 73.0556 4.73277 72.8115C0.327899 64.3322 -0.967867 53.4485 0.984959 41.3351C2.73222 30.5101 6.7847 16.0071 16.1781 8.3169C19.9682 5.22043 23.4286 4.21053 25.3868 3.88325L23.9637 2.39968C23.8613 2.30763 23.8191 2.16605 23.8542 2.03297C23.8894 1.89988 23.9961 1.79765 24.1305 1.76818C24.265 1.73871 24.4047 1.78694 24.4923 1.89312L26.3014 3.76376C26.3142 3.7626 26.3268 3.76147 26.3393 3.76038C26.6611 2.9262 27.3865 1.50436 28.7173 0.935056C28.9038 0.854978 29.1199 0.941259 29.2 1.12777C29.2801 1.31428 29.1938 1.53039 29.0073 1.61047C28.0984 1.99969 27.5147 2.93216 27.185 3.64857ZM2.43813 41.5682L1.71541 41.4526L2.43488 41.5884L2.43813 41.5682ZM65.7169 67.5737L66.5 54.2671C66.5304 53.8616 66.2264 53.5083 65.821 53.4779C65.4155 53.4475 65.0621 53.7515 65.0317 54.1569C64.5703 59.901 63.0782 65.5151 60.6269 70.7303C59.9111 70.4256 59.1953 70.1319 58.4611 69.853C57.5802 69.5085 56.6435 69.1615 55.6721 68.8225C57.8916 65.6409 59.0699 61.424 59.6762 58.3416C60.1008 56.203 60.3707 54.0365 60.4837 51.8591C60.4898 51.6563 60.3304 51.4871 60.1277 51.481C59.9249 51.4749 59.7557 51.6343 59.7496 51.8371L59.7485 51.86C59.7227 52.4161 59.2512 62.6126 54.9467 68.5732L54.5298 68.4324C53.8801 68.2158 53.245 68.0066 52.621 67.812C52.2669 67.7002 51.9167 67.5942 51.5717 67.4898L51.3368 67.4186L51.1821 67.3716C49.2293 66.7879 47.2361 66.2483 45.107 65.7271V63.7632C45.1142 63.6336 45.1142 63.5037 45.107 63.3741V54.5828C47.227 52.2374 48.9069 49.5291 50.0662 46.5879C50.1014 46.4991 50.1366 46.4125 50.1721 46.3251L50.1726 46.3239L50.1728 46.3234C50.2149 46.22 50.2575 46.1153 50.3011 46.0043C50.3357 45.9086 50.3721 45.813 50.4091 45.716L50.4091 45.7159L50.4516 45.6042C52.6751 45.9555 54.8979 44.9699 56.1302 43.086C56.6741 42.2693 57.0371 41.3456 57.1947 40.377C57.5178 38.2847 56.7396 36.3392 55.2089 35.4216L55.2044 35.419C57.2842 33.6172 57.817 30.4044 57.8511 30.199L57.8518 30.1944C57.8833 29.9917 57.7444 29.8019 57.5417 29.7705C57.3389 29.739 57.1491 29.8779 57.1177 30.0806L57.1169 30.0851C57.093 30.2274 56.5369 33.5322 54.447 35.0724C53.973 34.9095 53.4734 34.8318 52.9715 34.8433C54.0759 32.8531 54.5788 30.3372 54.4233 27.4744C54.3418 25.9186 54.0794 24.3775 53.6415 22.8824C53.6084 22.7494 53.5041 22.6459 53.3708 22.614C53.2376 22.582 53.0976 22.627 53.0079 22.7305C52.9181 22.834 52.8935 22.9789 52.944 23.1063L52.9469 23.1156C53.0299 23.3892 54.8095 29.2551 52.6325 33.8886C52.5595 32.6696 52.1779 31.7189 51.4354 30.8699L51.4134 30.8442C50.6792 30.0146 49.622 29.3098 48.3997 28.4986L48.0069 28.2343C47.6876 28.0214 47.3609 27.8011 46.9938 27.5515L46.9498 27.5222L46.8763 27.4708L46.8139 27.4304C43.8762 25.6864 41.0882 21.2979 40.9159 21.0268L40.9077 21.014C40.7351 20.7354 40.3986 20.605 40.0833 20.6944C39.768 20.7839 39.5502 21.0716 39.5496 21.3994C39.5496 23.6789 40.3865 25.9254 40.9738 27.2248C40.9228 27.2223 40.8719 27.2196 40.8213 27.2168C38.0539 26.2153 36.1489 24.2649 35.1411 21.3957C34.6069 19.8284 34.3692 18.1753 34.4399 16.521C34.4572 16.3182 34.3068 16.1399 34.1041 16.1227C33.9013 16.1055 33.723 16.2558 33.7058 16.4586L33.7056 16.4635L33.7047 16.4809C33.6812 16.9265 33.3232 23.7147 38.6543 26.9914C29.8143 25.6047 28.6197 19.147 28.5484 16.1943C28.5548 16.1088 28.5548 16.0229 28.5484 15.9374C28.5359 15.865 28.5137 15.7946 28.4823 15.7281C28.3427 15.4413 28.0339 15.2775 27.7181 15.3227C27.4024 15.3679 27.1519 15.6119 27.0985 15.9263C26.771 17.5368 26.2573 19.1037 25.5678 20.5955C24.4959 22.9558 22.5211 26.131 19.1917 27.9663C18.9298 28.1085 18.6761 28.2654 18.4319 28.4362H18.4099L18.3475 28.4802L18.3034 28.5133C17.083 29.3832 16.1806 30.6285 15.7339 32.0592C15.6454 32.4389 15.5756 32.8223 15.5246 33.2082C13.4361 26.9388 15.9651 22.4725 15.9946 22.4235C16.077 22.3102 16.0877 22.1598 16.0222 22.036C15.9567 21.9121 15.8263 21.8363 15.6863 21.8407C15.5462 21.845 15.4209 21.9287 15.3632 22.0564C15.2265 22.2877 12.222 27.5585 15.3725 34.8816C15.3159 34.8772 15.2593 34.874 15.2027 34.872C12.2003 32.9568 11.4796 28.5296 11.4796 28.4802C11.4599 28.3491 11.3717 28.2384 11.2483 28.1899C11.1249 28.1413 10.985 28.1623 10.8813 28.2449C10.7775 28.3275 10.7257 28.4592 10.7454 28.5903C10.7757 28.7934 11.4092 32.7407 14.0904 34.9783C13.7912 35.0474 13.4991 35.149 13.2195 35.2821C10.9693 36.3539 10.1985 39.463 11.5052 42.2271C11.6503 42.5305 11.8158 42.8236 12.0008 43.1044C13.2337 44.9875 15.456 45.9729 17.6794 45.6225L17.8336 46.0336L18.0648 46.6063C19.2248 49.5491 20.906 52.2586 23.0276 54.6048V65.2499C23.0019 65.3857 23.0019 65.5435 23.0019 65.7271C22.1851 65.9289 21.3725 66.137 20.5676 66.351C19.0739 63.4295 18.5604 59.1068 18.5604 59.061C18.5371 58.8583 18.3538 58.7128 18.1511 58.7361C17.9484 58.7595 17.8029 58.9427 17.8263 59.1454C17.847 59.3326 18.3424 63.5221 19.8251 66.5506C19.053 66.7605 18.289 66.9756 17.5362 67.1954C16.1744 67.5955 14.8383 68.0139 13.5719 68.4397C13.2405 68.551 12.9208 68.66 12.6111 68.7673C9.19517 62.7843 8.25805 55.8185 8.08046 50.9561C8.08046 50.7533 7.91611 50.589 7.71339 50.589C7.51066 50.589 7.34631 50.7533 7.34631 50.9561C7.52649 55.8774 8.47514 62.924 11.9202 69.0096C11.5045 69.1572 11.106 69.3021 10.7197 69.4455L9.64785 69.8566C8.30437 70.3779 6.99025 70.9322 5.73486 71.5085C1.73377 63.4035 0.595843 53.0704 2.44956 41.57L2.43813 41.5682C4.13575 31.0501 8.04214 16.9678 17.004 9.55763C22.2861 5.19482 26.9192 5.21474 27.0164 5.21516L27.0177 5.21517C27.1011 5.21582 27.1841 5.20343 27.2637 5.17846C31.5033 3.82763 42.4421 1.62153 52.3934 10.3175C55.7307 13.2645 58.3819 16.9068 60.1607 20.9883C67.9338 38.3952 69.9057 54.9399 65.7169 67.5737ZM65.7169 67.5737L65.7145 67.6138V67.5808L65.7169 67.5737ZM7.68401 48.5995C7.48128 48.5995 7.31694 48.4351 7.31694 48.2324C7.31694 47.5533 7.35365 46.8963 7.39403 46.2869C7.40189 46.1558 7.47913 46.0388 7.59664 45.98C7.71414 45.9213 7.85407 45.9297 7.96371 46.0021C8.07335 46.0744 8.13604 46.1998 8.12817 46.331C8.09146 46.933 8.06577 47.5753 8.05476 48.2434C8.04877 48.4433 7.88394 48.6016 7.68401 48.5995Z" fill="#3B206C"/>
</svg>
