<svg width="82" height="100" viewBox="0 0 82 73" fill="none" xmlns="http://www.w3.org/2000/svg">
<path fill-rule="evenodd" clip-rule="evenodd" d="M78.6985 44.0042C79.9716 45.5809 80.3767 47.6877 79.7792 49.6242C79.3393 50.8578 78.4232 51.8635 77.2358 52.4162C76.0722 52.9926 74.3214 54.3543 75.2508 57.0743C75.3733 57.4345 75.485 57.7948 75.5858 58.155C75.9299 59.4002 75.7073 60.7338 74.9775 61.7997C74.2477 62.8656 73.0849 63.5554 71.7996 63.685C71.31 63.7348 70.8182 63.7588 70.3261 63.757C67.2063 63.757 67.5377 66.9993 67.5377 66.9993C67.6062 68.2494 68.2582 69.9786 66.5218 71.4305L65.9886 71.1963L65.2357 70.8757C64.5776 70.5947 63.9184 70.3269 63.2579 70.0723C61.9646 69.568 60.6821 69.1104 59.4356 68.6925C57.4722 68.0333 55.6133 67.4785 53.9705 67.0246C52.2521 66.549 50.7678 66.1779 49.6834 65.915V54.1346C51.8013 51.8563 53.4708 49.1993 54.6045 46.3026L54.8279 45.7442C54.9468 45.4344 55.0657 45.1138 55.1882 44.7968C56.9462 45.2038 59.259 44.8364 60.628 42.7469C62.4293 40.0054 61.6079 37.008 59.7202 36.111C58.8958 35.7198 57.952 35.663 57.0867 35.9525C57.0867 35.9525 56.2473 28.6681 50.0545 30.1235C43.8617 31.579 42.2334 27.8323 40.9941 26.0743C39.7548 24.3162 37.2654 23.2246 33.5044 24.5107C30.8168 25.433 28.223 23.4876 26.9621 22.3024C26.913 22.2562 26.838 22.2515 26.7834 22.2911C26.7289 22.3307 26.7101 22.4035 26.7387 22.4645C27.4016 23.9055 28.0357 26.5426 24.7573 28.2826C23.0425 29.1977 22.1383 31.107 21.8753 33.0812C21.8933 34.2809 21.9654 35.2788 22.0266 35.9633C21.1601 35.6736 20.2151 35.7304 19.3895 36.1218C17.5018 37.0188 16.6948 40.0162 18.4817 42.7577C19.8507 44.8472 22.1635 45.2147 23.9215 44.8076C24.0368 45.1246 24.1557 45.4452 24.2818 45.755L24.5052 46.3134C25.6389 49.2122 27.3083 51.8716 29.4263 54.1526V65.9294C28.3455 66.1888 26.872 66.5598 25.1644 67.0318C23.5145 67.4893 21.6447 68.0441 19.6705 68.7069C18.651 69.0672 17.6063 69.4275 16.5543 69.8165C16.3201 69.903 16.0824 69.9931 15.8338 70.0867L15.016 70.4109C13.9893 70.8216 12.9626 71.2612 11.9466 71.7331C11.0105 71.0562 10.3932 70.0248 10.239 68.8799C10.1891 68.3702 10.2355 67.8557 10.3759 67.3632C10.5705 66.5886 10.6641 64.6361 7.2453 63.3319C5.05854 62.4997 2.56197 59.3187 4.63344 55.5072C6.43472 52.1748 4.34884 50.269 3.79765 49.8439C3.56708 49.6674 3.33652 49.4837 3.12037 49.3036C-0.842448 45.8055 0.87237 41.2843 2.84657 39.8577C4.90724 38.3734 5.06575 36.4712 3.92734 33.9242C2.15128 29.8894 3.44099 27.2235 4.80637 25.7104C5.58664 24.8866 6.5869 24.3039 7.68841 24.0316C9.12944 23.6389 9.922 23.0481 10.167 21.7044C10.4264 20.2633 10.8875 18.8547 11.9214 17.8244C14.8035 14.9424 19.3427 15.4431 20.1533 15.5584C20.1834 15.5632 20.2141 15.5535 20.2361 15.5322C20.258 15.511 20.2687 15.4806 20.2649 15.4503C20.1929 14.6325 19.9407 10.0177 23.3199 6.80417C24.9498 5.301 27.1187 4.52132 29.3326 4.64264C30.6079 4.69668 32.2867 4.64264 33.6124 4.07703C35.7127 3.20522 38.2958 0.337579 42.59 0.784296C43.6837 0.918269 44.7388 1.27244 45.6918 1.82544C46.9605 2.49374 48.4116 2.73265 49.8275 2.50632C52.9906 2.08842 56.5679 1.60208 59.3095 7.30853C60.909 10.6373 65.1997 6.80417 68.7986 9.07378C74.2961 12.5467 71.1295 17.194 73.482 18.9844C75.8344 20.7749 80.9969 21.2108 77.6465 28.8446C77.3808 29.4371 77.2574 30.0836 77.2863 30.7324C77.3106 31.7498 77.8544 32.6839 78.7273 33.2073C80.8888 34.5223 81.0293 37.4908 79.3793 38.8237C77.7294 40.1567 77.0089 42.102 78.6985 44.0042Z" fill="black"/>
<path fill-rule="evenodd" clip-rule="evenodd" d="M78.6985 44.0042C79.9716 45.5809 80.3767 47.6877 79.7792 49.6242C79.3393 50.8578 78.4232 51.8635 77.2358 52.4162C76.0722 52.9926 74.3214 54.3543 75.2508 57.0743C75.3733 57.4345 75.485 57.7948 75.5858 58.155C75.9299 59.4002 75.7073 60.7338 74.9775 61.7997C74.2477 62.8656 73.0849 63.5554 71.7996 63.685C71.31 63.7348 70.8182 63.7588 70.3261 63.757C67.2063 63.757 67.5377 66.9993 67.5377 66.9993C67.6062 68.2494 68.2582 69.9786 66.5218 71.4305L65.9886 71.1963L65.2357 70.8757C64.5776 70.5947 63.9184 70.3269 63.2579 70.0723C61.9646 69.568 60.6821 69.1104 59.4356 68.6925C57.4722 68.0333 55.6133 67.4785 53.9705 67.0246C52.2521 66.549 50.7678 66.1779 49.6834 65.915V54.1346C51.8013 51.8563 53.4708 49.1993 54.6045 46.3026L54.8279 45.7442C54.9468 45.4344 55.0657 45.1138 55.1882 44.7968C56.9462 45.2038 59.259 44.8364 60.628 42.7469C62.4293 40.0054 61.6079 37.008 59.7202 36.111C58.8958 35.7198 57.952 35.663 57.0867 35.9525C57.0867 35.9525 56.2473 28.6681 50.0545 30.1235C43.8617 31.579 42.2334 27.8323 40.9941 26.0743C39.7548 24.3162 37.2654 23.2246 33.5044 24.5107C30.8168 25.433 28.223 23.4876 26.9621 22.3024C26.913 22.2562 26.838 22.2515 26.7834 22.2911C26.7289 22.3307 26.7101 22.4035 26.7387 22.4645C27.4016 23.9055 28.0357 26.5426 24.7573 28.2826C23.0425 29.1977 22.1383 31.107 21.8753 33.0812C21.8933 34.2809 21.9654 35.2788 22.0266 35.9633C21.1601 35.6736 20.2151 35.7304 19.3895 36.1218C17.5018 37.0188 16.6948 40.0162 18.4817 42.7577C19.8507 44.8472 22.1635 45.2147 23.9215 44.8076C24.0368 45.1246 24.1557 45.4452 24.2818 45.755L24.5052 46.3134C25.6389 49.2122 27.3083 51.8716 29.4263 54.1526V65.9294C28.3455 66.1888 26.872 66.5598 25.1644 67.0318C23.5145 67.4893 21.6447 68.0441 19.6705 68.7069C18.651 69.0672 17.6063 69.4275 16.5543 69.8165C16.3201 69.903 16.0824 69.9931 15.8338 70.0867L15.016 70.4109C13.9893 70.8216 12.9626 71.2612 11.9466 71.7331C11.0105 71.0562 10.3932 70.0248 10.239 68.8799C10.1891 68.3702 10.2355 67.8557 10.3759 67.3632C10.5705 66.5886 10.6641 64.6361 7.2453 63.3319C5.05854 62.4997 2.56197 59.3187 4.63344 55.5072C6.43472 52.1748 4.34884 50.269 3.79765 49.8439C3.56708 49.6674 3.33652 49.4837 3.12037 49.3036C-0.842448 45.8055 0.87237 41.2843 2.84657 39.8577C4.90724 38.3734 5.06575 36.4712 3.92734 33.9242C2.15128 29.8894 3.44099 27.2235 4.80637 25.7104C5.58664 24.8866 6.5869 24.3039 7.68841 24.0316C9.12944 23.6389 9.922 23.0481 10.167 21.7044C10.4264 20.2633 10.8875 18.8547 11.9214 17.8244C14.8035 14.9424 19.3427 15.4431 20.1533 15.5584C20.1834 15.5632 20.2141 15.5535 20.2361 15.5322C20.258 15.511 20.2687 15.4806 20.2649 15.4503C20.1929 14.6325 19.9407 10.0177 23.3199 6.80417C24.9498 5.301 27.1187 4.52132 29.3326 4.64264C30.6079 4.69668 32.2867 4.64264 33.6124 4.07703C35.7127 3.20522 38.2958 0.337579 42.59 0.784296C43.6837 0.918269 44.7388 1.27244 45.6918 1.82544C46.9605 2.49374 48.4116 2.73265 49.8275 2.50632C52.9906 2.08842 56.5679 1.60208 59.3095 7.30853C60.909 10.6373 65.1997 6.80417 68.7986 9.07378C74.2961 12.5467 71.1295 17.194 73.482 18.9844C75.8344 20.7749 80.9969 21.2108 77.6465 28.8446C77.3808 29.4371 77.2574 30.0836 77.2863 30.7324C77.3106 31.7498 77.8544 32.6839 78.7273 33.2073C80.8888 34.5223 81.0293 37.4908 79.3793 38.8237C77.7294 40.1567 77.0089 42.102 78.6985 44.0042Z" fill="white" fill-opacity="0.16"/>
<path fill-rule="evenodd" clip-rule="evenodd" d="M11.5179 72.3059C11.6416 72.3954 11.7904 72.4433 11.943 72.4428C12.0556 72.436 12.1651 72.404 12.2637 72.3491C13.2255 71.9024 14.2451 71.4629 15.3006 71.0378L16.1148 70.7172C16.3418 70.6271 16.5723 70.537 16.8065 70.4506C17.7648 70.0903 18.7771 69.7301 19.8975 69.3698C21.6087 68.7862 23.446 68.235 25.3554 67.7054C25.7473 67.6047 26.1412 67.5022 26.5361 67.3995L26.5364 67.3994L26.5378 67.3991L26.5397 67.3986L26.541 67.3982L26.5415 67.3981C27.5569 67.134 28.5791 66.8682 29.592 66.6247C29.9228 66.5448 30.1527 66.2444 30.1432 65.9042V54.1274C30.1434 53.9424 30.0724 53.7644 29.945 53.6302C27.8935 51.4124 26.2746 48.8307 25.1716 46.018L25.1245 45.9016L25.1245 45.9015C25.0658 45.7564 25.0088 45.6156 24.9519 45.4704C24.8402 45.1786 24.7249 44.8724 24.6168 44.5734C24.5085 44.2079 24.1343 43.99 23.763 44.0762C22.2716 44.4221 20.2649 44.1375 19.0797 42.3362C18.2983 41.2166 18.0359 39.8151 18.3592 38.4887C18.538 37.7414 19.0285 37.1066 19.7065 36.745C20.3691 36.4322 21.127 36.3882 21.8212 36.6225C22.0511 36.6946 22.3018 36.647 22.4892 36.4957C22.6767 36.3445 22.7762 36.1095 22.7543 35.8696C22.6715 34.9618 22.6066 34.0323 22.6066 33.1064C22.8768 31.1358 23.7846 29.6048 25.0996 28.9023C27.7367 27.5009 28.1509 25.5483 27.9528 24.0064C29.4731 25.0511 31.5554 25.9265 33.7421 25.1736C36.6854 24.1685 39.1171 24.6404 40.4105 26.4705C40.5329 26.6471 40.659 26.838 40.7923 27.0469L40.7927 27.0475C42.0572 28.9857 44.1721 32.2273 50.2238 30.808C51.6901 30.4622 52.9329 30.6387 53.9164 31.3268C55.9699 32.7678 56.377 35.9777 56.377 36.0101C56.4017 36.2231 56.5199 36.414 56.6996 36.531C56.8792 36.648 57.1017 36.6789 57.3065 36.6153C57.9994 36.3809 58.7564 36.4248 59.4176 36.7378C60.0956 37.0994 60.5861 37.7342 60.7649 38.4815C61.0882 39.8079 60.8258 41.2094 60.0444 42.329C58.8484 44.1375 56.8417 44.4293 55.3611 44.069C55.1462 44.0197 54.9205 44.0715 54.7486 44.2095C54.6399 44.2963 54.5585 44.4126 54.5145 44.5446C54.4028 44.8508 54.2875 45.1642 54.1758 45.4596L53.9525 46.0108C52.8491 48.823 51.2288 51.4037 49.1755 53.6194C49.0467 53.753 48.9745 53.9311 48.9737 54.1166V65.8969C48.9744 66.2291 49.2021 66.5178 49.5249 66.5958C51.0308 66.9813 52.425 67.3416 53.7904 67.7018C55.6457 68.2134 57.4686 68.7718 59.2194 69.359C60.5668 69.8093 61.8097 70.2596 63.0093 70.728C63.6974 70.9946 64.3387 71.2539 64.9727 71.5241L65.5347 71.7619L65.7184 71.8412L66.2408 72.0717C66.4922 72.1844 66.7859 72.1439 66.9973 71.9673C68.721 70.5243 68.4929 68.7758 68.3416 67.6157L68.3411 67.6118L68.331 67.5381L68.3224 67.4775C68.2952 67.2852 68.269 67.1002 68.269 66.9129C68.2654 66.8985 68.1646 65.7204 68.8058 65.0179C69.2104 64.6175 69.7696 64.4136 70.3369 64.4595C70.8542 64.4614 71.3713 64.4361 71.886 64.3839C73.3827 64.2325 74.7365 63.4286 75.5858 62.187C76.4351 60.9453 76.6935 59.3923 76.2919 57.9425C76.1695 57.5426 76.0542 57.1824 75.9317 56.8221C75.3553 55.1325 75.8993 53.8608 77.5528 53.0394C78.9165 52.4071 79.9655 51.2489 80.4601 49.8295C81.1504 47.6523 80.6936 45.2737 79.246 43.507C78.7263 42.996 78.4453 42.2901 78.4715 41.5617C78.5327 40.8087 79.0227 40.0342 79.8477 39.3677C80.8207 38.5463 81.335 37.3041 81.2274 36.0353C81.1266 34.6083 80.3413 33.3182 79.12 32.5733C78.4461 32.176 78.0272 31.4569 78.014 30.6747C77.9906 30.1397 78.093 29.6067 78.313 29.1184C81.2851 22.3636 77.9023 20.5803 75.4309 19.2798C74.9096 19.0251 74.4096 18.7287 73.9359 18.3936C73.309 17.9145 73.2334 17.1075 73.1505 15.7277C73.028 13.6274 72.8587 10.749 69.2129 8.44693C67.2955 7.23818 65.2128 7.55619 63.5388 7.81179L63.5317 7.81287C61.5575 8.11549 60.5776 8.20555 59.9904 6.98068C57.0291 0.816704 53.0086 1.34628 49.7663 1.77498C48.5035 1.98328 47.2073 1.77461 46.0737 1.18056C45.0354 0.578678 43.8858 0.193838 42.6945 0.0493586C39.3441 -0.296487 36.9088 1.24901 35.1291 2.38021C34.5671 2.76576 33.9743 3.10435 33.3566 3.39253C32.1318 3.9041 30.525 3.95453 29.3938 3.9041C26.9854 3.78248 24.6293 4.63407 22.8552 6.26738C19.8506 9.1098 19.5228 12.9862 19.5444 14.7406C17.8332 14.6181 14.0577 14.6902 11.4459 17.284C10.149 18.5701 9.70944 20.3318 9.48969 21.5458C9.31316 22.5149 8.81961 22.9472 7.52989 23.3075C6.28877 23.6106 5.16239 24.2677 4.28759 25.1988C2.76731 26.9028 1.35871 29.8281 3.28248 34.2052C4.33803 36.5829 4.08945 38.0492 2.42147 39.2488C1.29747 40.063 0.112225 41.8715 0.00775122 44.0762C-0.0643 45.5749 0.331982 47.7869 2.64122 49.8187C2.84336 49.9999 3.0556 50.1609 3.2584 50.3148L3.25865 50.3149L3.25874 50.315L3.27888 50.3303L3.35453 50.3915C3.88771 50.8166 5.50526 52.3549 3.99939 55.1397C2.78893 57.3481 3.07353 59.207 3.50944 60.3778C4.11382 62.0118 5.37451 63.3182 6.98591 63.9804C9.75628 65.0359 9.86075 66.4409 9.67702 67.1614C9.50987 67.7463 9.45727 68.3579 9.52211 68.9627C9.70438 70.3024 10.4252 71.5098 11.5179 72.3059ZM12.4402 18.3215C14.2811 16.4986 16.8605 16.16 18.5285 16.16C19.0439 16.1517 19.5592 16.1806 20.0704 16.2465C20.3202 16.2863 20.5744 16.2087 20.7595 16.0363C20.9446 15.8639 21.0399 15.6158 21.0179 15.3638C20.9422 14.5208 20.7369 10.2626 23.8495 7.31572C25.3395 5.94898 27.3172 5.23997 29.3362 5.34873C30.6115 5.40276 32.4452 5.34152 33.9222 4.72908C34.6173 4.40852 35.2848 4.03139 35.9181 3.60148C37.6941 2.47028 39.708 1.19137 42.5504 1.48678C43.5465 1.61174 44.5071 1.93645 45.3748 2.44146C46.7839 3.191 48.3995 3.45921 49.9753 3.2052L49.9806 3.20449C53.1705 2.78326 56.1731 2.38675 58.6934 7.60753C59.7742 9.85192 61.8889 9.52769 63.755 9.23949C65.3294 8.99451 66.9721 8.74594 68.4384 9.66819C71.4573 11.5775 71.5906 13.8291 71.7059 15.8142C71.7887 17.266 71.8716 18.6386 73.0532 19.5428C73.5902 19.9291 74.1591 20.2689 74.7537 20.5587L74.7556 20.5597C77.1542 21.8239 79.4183 23.0171 76.9944 28.542C76.6846 29.2379 76.5427 29.9968 76.5801 30.7576C76.6168 32.0165 77.2969 33.1686 78.3814 33.8089C79.2091 34.3017 79.7402 35.1712 79.8008 36.1326C79.8772 36.934 79.5619 37.7229 78.9542 38.2509C77.8014 39.1804 77.1421 40.2863 77.0485 41.45C76.9892 42.5698 77.3991 43.6637 78.1797 44.4689C79.2731 45.8585 79.6176 47.6951 79.1019 49.3864C78.7294 50.435 77.9503 51.2894 76.9404 51.7569C74.6348 52.8989 73.781 54.9163 74.5915 57.294C74.7068 57.6147 74.8149 57.9749 74.9158 58.3352C75.2024 59.3767 75.0152 60.4917 74.4041 61.3825C73.7931 62.2734 72.8204 62.8495 71.7455 62.9573C71.2812 63.0053 70.8145 63.0281 70.3477 63.0257C69.3694 62.9732 68.4173 63.3525 67.7431 64.0632C66.7218 65.1945 66.8296 66.8313 66.8415 67.0124L66.8423 67.0248L66.8424 67.0281C66.8568 67.2839 66.8893 67.5361 66.9253 67.8063C67.0514 68.7646 67.1739 69.7121 66.3957 70.5659L66.2948 70.5226L66.1147 70.447L65.5419 70.202C64.9007 69.9282 64.263 69.6652 63.5425 69.3914C62.3212 68.9159 61.0603 68.4584 59.6877 67.9972C57.9153 67.3992 56.0636 66.8408 54.1866 66.3184C52.9726 65.9834 51.7369 65.6628 50.4256 65.3385V54.412C52.5074 52.1071 54.1584 49.447 55.2998 46.5584L55.5268 45.9892L55.6781 45.5929C57.8604 45.9387 60.0424 44.9711 61.2513 43.1216C62.2645 41.6572 62.598 39.8273 62.1663 38.0996C61.6842 36.0786 59.7359 34.7625 57.6811 35.0698C57.4109 33.845 56.658 31.4853 54.7631 30.1523C53.4301 29.2121 51.7945 28.9635 49.9104 29.4066C44.8416 30.5811 43.2096 28.0881 42.0136 26.258L42.0062 26.2467C41.8648 26.031 41.7304 25.8261 41.6029 25.6419C39.2036 22.2447 34.9922 23.2318 33.2918 23.8118C30.9753 24.608 28.6517 22.868 27.4737 21.7584C27.1725 21.4747 26.7121 21.4453 26.3773 21.6885C26.0426 21.9316 25.9281 22.3785 26.1047 22.7527C27.0954 24.8746 26.5334 26.5174 24.4367 27.6306C22.7039 28.56 21.5186 30.5054 21.1944 32.9695C21.1926 33.0043 21.1926 33.0392 21.1944 33.074C21.2052 33.7333 21.234 34.3926 21.2773 35.0446C20.5343 34.9819 19.7881 35.1187 19.1157 35.4409C18.0598 35.9818 17.2871 36.95 16.9938 38.0996C16.5655 39.829 16.9 41.6591 17.9125 43.1252C19.1228 44.9726 21.3042 45.9385 23.4856 45.5929C23.5361 45.7298 23.5865 45.8631 23.6405 45.9964L23.8639 46.5584C25.0028 49.4477 26.6513 52.109 28.731 54.4156V65.3385C27.4881 65.6448 26.2344 65.9726 24.9987 66.3112C23.0713 66.848 21.2052 67.4172 19.4688 67.9972C18.3268 68.3971 17.3 68.7574 16.3309 69.1176C16.0896 69.2041 15.8446 69.2978 15.6104 69.3914L14.7854 69.7157C13.8596 70.0867 12.9553 70.4722 12.0943 70.8649C11.4915 70.316 11.1012 69.5724 10.992 68.7646C10.9517 68.3441 10.9921 67.9198 11.1108 67.5145C11.3018 66.7616 11.6044 64.1857 7.5407 62.633C6.26603 62.1088 5.2845 61.0531 4.85427 59.7437C4.42404 58.4344 4.58818 57.0023 5.30351 55.8242C7.40741 51.9442 4.81717 49.6674 4.27318 49.2459L4.19392 49.1847C3.99578 49.0334 3.80845 48.8893 3.63553 48.7379C1.74418 47.0844 1.41635 45.3263 1.47399 44.1447C1.53884 42.4299 2.45749 41.0105 3.27527 40.4196C6.22577 38.2941 5.45122 35.5166 4.61542 33.6108C2.99787 29.9398 4.13268 27.5369 5.36836 26.1679C6.05192 25.4487 6.92692 24.9399 7.89015 24.7017C9.17626 24.363 10.5272 23.747 10.8875 21.8196C11.1829 20.1949 11.6764 19.0817 12.4402 18.3215ZM18.5826 64.4991C17.611 64.5 16.736 63.9115 16.3706 63.0113C16.31 62.8308 16.4003 62.6343 16.5768 62.5628C16.7532 62.4912 16.9548 62.5694 17.0371 62.7411C17.3097 63.4028 17.9726 63.8182 18.687 63.775C18.8331 63.7676 18.9774 63.7398 19.1157 63.6922C19.238 63.6516 19.3726 63.6794 19.4689 63.765C19.5651 63.8506 19.6084 63.9811 19.5823 64.1073C19.5563 64.2334 19.465 64.3361 19.3427 64.3767C19.1456 64.4418 18.941 64.4817 18.7339 64.4955L18.5826 64.4991ZM14.9079 28.9959C14.9752 29.0904 15.0838 29.1467 15.1997 29.1472C15.2797 29.1498 15.3583 29.1258 15.4231 29.0788C15.5007 29.0225 15.5526 28.9377 15.5675 28.843C15.5824 28.7484 15.5589 28.6517 15.5024 28.5744C15.4171 28.4569 15.3481 28.3284 15.297 28.1925C15.0405 27.5229 15.2407 26.7643 15.7942 26.3084C15.8933 26.226 15.9409 26.097 15.9191 25.97C15.8973 25.843 15.8094 25.7373 15.6886 25.6926C15.5677 25.648 15.4321 25.6712 15.333 25.7536C14.5363 26.4036 14.2459 27.4912 14.6125 28.4519C14.6865 28.6455 14.7858 28.8285 14.9079 28.9959ZM60.9955 64.4992C60.8481 64.4983 60.7011 64.4851 60.556 64.4595C60.4273 64.4357 60.321 64.3451 60.2773 64.2217C60.2336 64.0983 60.259 63.961 60.344 63.8614C60.4289 63.7619 60.5606 63.7152 60.6893 63.739C61.3927 63.8704 62.1014 63.5384 62.4509 62.914C62.5221 62.7858 62.5766 62.649 62.613 62.507C62.6628 62.314 62.8596 62.1978 63.0525 62.2476C63.2455 62.2973 63.3617 62.4941 63.3119 62.6871C63.0409 63.7455 62.088 64.4864 60.9955 64.4884V64.4992ZM9.18708 46.6269C9.24337 46.6618 9.30819 46.6805 9.37441 46.6809C9.53493 46.6798 9.67536 46.5727 9.7188 46.4181C9.76223 46.2636 9.69819 46.099 9.56175 46.0144C9.43911 45.9375 9.32656 45.8455 9.22671 45.7406C8.73079 45.2218 8.62334 44.4435 8.96012 43.8097C9.02061 43.6958 9.01574 43.5582 8.94734 43.4489C8.87894 43.3396 8.75741 43.275 8.62851 43.2796C8.49962 43.2841 8.38296 43.3571 8.32246 43.471C7.84168 44.3783 7.99552 45.4914 8.70434 46.2342C8.84677 46.3863 9.00916 46.5184 9.18708 46.6269ZM70.5531 48.2156C70.4459 48.2158 70.3442 48.1682 70.2757 48.0859C70.2144 48.0124 70.1849 47.9175 70.1937 47.8222C70.2025 47.7269 70.2488 47.639 70.3225 47.5779C70.8734 47.1202 71.0706 46.3619 70.8124 45.6938C70.7599 45.5586 70.691 45.4303 70.6071 45.3119C70.5213 45.2089 70.4997 45.0668 70.5512 44.943C70.6026 44.8192 70.7186 44.7342 70.8521 44.7224C70.9857 44.7106 71.1147 44.774 71.1871 44.8868C71.3112 45.0549 71.4118 45.2392 71.4861 45.4344C71.8504 46.3952 71.5604 47.4814 70.7656 48.1327C70.7056 48.1826 70.631 48.2117 70.5531 48.2156ZM39.6742 7.59815C39.7359 7.71917 39.8603 7.79523 39.9962 7.79488C40.1102 7.79403 40.2171 7.73924 40.2844 7.64717C40.71 7.06977 41.4555 6.82659 42.1397 7.04194C42.2777 7.08829 42.4095 7.15119 42.5324 7.22927C42.7005 7.33671 42.9239 7.28752 43.0313 7.1194C43.1388 6.95127 43.0896 6.72788 42.9214 6.62044C41.8575 5.94496 40.4523 6.20774 39.7043 7.22207C39.6242 7.33173 39.6126 7.47713 39.6742 7.59815ZM67.5017 16.6067C67.3172 16.6078 67.1617 16.4694 67.1414 16.2861C67.1241 16.1418 67.089 16.0002 67.037 15.8646C66.7752 15.1974 66.1173 14.7713 65.4014 14.8054C65.2024 14.8154 65.0331 14.6621 65.0231 14.4632C65.0132 14.2642 65.1664 14.0949 65.3654 14.0849C66.3896 14.0353 67.3315 14.6439 67.707 15.598C67.7823 15.7927 67.8332 15.996 67.8584 16.2032C67.8794 16.4 67.7379 16.5769 67.5413 16.5995L67.5017 16.6067ZM45.7711 26.2544C46.2045 26.6288 46.7582 26.8347 47.331 26.8344C47.7571 26.8324 48.1749 26.7167 48.5414 26.4994C48.6667 26.4427 48.7489 26.3197 48.7531 26.1823C48.7574 26.0448 48.6831 25.9169 48.5615 25.8526C48.4399 25.7883 48.2924 25.7989 48.1812 25.8797C47.5646 26.248 46.7812 26.1782 46.2394 25.7068C46.1275 25.6139 46.0303 25.5046 45.9512 25.3826C45.8388 25.2184 45.6146 25.1765 45.4504 25.2889C45.2863 25.4013 45.2444 25.6255 45.3568 25.7897C45.4733 25.9626 45.6126 26.1189 45.7711 26.2544ZM50.3499 16.9922C50.151 16.9922 49.9897 16.8309 49.9897 16.6319C49.9849 16.545 49.9691 16.4591 49.9428 16.3761C49.7978 15.9821 49.4224 15.7203 49.0026 15.7205C48.8036 15.7205 48.6423 15.5592 48.6423 15.3602C48.6423 15.1613 48.8036 15 49.0026 15C49.7429 15.0028 50.3986 15.4786 50.6309 16.1816C50.6782 16.3249 50.7061 16.474 50.7138 16.6247C50.7141 16.8155 50.5656 16.9735 50.3751 16.985L50.3499 16.9922ZM63.6109 31.4781C63.6109 31.677 63.7722 31.8383 63.9712 31.8383L63.9892 31.7987C64.1797 31.7873 64.3282 31.6293 64.3278 31.4384C64.3137 31.2302 64.2738 31.0244 64.209 30.826C63.8891 29.8507 62.9802 29.1901 61.9538 29.1868C61.7548 29.1868 61.5935 29.3481 61.5935 29.5471C61.5935 29.7461 61.7548 29.9074 61.9538 29.9074C62.6704 29.9104 63.3047 30.372 63.5281 31.053C63.5753 31.1901 63.6032 31.3332 63.6109 31.4781ZM27.6646 13.3212H27.643C27.5474 13.3156 27.4579 13.2722 27.3944 13.2006C27.3308 13.1289 27.2984 13.0349 27.3043 12.9393C27.3148 12.7898 27.3438 12.6421 27.3908 12.4998C27.6209 11.7947 28.2775 11.3168 29.0192 11.3146C29.2181 11.3146 29.3794 11.4758 29.3794 11.6748C29.3794 11.8738 29.2181 12.0351 29.0192 12.0351C28.5886 12.0378 28.2075 12.3145 28.0717 12.7232C28.0443 12.8072 28.0274 12.8943 28.0213 12.9825C28.0099 13.1716 27.854 13.3196 27.6646 13.3212ZM59.6013 52.1064C59.6013 52.3053 59.7626 52.4666 59.9615 52.4666L59.9904 52.445C60.1406 52.441 60.2897 52.4167 60.4335 52.3729C61.1437 52.1615 61.6378 51.5178 61.6584 50.777C61.6584 50.578 61.4971 50.4168 61.2981 50.4168C61.0991 50.4168 60.9378 50.578 60.9378 50.777C60.9225 51.2087 60.632 51.5819 60.2173 51.7029C60.1342 51.728 60.0483 51.7426 59.9615 51.7461C59.7626 51.7461 59.6013 51.9074 59.6013 52.1064ZM19.2887 52.708C19.1384 52.7009 18.9896 52.6755 18.8455 52.6323C18.1364 52.4206 17.6419 51.7796 17.6171 51.04C17.6171 50.841 17.7784 50.6797 17.9773 50.6797C18.1763 50.6797 18.3376 50.841 18.3376 51.04C18.3514 51.473 18.6421 51.8481 19.0581 51.9694C19.1425 51.9944 19.2296 52.0089 19.3175 52.0127C19.5164 52.0127 19.6777 52.174 19.6777 52.3729C19.6777 52.5719 19.5164 52.7332 19.3175 52.7332L19.2887 52.708ZM73.6967 26.2369C73.7643 26.334 73.8752 26.3917 73.9935 26.3913C74.1452 26.3912 74.2806 26.2962 74.3321 26.1535C74.384 26.0133 74.4168 25.8666 74.4294 25.7176C74.4987 24.9797 74.088 24.2803 73.4099 23.9812C73.2921 23.929 73.1555 23.9437 73.0515 24.0196C72.9474 24.0956 72.8918 24.2212 72.9056 24.3493C72.9193 24.4773 73.0003 24.5883 73.1181 24.6404C73.5132 24.8151 73.7525 25.2226 73.7125 25.6528C73.7062 25.7392 73.6867 25.8243 73.6549 25.9049C73.6135 26.0157 73.6291 26.1398 73.6967 26.2369Z" fill="#372168"/>
</svg>
