<svg width="107" height="100" viewBox="0 0 107 71" fill="none" xmlns="http://www.w3.org/2000/svg">
<path fill-rule="evenodd" clip-rule="evenodd" d="M52.5425 17.7601C52.2392 18.3812 51.1975 19.4608 47.6952 20.5352C46.9257 20.7729 46.1517 20.9911 45.374 21.2104L45.3739 21.2104C40.7396 22.5168 35.9725 23.8607 31.2408 29.6057C27.2168 34.4942 26.2742 41.531 26.2356 41.8308L26.2611 41.8783C25.0697 41.568 23.8071 41.6874 22.695 42.2156C19.8892 43.5489 18.6898 48.0038 21.3457 52.0786C23.3804 55.1842 26.818 55.7303 29.431 55.1253C29.6023 55.5965 29.779 56.073 29.9664 56.5335L30.2984 57.3635C31.3071 59.8909 32.5701 62.3093 34.068 64.5813C31.5403 66.5041 28.6357 67.8725 25.5436 68.5972C15.9912 70.5837 8.54306 66.8838 6.76536 58.338C4.98767 49.7922 13.7744 36.7326 23.359 34.7461H23.4702L23.4607 34.7085C22.7234 31.8101 22.4202 28.8182 22.5611 25.8308C22.8021 20.6851 24.3603 16.2837 26.3468 13.5154C32.1725 5.45156 41.6071 0.761024 51.454 2.12642C51.9895 2.20138 52.3911 2.27635 52.557 2.30847H52.6588V2.36191C52.8557 2.32404 53.1791 2.26271 53.6172 2.20138C63.4641 0.835979 73.5092 5.45691 79.6776 13.2638C83.177 17.5979 85.8155 25.4984 82.4102 34.8442C91.8045 37.1085 100.313 49.9282 98.5576 58.3487C96.7799 66.9159 89.3371 70.5944 79.7793 68.6079C76.6698 67.8786 73.75 66.499 71.2121 64.5599C72.7198 62.2902 73.9901 59.8715 75.0031 57.342L75.3351 56.5121C75.4148 56.3043 75.4946 56.0932 75.5748 55.8808L75.575 55.8802L75.5752 55.8797C75.6727 55.6218 75.7708 55.362 75.8706 55.1039C78.4835 55.7089 81.9211 55.1628 83.9558 52.0571C86.6331 47.9824 85.4123 43.5274 82.6065 42.1942C81.3892 41.6154 79.9958 41.5289 78.7167 41.9522C78.7104 41.9615 78.704 41.9707 78.6977 41.9799V41.7979C78.778 40.6788 79.0083 34.7942 75.3029 30.2911C70.4333 24.3728 64.4094 22.621 59.3669 21.1546C58.693 20.9586 58.0366 20.7677 57.4029 20.5727C53.8528 19.5018 52.8301 18.3827 52.5463 17.7669C52.545 17.7646 52.5437 17.7624 52.5425 17.7601Z" fill="#F37C0E"/>
<path fill-rule="evenodd" clip-rule="evenodd" d="M52.5425 17.7601C52.2392 18.3812 51.1975 19.4608 47.6952 20.5352C46.9257 20.7729 46.1517 20.9911 45.374 21.2104L45.3739 21.2104C40.7396 22.5168 35.9725 23.8607 31.2408 29.6057C27.2168 34.4942 26.2742 41.531 26.2356 41.8308L26.2611 41.8783C25.0697 41.568 23.8071 41.6874 22.695 42.2156C19.8892 43.5489 18.6898 48.0038 21.3457 52.0786C23.3804 55.1842 26.818 55.7303 29.431 55.1253C29.6023 55.5965 29.779 56.073 29.9664 56.5335L30.2984 57.3635C31.3071 59.8909 32.5701 62.3093 34.068 64.5813C31.5403 66.5041 28.6357 67.8725 25.5436 68.5972C15.9912 70.5837 8.54306 66.8838 6.76536 58.338C4.98767 49.7922 13.7744 36.7326 23.359 34.7461H23.4702L23.4607 34.7085C22.7234 31.8101 22.4202 28.8182 22.5611 25.8308C22.8021 20.6851 24.3603 16.2837 26.3468 13.5154C32.1725 5.45156 41.6071 0.761024 51.454 2.12642C51.9895 2.20138 52.3911 2.27635 52.557 2.30847H52.6588V2.36191C52.8557 2.32404 53.1791 2.26271 53.6172 2.20138C63.4641 0.835979 73.5092 5.45691 79.6776 13.2638C83.177 17.5979 85.8155 25.4984 82.4102 34.8442C91.8045 37.1085 100.313 49.9282 98.5576 58.3487C96.7799 66.9159 89.3371 70.5944 79.7793 68.6079C76.6698 67.8786 73.75 66.499 71.2121 64.5599C72.7198 62.2902 73.9901 59.8715 75.0031 57.342L75.3351 56.5121C75.4148 56.3043 75.4946 56.0932 75.5748 55.8808L75.575 55.8802L75.5752 55.8797C75.6727 55.6218 75.7708 55.362 75.8706 55.1039C78.4835 55.7089 81.9211 55.1628 83.9558 52.0571C86.6331 47.9824 85.4123 43.5274 82.6065 42.1942C81.3892 41.6154 79.9958 41.5289 78.7167 41.9522C78.7104 41.9615 78.704 41.9707 78.6977 41.9799V41.7979C78.778 40.6788 79.0083 34.7942 75.3029 30.2911C70.4333 24.3728 64.4094 22.621 59.3669 21.1546C58.693 20.9586 58.0366 20.7677 57.4029 20.5727C53.8528 19.5018 52.8301 18.3827 52.5463 17.7669C52.545 17.7646 52.5437 17.7624 52.5425 17.7601Z" fill="white" fill-opacity="0.16"/>
<path fill-rule="evenodd" clip-rule="evenodd" d="M78.1874 42.8949C77.8535 42.7136 77.6268 42.3598 77.6268 41.9532V41.7979V41.7176C77.7018 40.6467 77.9106 35.1208 74.473 30.9443C69.8115 25.2874 64.107 23.6263 59.0702 22.1597L59.0628 22.1576C58.3827 21.9595 57.7241 21.7667 57.0869 21.5686C55.433 21.0597 54.1304 20.493 53.1884 19.8753C53.2211 21.9349 52.968 24.5961 51.6146 25.8361C51.5092 25.9327 51.3695 25.9831 51.2267 25.976C51.0838 25.969 50.9498 25.9051 50.8543 25.7987C50.6567 25.5796 50.6735 25.242 50.8918 25.0437C51.8128 24.1977 52.0858 22.2058 52.1073 20.3799C50.9186 22.5217 48.1289 25.2953 41.6231 26.8696C41.1682 26.9819 40.7225 27.1287 40.2899 27.3086C40.2256 27.3437 40.1542 27.3638 40.0811 27.3675C39.8268 27.367 39.608 27.1878 39.5573 26.9387C39.5067 26.6895 39.6383 26.4391 39.8722 26.3395C40.3582 26.1361 40.8596 25.9714 41.3715 25.8468C46.789 24.535 49.4264 22.3876 50.7093 20.5709C49.9498 20.934 49.0497 21.2758 48.0111 21.5954C47.24 21.831 46.4636 22.0505 45.6819 22.27L45.6803 22.2705C41.0064 23.5822 36.5787 24.8248 32.0707 30.3018C28.5582 34.5854 27.4926 40.6895 27.3266 41.8086C27.383 42.2413 27.1712 42.665 26.7912 42.8795C26.6287 42.9615 26.4484 43.0019 26.2665 42.9973C26.0563 42.9974 25.8559 42.9361 25.6863 42.827C24.823 42.6607 23.9261 42.7751 23.1287 43.1579C22.1219 43.6964 21.3932 44.6394 21.1261 45.7495C20.6456 47.721 21.0357 49.804 22.197 51.4681C23.9587 54.1453 26.9411 54.5684 29.1579 54.0597C29.4764 53.9849 29.8117 54.0598 30.0681 54.2631C30.2399 54.4006 30.3651 54.5875 30.4269 54.7986C30.5929 55.2484 30.7589 55.6982 30.9249 56.1372L31.2515 56.9511C32.2442 59.4179 33.4857 61.7772 34.9568 63.9923C35.2739 64.4685 35.1607 65.1098 34.6998 65.4487C32.0512 67.4709 29.0033 68.9072 25.7578 69.6627C24.1082 70.0137 22.4271 70.1949 20.7406 70.2035C12.9391 70.2035 7.25262 65.952 5.748 58.5735C4.84309 54.2364 6.41196 48.5981 9.94593 43.4845C11.9265 40.6187 14.3544 38.2003 16.9346 36.4564C12.6399 38.006 6.63958 41.1566 1.63575 47.4522C1.53688 47.5875 1.38033 47.6688 1.21274 47.6717C1.00794 47.6708 0.821611 47.5531 0.732762 47.3686C0.643913 47.184 0.66811 46.965 0.795093 46.8043C8.76156 36.7821 19.2035 34.4704 21.8542 34.0399C21.9633 34.0064 22.0723 33.9742 22.1812 33.9434C21.5957 31.2702 21.3647 28.5299 21.4956 25.7933C21.7258 20.7976 23.1823 16.1017 25.4793 12.9425C31.7387 4.28428 41.7463 -0.24563 51.6039 1.11977C51.9868 1.17337 52.3012 1.22697 52.5198 1.26687C52.7333 1.22744 53.0607 1.16824 53.4887 1.10904C63.3356 -0.256358 73.9536 4.24142 80.5289 12.5677C84.0226 16.9906 86.6158 24.7751 83.8781 33.747C83.9198 33.7449 83.962 33.7477 84.004 33.7554C84.1432 33.7554 98.3969 36.5558 105.909 46.799C106.028 46.9612 106.046 47.1761 105.955 47.3556C105.865 47.5351 105.682 47.6489 105.481 47.6504V47.6718C105.31 47.6722 105.148 47.5906 105.047 47.4522C100.061 40.6465 91.9729 37.2517 87.3485 35.7804C95.142 40.3876 101.211 50.8892 99.6017 58.5949C98.0756 65.9466 92.3892 70.2035 84.5877 70.2035C82.8996 70.1973 81.2166 70.0178 79.5651 69.668C76.307 68.9093 73.2478 67.4655 70.591 65.4326C70.13 65.0937 70.0169 64.4524 70.334 63.9762C71.8013 61.7671 73.0375 59.413 74.0232 56.9511L74.3552 56.1318C74.5212 55.6928 74.6926 55.2323 74.8585 54.7718C74.9262 54.5768 75.0467 54.4044 75.2066 54.2738C75.463 54.0705 75.7983 53.9955 76.1168 54.0704C78.3175 54.6058 81.3 54.1667 83.0777 51.4788C84.239 49.8147 84.6291 47.7317 84.1486 45.7602C83.8815 44.6501 83.1528 43.707 82.146 43.1686C81.1664 42.6986 80.0411 42.6332 79.0136 42.9865C78.7312 43.0702 78.4341 43.0325 78.1874 42.8949ZM81.402 34.4796L81.3964 34.4943C80.9989 35.5516 80.5465 36.5864 80.0413 37.5945L80.0411 37.5949C79.9144 35.7685 79.711 33.948 79.4313 32.1383C78.8438 27.7835 76.8664 23.7347 73.793 20.594C73.5875 20.3811 73.2482 20.3751 73.0353 20.5806C72.8224 20.7862 72.8164 21.1254 73.0219 21.3383C75.9396 24.3141 77.8178 28.153 78.3764 32.2829C78.4592 32.8173 78.5353 33.3526 78.6045 33.8888C78.0042 32.349 77.179 30.8976 76.149 29.5843C71.0622 23.4105 64.7546 21.574 59.6839 20.1015C59.0164 19.9087 58.3685 19.7159 57.7402 19.5232C55.0923 18.7053 54.0952 17.9447 53.7237 17.539C53.7355 17.4248 53.7376 17.3094 53.7297 17.194V3.22955L53.81 3.21873C62.9234 1.94972 72.7649 6.13693 78.8851 13.8795C82.2037 18.0866 84.618 25.7018 81.4108 34.4576L81.402 34.4796ZM51.3683 3.23988L51.3309 3.23474C50.2668 3.08091 49.1933 3.00218 48.1182 2.99914C40.1185 2.99914 32.3277 7.09533 27.2356 14.1686C25.2009 16.9851 23.8623 21.3704 23.6481 25.895C23.5147 28.7513 23.8005 31.6117 24.4961 34.385C24.5076 34.4171 24.5177 34.4499 24.5262 34.4836C24.7023 35.1803 24.903 35.87 25.1281 36.5513C25.0719 30.2132 26.9331 19.6986 38.3355 12.5783C38.4981 12.4769 38.7024 12.47 38.8715 12.5601C39.0406 12.6502 39.1488 12.8237 39.1553 13.0152C39.1618 13.2068 39.0657 13.3872 38.9031 13.4886C27.5051 20.6072 26.0188 31.247 26.2085 37.2249C26.9791 34.6968 28.284 31.5542 30.4323 28.9417C35.3852 22.9286 40.3327 21.5364 45.1143 20.1924C45.88 19.9783 46.6403 19.7641 47.4007 19.5285C49.9872 18.7552 50.9992 17.9987 51.3842 17.5936C51.3636 17.453 51.3581 17.3101 51.3683 17.1672V3.23988ZM22.2238 41.225C22.9159 40.8946 23.6626 40.6935 24.4269 40.6317C23.9403 39.5802 23.511 38.5034 23.1406 37.406C23.0032 37.0027 22.8738 36.5966 22.7526 36.1878C15.0138 44.4087 12.0175 56.0441 14.8492 66.9986C17.7111 68.1785 21.2789 68.4084 25.3294 67.5691C26.5194 67.2928 27.68 66.9129 28.7983 66.4352C21.4648 64.1594 20.7551 56.1258 20.7513 53.1324C20.6301 52.9736 20.5139 52.8096 20.4033 52.6407C18.9087 50.4571 18.425 47.7362 19.0754 45.1712C19.5062 43.4631 20.654 42.0244 22.2238 41.225ZM21.8566 54.3203C21.9418 55.7677 22.1974 57.2026 22.62 58.5949C23.8906 62.55 26.4666 64.953 30.327 65.7072C31.1162 65.2913 31.8793 64.8242 32.6115 64.3082C31.3008 62.2244 30.1756 60.0296 29.2489 57.7489L28.9169 56.9083C28.8366 56.7102 28.7616 56.512 28.6867 56.3139C26.1897 56.7064 23.694 55.9447 21.8566 54.3203ZM13.617 66.4079C10.2797 51.6488 17.0876 41.1461 20.8405 36.695C17.5095 38.1734 14.2316 41.0168 11.6808 44.7054C8.46809 49.3424 7.03309 54.3435 7.81484 58.1398C8.60844 61.957 10.6475 64.7692 13.617 66.4079ZM75.699 66.0859C77.0696 66.7436 78.5112 67.2507 79.9989 67.5959C84.5464 68.5387 88.486 68.1323 91.5016 66.5456C94.1123 55.7988 91.1478 44.4548 83.6276 36.3611C83.4376 36.2912 83.2471 36.2258 83.0563 36.165C82.4228 37.7159 81.6747 39.2176 80.8181 40.6574C81.6007 40.7126 82.3657 40.9161 83.0723 41.2571C84.6421 42.0566 85.7899 43.4953 86.2208 45.2034C86.8618 47.773 86.3664 50.4942 84.8607 52.6729C84.7215 52.8851 84.5737 53.0896 84.4179 53.2859C84.2863 56.7825 83.1272 64.2454 75.699 66.0859ZM74.1892 65.2835C73.6748 64.9824 73.1728 64.6589 72.6846 64.3136V64.2814C73.9827 62.2144 75.0972 60.0375 76.0151 57.7757L76.3524 56.9297L76.5773 56.3461C79.0182 56.7287 81.4575 56.0093 83.2824 54.4597C83.1664 55.669 82.9297 56.866 82.5743 58.0327C81.2366 62.2497 78.42 64.6716 74.1892 65.2835ZM97.5134 58.1666C96.8147 61.5164 95.1578 64.0922 92.7558 65.7802C95.5908 52.1477 89.7933 42.2344 86.0245 37.4852C93.1444 41.5444 98.9272 51.2907 97.5134 58.1666ZM70.2965 18.918C70.3892 18.9876 70.5019 19.0251 70.6178 19.0251C70.7863 19.0251 70.945 18.9458 71.0461 18.811C71.1313 18.6973 71.1679 18.5545 71.1478 18.414C71.1278 18.2734 71.0526 18.1465 70.939 18.0613C69.3499 16.8394 67.6027 15.8379 65.7452 15.0842C65.4767 15.0096 65.1958 15.1533 65.0994 15.4147C65.0029 15.6762 65.1231 15.9679 65.3757 16.0855C67.1311 16.8138 68.7851 17.7658 70.2965 18.918Z" fill="#372168"/>
</svg>
