<svg width="69" height="73" viewBox="0 0 69 73" fill="none" xmlns="http://www.w3.org/2000/svg">
<path fill-rule="evenodd" clip-rule="evenodd" d="M27.1607 10.0392C25.3203 10.3552 23.5171 10.8866 21.7891 11.6267C22.8151 6.0146 28.0939 1.74414 34.4426 1.74414C40.7843 1.74414 46.0322 5.97886 47.0839 11.5642C47.0953 11.569 47.1067 11.5737 47.1181 11.5785C47.5565 11.7626 48.0169 11.9687 48.4773 12.1923L49.1525 12.5343C52.8003 14.4591 56.6543 17.6203 60.1136 22.7589C62.0358 25.6592 63.6438 28.756 64.9102 31.9969C64.9275 32.0403 64.9448 32.0837 64.9622 32.1273C65.1608 32.6251 65.3638 33.1341 65.5372 33.6542C72.7233 53.7789 63.7001 62.6267 47.653 65.367C47.2237 65.4377 46.7977 65.2238 46.598 64.8372C46.3982 64.4507 46.4701 63.9795 46.7761 63.6702L46.8199 63.6264C49.3975 60.8536 51.4294 57.6199 52.8091 54.0946L53.0809 53.415C53.1463 53.2447 53.2116 53.0718 53.2773 52.8978C53.3572 52.6865 53.4376 52.4735 53.5194 52.2619C55.659 52.7573 58.4738 52.3101 60.1399 49.7671C62.3321 46.4305 61.3325 42.7827 59.035 41.6909C58.2877 41.3299 57.4495 41.2001 56.628 41.3183C56.165 41.3873 55.7157 41.1272 55.545 40.6913C52.1032 31.576 43.5667 26.1393 38.4851 23.5919C37.6652 23.1841 36.9374 22.8509 36.3367 22.5922C35.736 22.3336 35.2143 22.1231 34.8986 22.0047C34.6456 21.9078 34.3641 21.9173 34.1182 22.031L34.0634 22.0565C33.5824 22.2801 33.11 22.4997 32.6538 22.7194C31.5547 23.2514 30.5141 23.7775 29.532 24.2978C15.8218 31.5979 13.5551 38.0387 13.2131 40.4589C13.134 40.9748 12.662 41.3365 12.1433 41.2788H11.775C11.1468 41.2793 10.5266 41.4201 9.95982 41.6909C7.66237 42.7827 6.68025 46.4305 8.85494 49.7671C10.521 52.3101 13.3359 52.7573 15.4755 52.2619C15.6158 52.6477 15.7605 53.0379 15.9139 53.415L16.1857 54.0946C17.567 57.6215 19.6003 60.8566 22.1793 63.6308H22.2056C22.5116 63.9401 22.5835 64.4113 22.3837 64.7978C22.184 65.1843 21.758 65.3982 21.3287 65.3275C5.3123 62.5829 -3.7153 53.7043 3.49275 33.6411C3.69443 33.0755 3.90489 32.523 4.11973 31.9837C5.33507 28.8783 6.86132 25.9036 8.67518 23.1052C12.0994 17.8965 15.9402 14.6651 19.5837 12.679C19.8731 12.5211 20.1581 12.3721 20.4606 12.2405C20.9166 12.0155 21.3682 11.8094 21.8154 11.6223C22.4599 11.3505 23.0957 11.1094 23.7182 10.9077C24.8449 10.5317 25.9956 10.2418 27.1607 10.0392Z" fill="#8B8B8B"/>
<path fill-rule="evenodd" clip-rule="evenodd" d="M27.1607 10.0392C25.3203 10.3552 23.5171 10.8866 21.7891 11.6267C22.8151 6.0146 28.0939 1.74414 34.4426 1.74414C40.7843 1.74414 46.0322 5.97886 47.0839 11.5642C47.0953 11.569 47.1067 11.5737 47.1181 11.5785C47.5565 11.7626 48.0169 11.9687 48.4773 12.1923L49.1525 12.5343C52.8003 14.4591 56.6543 17.6203 60.1136 22.7589C62.0358 25.6592 63.6438 28.756 64.9102 31.9969C64.9275 32.0403 64.9448 32.0837 64.9622 32.1273C65.1608 32.6251 65.3638 33.1341 65.5372 33.6542C72.7233 53.7789 63.7001 62.6267 47.653 65.367C47.2237 65.4377 46.7977 65.2238 46.598 64.8372C46.3982 64.4507 46.4701 63.9795 46.7761 63.6702L46.8199 63.6264C49.3975 60.8536 51.4294 57.6199 52.8091 54.0946L53.0809 53.415C53.1463 53.2447 53.2116 53.0718 53.2773 52.8978C53.3572 52.6865 53.4376 52.4735 53.5194 52.2619C55.659 52.7573 58.4738 52.3101 60.1399 49.7671C62.3321 46.4305 61.3325 42.7827 59.035 41.6909C58.2877 41.3299 57.4495 41.2001 56.628 41.3183C56.165 41.3873 55.7157 41.1272 55.545 40.6913C52.1032 31.576 43.5667 26.1393 38.4851 23.5919C37.6652 23.1841 36.9374 22.8509 36.3367 22.5922C35.736 22.3336 35.2143 22.1231 34.8986 22.0047C34.6456 21.9078 34.3641 21.9173 34.1182 22.031L34.0634 22.0565C33.5824 22.2801 33.11 22.4997 32.6538 22.7194C31.5547 23.2514 30.5141 23.7775 29.532 24.2978C15.8218 31.5979 13.5551 38.0387 13.2131 40.4589C13.134 40.9748 12.662 41.3365 12.1433 41.2788H11.775C11.1468 41.2793 10.5266 41.4201 9.95982 41.6909C7.66237 42.7827 6.68025 46.4305 8.85494 49.7671C10.521 52.3101 13.3359 52.7573 15.4755 52.2619C15.6158 52.6477 15.7605 53.0379 15.9139 53.415L16.1857 54.0946C17.567 57.6215 19.6003 60.8566 22.1793 63.6308H22.2056C22.5116 63.9401 22.5835 64.4113 22.3837 64.7978C22.184 65.1843 21.758 65.3982 21.3287 65.3275C5.3123 62.5829 -3.7153 53.7043 3.49275 33.6411C3.69443 33.0755 3.90489 32.523 4.11973 31.9837C5.33507 28.8783 6.86132 25.9036 8.67518 23.1052C12.0994 17.8965 15.9402 14.6651 19.5837 12.679C19.8731 12.5211 20.1581 12.3721 20.4606 12.2405C20.9166 12.0155 21.3682 11.8094 21.8154 11.6223C22.4599 11.3505 23.0957 11.1094 23.7182 10.9077C24.8449 10.5317 25.9956 10.2418 27.1607 10.0392Z" fill="white" fill-opacity="0.09"/>
<path fill-rule="evenodd" clip-rule="evenodd" d="M45.7752 10.1568C45.6614 10.1187 45.5478 10.0811 45.4345 10.0439C44.37 9.69617 43.2854 9.42198 42.1881 9.22229C40.9629 6.84324 38.7101 4.81686 35.6527 3.34001C35.1173 3.07943 34.5716 2.84181 34.0169 2.62771C34.1568 2.62329 34.2973 2.62106 34.4382 2.62106H34.4426C39.6619 2.62106 44.1795 5.68912 45.7752 10.1568ZM31.9121 2.86514C29.8371 3.27251 27.9542 4.17304 26.4255 5.43968C27.8557 5.72169 30.4 6.53847 33.3205 8.90285C34.3272 8.94476 35.3355 8.93196 36.3411 8.86446C37.9258 8.7728 39.5121 8.83436 41.0783 9.0463C38.7409 5.19929 33.9795 3.46041 31.9121 2.86514ZM25.5943 6.19968C26.4953 6.30726 28.8667 6.77795 31.7508 8.82914C28.9202 8.76317 26.0972 9.18676 23.4069 10.0833C23.2958 10.1193 23.1834 10.1569 23.0699 10.1959C23.6032 8.68543 24.4732 7.33106 25.5943 6.19968ZM47.8328 10.9585C46.4989 5.08415 40.9615 0.867249 34.4251 0.867249C27.8865 0.867249 22.3185 5.10769 21.0017 11.0064C20.6926 11.1421 20.382 11.2903 20.0835 11.4425L20.0221 11.4688L19.996 11.4825L19.9957 11.4827L19.9953 11.4829L19.9948 11.4831C19.7184 11.6277 19.4339 11.7765 19.1453 11.9336C14.8222 14.288 11.0472 17.8964 7.92105 22.6492C6.08961 25.4843 4.54593 28.4953 3.31298 31.6373C3.07622 32.2248 2.86577 32.7773 2.67285 33.321C-0.668101 42.6467 -0.729484 50.1617 2.48871 55.6817C4.54688 59.2153 7.95443 61.9521 12.6609 63.8662C12.2961 63.8802 11.9351 63.9952 11.6215 64.2094C11.2541 64.5129 11.1112 65.0113 11.262 65.4634C11.5207 66.3534 12.836 66.7919 14.1514 66.4236C14.2242 66.4042 14.2959 66.3808 14.3662 66.3534C14.4652 66.7844 14.4992 67.2277 14.467 67.6688C14.353 69.5409 13.0114 69.5979 10.8455 69.4664L10.8262 69.4653C9.44788 69.3868 8.15057 69.3128 7.53959 70.2337C7.26617 70.5964 7.19061 71.0711 7.33791 71.5008C7.65798 72.404 8.91193 72.7986 9.05223 72.8424C9.09439 72.8486 9.13722 72.8486 9.17938 72.8424L9.19254 72.9476C9.43468 72.984 9.66043 72.8171 9.69675 72.575C9.73307 72.3328 9.56622 72.1071 9.32407 72.0708C8.94701 71.9568 8.30688 71.6367 8.17534 71.2728C8.12568 71.1046 8.16536 70.9227 8.28057 70.7905C8.61379 70.2819 9.72744 70.3477 10.806 70.4134L10.8375 70.4151C12.6718 70.5115 15.1652 70.6425 15.3527 67.7828C15.4046 67.1796 15.3466 66.572 15.1817 65.9895C15.4996 65.7745 15.8369 65.4768 16.1455 65.0652C17.7131 65.5174 19.3931 65.8974 21.184 66.2044C21.9812 66.3525 22.7812 65.9605 23.1526 65.2398C23.5402 64.519 23.4122 63.6297 22.837 63.0476L22.7887 62.9993C20.3083 60.3142 18.3475 57.1923 17.0056 53.792L16.9485 53.6506C16.8769 53.4739 16.8076 53.3024 16.7382 53.1255L16.6938 53.0083L16.6938 53.0081L16.6937 53.008L16.6937 53.0079L16.6936 53.0077L16.6936 53.0076C16.5718 52.6857 16.4476 52.3576 16.3304 52.0294C16.2776 51.8576 16.1755 51.7052 16.0367 51.591C15.8267 51.4245 15.5522 51.3631 15.2913 51.4244C13.4762 51.8409 11.034 51.4989 9.59153 49.3067C8.6362 47.9461 8.30904 46.2417 8.69271 44.6241C8.91082 43.7135 9.50968 42.9406 10.3369 42.502C10.7857 42.2863 11.2771 42.174 11.775 42.1732H12.0731C13.0536 42.2679 13.9364 41.5779 14.0812 40.6035C14.4057 38.3061 16.6023 32.1985 29.9442 25.0913C30.9263 24.5696 31.9698 24.0434 33.0352 23.5305L34.4908 22.8465C34.5231 22.8331 34.5594 22.8331 34.5917 22.8465C34.7199 22.9039 34.8773 22.9655 35.0687 23.0403L35.0687 23.0403L35.069 23.0405C35.3161 23.1371 35.6198 23.2559 35.9903 23.4165C36.648 23.7015 37.3407 24.0215 38.051 24.3767L38.0993 24.403C42.8652 26.775 51.3622 32.0845 54.7295 41.0113C55.0483 41.828 55.887 42.3182 56.7551 42.1951C58.3952 41.9242 59.9588 42.9897 60.3065 44.6153C60.6992 46.2283 60.3799 47.9323 59.4296 49.2935C57.9784 51.4945 55.5362 51.854 53.7298 51.4156C53.4697 51.357 53.197 51.4199 52.9889 51.5866C52.8559 51.6897 52.7567 51.8302 52.7039 51.99C52.5899 52.2622 52.4851 52.5345 52.3828 52.8002L52.3335 52.928C52.3108 52.987 52.2881 53.0455 52.2654 53.1036C52.1957 53.292 52.1259 53.4637 52.0539 53.6409L51.998 53.7788C50.6543 57.1996 48.6824 60.3388 46.1842 63.0344L46.1447 63.0695C45.5738 63.6544 45.4494 64.5425 45.8378 65.2617C46.1534 65.8737 46.7846 66.2579 47.4732 66.257C47.5798 66.2652 47.6868 66.2652 47.7933 66.257C49.6371 65.9381 51.3631 65.543 52.97 65.0723C53.248 65.4089 53.5441 65.6608 53.8263 65.8493C53.6597 66.4315 53.6003 67.0391 53.6509 67.6425C53.8395 70.5319 56.3605 70.3828 58.202 70.2732L58.2747 70.2692C59.3701 70.2091 60.397 70.1527 60.7231 70.6503C60.8406 70.7813 60.8806 70.9645 60.8283 71.1326C60.7011 71.4921 60.0566 71.8165 59.6839 71.9305C59.4418 71.9656 59.274 72.1904 59.3091 72.4325C59.3442 72.6747 59.5689 72.8425 59.8111 72.8074C59.866 72.7827 59.9153 72.7468 59.9558 72.7022C60.0961 72.6759 61.35 72.2374 61.6745 71.3605C61.8194 70.9307 61.744 70.4571 61.4728 70.0934C60.8618 69.1726 59.5645 69.2465 58.1862 69.3251L58.1669 69.3262C55.9966 69.4577 54.6681 69.4007 54.5454 67.5285C54.5097 67.0877 54.5422 66.6441 54.6418 66.2132C54.7121 66.2406 54.7838 66.264 54.8567 66.2833C56.1632 66.6385 57.4873 66.2 57.746 65.3232C57.9008 64.8711 57.7573 64.3705 57.3865 64.0692C57.1675 63.919 56.9251 63.8176 56.6744 63.7655C61.2093 61.8568 64.5028 59.1729 66.5105 55.7343C69.7331 50.2187 69.6673 42.6949 66.3176 33.3736C66.1203 32.7992 65.9011 32.238 65.6819 31.6899C64.3903 28.3928 62.753 25.2418 60.7976 22.2897C57.6408 17.5895 53.8438 14.0513 49.5164 11.767L48.8193 11.4162C48.4586 11.2449 48.1392 11.0942 47.8328 10.9585ZM54.5166 64.5835C54.3272 64.6479 54.1359 64.7113 53.9428 64.7734C54.0284 64.8554 54.1168 64.9304 54.2078 64.9987C54.2977 64.8502 54.4012 64.7112 54.5166 64.5835ZM53.0025 63.2371C58.7667 61.4705 62.7962 58.666 65.0198 54.8705C67.9662 49.8196 67.8566 42.7914 64.691 33.983C64.4893 33.4305 64.2876 32.8869 64.0772 32.3563C62.829 29.1748 61.2507 26.1329 59.3683 23.2805C56.3693 18.8347 52.7916 15.4893 48.7228 13.3453C48.5799 13.2695 48.4331 13.1956 48.2876 13.1224L48.2875 13.1223L48.2874 13.1223L48.2874 13.1223L48.2873 13.1222L48.2873 13.1222L48.2872 13.1222L48.2872 13.1222L48.2871 13.1221L48.2867 13.1219C48.2138 13.0852 48.1412 13.0487 48.0695 13.0121L47.9798 12.9689C47.5415 12.7576 47.1401 12.5642 46.7542 12.4246C46.136 12.1615 45.5178 11.9335 44.9083 11.7362C42.1886 10.8448 39.3257 10.4715 36.4683 10.6357C35.9433 10.6706 35.4177 10.6915 34.8919 10.6985L34.9593 21.0836C35.0514 21.1031 35.1425 21.1295 35.2318 21.1628C35.5387 21.2768 36.0517 21.4785 36.7094 21.7635C37.2309 21.9895 37.8241 22.2623 38.4277 22.5536C40.2038 23.1391 41.9497 23.8148 43.6587 24.5783C48.1923 26.5952 54.3261 30.1027 57.7986 35.3553C57.8875 35.4903 57.8949 35.6632 57.8179 35.8054C57.7409 35.9475 57.592 36.0357 57.4303 36.0349C57.2837 36.0341 57.1471 35.9601 57.0664 35.8376C53.952 31.1204 48.5752 27.8042 43.8385 25.6344C48.4892 28.7206 53.8208 33.5262 56.3956 40.3492C56.4241 40.403 56.4858 40.4302 56.5447 40.415C59.0493 40.0351 61.4281 41.635 62.0209 44.0979C62.553 46.2088 62.147 48.4467 60.9072 50.2362C59.433 52.4836 56.7798 53.6601 54.1245 53.2439L53.9403 53.7218L53.762 54.1719C53.6604 54.7868 53.5254 55.3963 53.3572 55.9974C52.4397 59.3576 52.469 61.7091 53.0025 63.2371ZM52.0135 57.9474C50.7753 60.215 49.2586 62.325 47.4952 64.227L47.3987 64.3059C47.3651 64.3499 47.3651 64.411 47.3987 64.455C47.4172 64.5044 47.4708 64.5312 47.5215 64.5163C49.1528 64.2374 50.6846 63.8973 52.1159 63.4969C51.696 62.2525 51.5475 60.4776 52.0135 57.9474ZM14.8046 65.1389C14.6445 64.8762 14.4422 64.6433 14.2069 64.4491C14.5326 64.5627 14.8637 64.6728 15.2004 64.7794C15.0752 64.9151 14.9428 65.0348 14.8046 65.1389ZM21.469 64.49C19.8589 64.2135 18.3457 63.8774 16.9305 63.4822C17.327 62.1962 17.4421 60.372 16.9331 57.7861C18.19 60.1219 19.7412 62.2929 21.5523 64.2445L21.5918 64.284C21.6247 64.3266 21.6247 64.386 21.5918 64.4286C21.5733 64.4781 21.5197 64.5049 21.469 64.49ZM15.6508 56.1376C15.4546 55.4281 15.3025 54.7076 15.1951 53.9804L15.0984 53.7393L14.9143 53.2527C12.2587 53.6701 9.60495 52.4933 8.13151 50.2449C6.89292 48.4551 6.48552 46.2183 7.01347 44.1067C7.36887 42.708 8.30999 41.5304 9.59592 40.8753C10.2807 40.5491 11.0296 40.3798 11.7881 40.3799H12.2266C12.2924 40.3799 12.3581 40.3799 12.3625 40.3185C13.4499 32.6194 24.4592 25.9945 29.1374 23.4997C30.1415 22.9692 31.2025 22.4299 32.2943 21.9082C32.5219 21.7965 32.7537 21.6891 32.9887 21.5801L32.9893 21.5799L32.9895 21.5798L32.9898 21.5797L32.99 21.5796L32.9902 21.5795C33.2345 21.4662 33.4823 21.3514 33.7323 21.2286C33.8456 21.1747 33.9629 21.1324 34.0825 21.1018L34.015 10.6972C33.5171 10.6892 33.0194 10.6687 32.5222 10.6357C29.6285 10.4654 26.729 10.8524 23.9813 11.7757C23.4026 11.9599 22.7887 12.1922 22.1442 12.4641C21.7058 12.6438 21.2673 12.8455 20.8289 13.0604H20.785C20.522 13.1919 20.2589 13.3278 19.9958 13.4725C15.9315 15.691 12.3669 19.1021 9.39862 23.6137C7.61963 26.3635 6.12139 29.2851 4.92647 32.3344C4.69848 32.9044 4.48803 33.4349 4.31265 33.9611C1.15145 42.73 1.04623 49.7714 3.99258 54.8223C6.22094 58.6453 10.2684 61.4594 16.0588 63.2276C16.5437 61.6975 16.542 59.3913 15.6508 56.1376ZM20.8596 16.5592C20.6989 16.5597 20.5509 16.4722 20.4738 16.3313C20.4177 16.229 20.4046 16.1086 20.4375 15.9967C20.4704 15.8848 20.5466 15.7906 20.6491 15.735C21.3813 15.336 22.1442 14.9721 22.9115 14.6476C23.9941 14.1886 25.1076 13.8063 26.2437 13.5033C26.3985 13.452 26.5689 13.491 26.6862 13.6043C26.8034 13.7176 26.8481 13.8866 26.8021 14.0431C26.7562 14.1995 26.6272 14.3176 26.4673 14.3495C25.3721 14.6439 24.2983 15.0131 23.2535 15.4544C22.5053 15.7675 21.7736 16.1187 21.0613 16.5066C20.9993 16.5401 20.9301 16.5582 20.8596 16.5592ZM12.2003 64.8496C12.3431 64.7519 12.5142 64.7041 12.687 64.7136H12.6742C12.9106 64.714 13.1436 64.7712 13.3534 64.8803C13.6347 65.026 13.8723 65.2439 14.0418 65.5116L13.9322 65.5467C12.972 65.8141 12.2047 65.459 12.1214 65.1828C12.0674 65.0668 12.1 64.929 12.2003 64.8496ZM54.9662 65.4766L55.0758 65.5117C56.0404 65.7835 56.8077 65.424 56.8866 65.1478C56.9416 65.0328 56.9108 64.8951 56.8121 64.8146C56.4505 64.6152 56.0094 64.627 55.659 64.8453C55.3751 64.989 55.1356 65.2072 54.9662 65.4766Z" fill="#372168"/>
</svg>
