<svg width="48" height="71" viewBox="0 0 48 71" fill="none" xmlns="http://www.w3.org/2000/svg">
<path fill-rule="evenodd" clip-rule="evenodd" d="M23.8855 1.62746V1.60904C22.4292 1.32755 13.9591 0.0701516 9.25355 9.30208C8.15007 8.1219 6.24748 7.6153 4.59736 8.20088C2.96525 8.77109 1.69263 10.0701 1.15607 11.7136C1.15607 11.7136 0.179035 13.8386 1.86269 16.1957C2.84509 17.5675 4.8783 18.1546 6.56549 17.8311C5.67402 22.7837 5.8806 27.2307 6.07403 31.3945C6.30168 36.2951 6.51111 40.8034 4.89078 45.2821C0.582147 57.2003 -0.290294 65.2309 6.11271 69.7002C6.11271 69.7002 11.8193 68.0599 14.5846 60.7717C17.5157 53.0422 15.8805 46.8943 15.0514 44.7413C15.3193 45.3153 19.2861 54.1723 15.7147 61.2437C15.8703 61.162 22.6253 57.1646 21.0513 45.6163C20.1111 38.7146 17.6747 33.3987 16.0307 29.8115C15.6943 29.0776 15.3911 28.4161 15.1407 27.8282C12.9392 22.665 13.2019 17.0655 13.9953 13.9406C14.0901 13.5566 14.3947 13.2599 14.781 13.1753C16.8158 12.7403 23.3116 11.0855 23.8806 7.53572C23.986 7.79365 25.7047 11.6956 33.7323 12.8794C34.0267 12.9226 34.2876 13.0922 34.4466 13.3437C35.7119 15.4074 35.967 18.1038 36.0716 20.813C36.6844 20.608 37.3527 20.6483 37.9364 20.9252C39.2731 21.5604 39.8547 23.6829 38.5792 25.6242C37.6099 27.1037 35.9721 27.3639 34.7272 27.0757C34.0621 28.9127 33.1763 30.6579 32.2684 32.4468C31.0418 34.8634 29.7749 37.3596 28.9569 40.2694C25.8676 51.2872 29.9569 58.4402 31.5079 60.5779C31.5424 60.6185 31.6012 60.6284 31.6471 60.6014C31.693 60.5743 31.7129 60.5181 31.6941 60.4682C29.7528 54.7106 30.1227 50.6443 30.5921 46.4684C30.4288 49.7158 30.8905 54.6953 33.1864 60.7743C35.9517 68.06 41.6583 69.7028 41.6583 69.7028C48.0613 65.2335 47.1889 57.1927 42.87 45.3026C41.2497 40.8227 41.4591 36.3142 41.6868 31.4137C41.8805 27.2438 42.0874 22.7901 41.1914 17.8285C42.8812 18.1578 44.9223 17.5712 45.9056 16.1957C47.5918 13.8386 46.6148 11.7136 46.6148 11.7136C46.0782 10.0701 44.8056 8.77109 43.1735 8.20088C41.5169 7.61301 39.6059 8.12587 38.5044 9.31593C33.8092 0.114593 25.3704 1.33076 23.8855 1.62746Z" fill="black"/>
<path fill-rule="evenodd" clip-rule="evenodd" d="M23.8855 1.62746V1.60904C22.4292 1.32755 13.9591 0.0701516 9.25355 9.30208C8.15007 8.1219 6.24748 7.6153 4.59736 8.20088C2.96525 8.77109 1.69263 10.0701 1.15607 11.7136C1.15607 11.7136 0.179035 13.8386 1.86269 16.1957C2.84509 17.5675 4.8783 18.1546 6.56549 17.8311C5.67402 22.7837 5.8806 27.2307 6.07403 31.3945C6.30168 36.2951 6.51111 40.8034 4.89078 45.2821C0.582147 57.2003 -0.290294 65.2309 6.11271 69.7002C6.11271 69.7002 11.8193 68.0599 14.5846 60.7717C17.5157 53.0422 15.8805 46.8943 15.0514 44.7413C15.3193 45.3153 19.2861 54.1723 15.7147 61.2437C15.8703 61.162 22.6253 57.1646 21.0513 45.6163C20.1111 38.7146 17.6747 33.3987 16.0307 29.8115C15.6943 29.0776 15.3911 28.4161 15.1407 27.8282C12.9392 22.665 13.2019 17.0655 13.9953 13.9406C14.0901 13.5566 14.3947 13.2599 14.781 13.1753C16.8158 12.7403 23.3116 11.0855 23.8806 7.53572C23.986 7.79365 25.7047 11.6956 33.7323 12.8794C34.0267 12.9226 34.2876 13.0922 34.4466 13.3437C35.7119 15.4074 35.967 18.1038 36.0716 20.813C36.6844 20.608 37.3527 20.6483 37.9364 20.9252C39.2731 21.5604 39.8547 23.6829 38.5792 25.6242C37.6099 27.1037 35.9721 27.3639 34.7272 27.0757C34.0621 28.9127 33.1763 30.6579 32.2684 32.4468C31.0418 34.8634 29.7749 37.3596 28.9569 40.2694C25.8676 51.2872 29.9569 58.4402 31.5079 60.5779C31.5424 60.6185 31.6012 60.6284 31.6471 60.6014C31.693 60.5743 31.7129 60.5181 31.6941 60.4682C29.7528 54.7106 30.1227 50.6443 30.5921 46.4684C30.4288 49.7158 30.8905 54.6953 33.1864 60.7743C35.9517 68.06 41.6583 69.7028 41.6583 69.7028C48.0613 65.2335 47.1889 57.1927 42.87 45.3026C41.2497 40.8227 41.4591 36.3142 41.6868 31.4137C41.8805 27.2438 42.0874 22.7901 41.1914 17.8285C42.8812 18.1578 44.9223 17.5712 45.9056 16.1957C47.5918 13.8386 46.6148 11.7136 46.6148 11.7136C46.0782 10.0701 44.8056 8.77109 43.1735 8.20088C41.5169 7.61301 39.6059 8.12587 38.5044 9.31593C33.8092 0.114593 25.3704 1.33076 23.8855 1.62746Z" fill="white" fill-opacity="0.16"/>
<path fill-rule="evenodd" clip-rule="evenodd" d="M6.11267 70.2105C6.00777 70.2107 5.90533 70.1787 5.8193 70.1186C-1.1092 65.2717 0.245378 56.6238 4.41116 45.1189C5.99532 40.7362 5.78614 36.2159 5.56421 31.4302L5.56069 31.3528C5.40586 27.9474 5.23899 24.2772 5.69731 20.2735C4.74426 22.4176 3.48259 26.0333 3.48259 30.147C3.48259 30.2879 3.36838 30.4021 3.22749 30.4021C3.08661 30.4021 2.97239 30.2879 2.97239 30.147C2.97239 25.1956 4.75809 20.9635 5.71471 19.04C4.23003 20.4456 2.8627 22.7339 2.84739 22.7619C2.77553 22.8831 2.61907 22.923 2.49791 22.8512C2.37676 22.7793 2.33679 22.6229 2.40862 22.5017C2.48152 22.378 3.991 19.8536 5.6268 18.4303C5.44591 18.4303 5.26255 18.4295 5.07438 18.4023C3.54378 18.2568 2.20196 17.5426 1.44942 16.4916C-0.275056 14.0809 0.531058 11.8819 0.684118 11.5426C1.26694 9.75 2.65573 8.33383 4.43663 7.71613C5.77022 7.26073 7.23348 7.38374 8.47231 8.05541C8.70251 8.17309 8.91925 8.31111 9.12051 8.4669C10.9769 5.10124 13.5396 2.82033 16.7707 1.66774C19.0625 0.868695 21.5206 0.671036 23.9098 1.09305C26.2862 0.680992 28.7291 0.881082 31.0079 1.67537C34.2401 2.82839 36.8007 5.10332 38.658 8.46637C38.8571 8.31294 39.0713 8.17683 39.2986 8.06048C40.5374 7.38881 42.0007 7.26579 43.3343 7.7212C45.1145 8.33993 46.5029 9.7557 47.0868 11.5477C47.2296 11.887 48.0357 14.0859 46.3215 16.4966C45.5689 17.5476 44.2143 18.2619 42.694 18.4073L42.6156 18.4124C44.0561 19.8501 45.2953 21.9165 45.3785 22.0551L45.3801 22.0579C45.434 22.1771 45.389 22.3177 45.2759 22.3835C45.1628 22.4492 45.0183 22.4188 44.9414 22.313C44.9261 22.2849 43.5562 19.9967 42.0741 18.5885C43.0307 20.5069 44.8164 24.7466 44.8164 29.6981C44.8184 29.7671 44.7925 29.8339 44.7444 29.8835C44.6964 29.933 44.6303 29.9609 44.5613 29.9609C44.4204 29.9609 44.3062 29.8466 44.3062 29.7058C44.3062 25.4615 42.9652 21.7508 42.004 19.6362C42.5624 23.921 42.3816 27.8266 42.2144 31.4225L42.2136 31.4384C41.992 36.2182 41.7825 40.736 43.3674 45.1137C47.5332 56.6289 48.8878 65.287 41.9567 70.1135C41.8702 70.1773 41.7657 70.2121 41.6583 70.213C41.6101 70.2133 41.562 70.2073 41.5154 70.1951C41.2603 70.1237 35.5333 68.3941 32.7094 60.9503C31.995 59.0806 31.4111 57.1636 30.9619 55.2131C31.2051 56.9441 31.6116 58.6481 32.1762 60.3024C32.2799 60.5975 32.1504 60.9239 31.8726 61.0677C31.6059 61.1975 31.2846 61.1193 31.1073 60.8814C29.6788 58.9095 25.2656 51.5907 28.4875 40.1316C29.3191 37.175 30.5997 34.6546 31.8369 32.2236C32.7553 30.5034 33.5681 28.7289 34.2706 26.9098C34.3592 26.668 34.6141 26.5302 34.865 26.5884C35.916 26.8435 37.3369 26.6343 38.1813 25.3537C38.7329 24.5612 38.9186 23.5703 38.6915 22.6318C38.564 22.1017 38.2158 21.6514 37.7348 21.3946C37.2675 21.1731 36.7323 21.142 36.2425 21.3078C36.0911 21.3556 35.9261 21.3301 35.7961 21.239C35.7872 21.2327 35.7785 21.2262 35.7701 21.2195C35.6493 21.1261 35.5716 20.9799 35.5716 20.8155C35.5716 20.7935 35.573 20.7718 35.5757 20.7505C35.4796 18.3466 35.2652 15.6321 34.0282 13.6191C33.9508 13.4946 33.8216 13.4112 33.6762 13.3921C27.6551 12.5036 25.0451 10.1089 24.0143 8.72261C23.9702 8.80779 23.9215 8.89509 23.8678 8.98422C23.3471 10.2183 21.9556 12.6145 18.6891 13.8921C18.66 13.9042 18.6288 13.9103 18.5973 13.91C18.4747 13.9103 18.3692 13.8233 18.3461 13.7029C18.3231 13.5825 18.3889 13.4627 18.5029 13.4177C20.2113 12.7505 21.3792 11.7489 22.164 10.7935C20.7679 11.8422 18.5171 12.906 14.8932 13.6829C14.6949 13.7227 14.5388 13.8758 14.4952 14.0732C13.6917 17.2339 13.5029 22.6803 15.6151 27.6343C15.8702 28.216 16.1585 28.8588 16.5003 29.6063L16.5043 29.615C18.1395 33.1864 20.6108 38.5838 21.5615 45.5551C23.1941 57.5448 16.0284 61.6646 15.9493 61.7003C15.7534 61.8035 15.5132 61.7684 15.3549 61.6136C15.1958 61.4583 15.1555 61.2179 15.2554 61.0192C16.4161 58.7233 16.7529 56.2387 16.6814 53.9198C16.4713 56.33 15.9252 58.699 15.059 60.958C12.2351 68.3992 6.49277 70.1416 6.25042 70.2002C6.20515 70.2096 6.15884 70.2131 6.11267 70.2105ZM24.3957 7.42084C24.7136 8.05496 26.6925 11.3095 33.8012 12.3589C34.2451 12.4212 34.638 12.6785 34.8726 13.0605C36.1481 15.1319 36.4338 17.7721 36.5486 20.1752C36.9612 20.1255 37.3657 20.1672 37.7404 20.2854C38.3712 11.1417 34.0324 9.00593 33.7909 8.88706L33.7808 8.88196C33.6901 8.85162 33.624 8.77312 33.6096 8.67861C33.5951 8.58409 33.6347 8.48943 33.7122 8.43338C33.7896 8.37733 33.8919 8.3693 33.9772 8.41258C34.1833 8.50054 38.9803 10.6289 38.2388 20.4966C38.9253 20.8684 39.4529 21.519 39.6481 22.3282C39.9528 23.5528 39.7158 24.8493 38.9976 25.8869C38.41 26.7831 37.4999 27.3864 36.4881 27.5988C35.7364 29.1595 32.3895 36.3509 31.7144 41.7133C31.6978 41.8401 31.5898 41.935 31.4619 41.9352H31.4287C31.2893 41.9167 31.1912 41.7889 31.2093 41.6495C31.8543 36.5047 34.9128 29.731 35.8845 27.6778C35.6086 27.6926 35.3286 27.6787 35.0487 27.6343C34.3606 29.3498 33.5814 31.0273 32.7145 32.6598L32.7104 32.6679C31.4974 35.0607 30.2442 37.5328 29.439 40.3893C27.2018 48.3458 28.7707 54.1953 30.3268 57.5396C29.3217 53.032 29.712 49.5397 30.0717 46.3943C30.0726 46.3862 30.0737 46.3782 30.075 46.3702C30.0767 46.3601 30.0786 46.3501 30.0809 46.3402C30.1182 45.5809 30.202 44.8246 30.3318 44.0755C30.3712 43.7937 30.6316 43.5972 30.9134 43.6367C31.1952 43.6761 31.3916 43.9365 31.3522 44.2183C31.2938 44.7974 31.23 45.3656 31.1669 45.9274L31.1328 46.2311L31.1022 46.5117C31.1 46.5301 31.0969 46.5482 31.0929 46.566C30.9791 49.0198 31.1754 54.0317 33.6482 60.5753C34.7329 63.4364 36.2877 65.4003 37.7478 66.722C38.0779 65.4988 38.5532 62.6652 36.8701 60.0753C36.7937 59.9576 36.8268 59.8003 36.944 59.7233C37.0618 59.647 37.219 59.68 37.2961 59.7973C39.2344 62.7695 38.5322 65.9487 38.1762 67.0943C39.5336 68.2264 40.7566 68.807 41.3681 69.0515C41.8898 67.555 43.3857 62.0503 40.1684 55.0166C38.7291 51.9534 37.8587 48.6541 37.5996 45.2795C37.5908 45.1395 37.6968 45.0186 37.8368 45.0091C37.9768 45.0003 38.0977 45.1063 38.1072 45.2463C38.3638 48.5591 39.2195 51.7978 40.6327 54.8049C42.6531 59.2207 42.8317 63.0191 42.6276 65.4247C42.4998 66.9164 42.219 68.0632 41.9956 68.786C47.6456 64.2187 46.2473 56.1284 42.3828 45.4479C40.7272 40.8714 40.9415 36.2516 41.1685 31.3613L41.169 31.3513C41.4239 25.8461 41.7129 19.6071 39.2654 12.4329C35.4479 1.23468 26.9532 1.62754 24.3957 2.02461V7.42084ZM41.5735 17.016C42.2874 16.8774 42.9454 16.488 43.4133 15.8921L43.4924 15.7849C43.5319 15.7296 43.5917 15.6923 43.6588 15.6813C43.7258 15.6703 43.7945 15.6865 43.8496 15.7263C43.9045 15.7661 43.9413 15.8261 43.9518 15.8932C43.9623 15.9602 43.9457 16.0286 43.9057 16.0834L43.8215 16.1982C43.3704 16.7716 42.7635 17.1889 42.0854 17.4088C42.2542 17.4107 42.426 17.4036 42.5996 17.387C43.8266 17.2697 44.8955 16.7135 45.4924 15.8972C46.972 13.8284 46.1863 11.9993 46.1505 11.9228C46.1397 11.8961 46.1303 11.8689 46.1225 11.8411C45.6325 10.3592 44.4785 9.19103 43.0026 8.683C42.5938 8.53888 42.1631 8.46639 41.7297 8.46872C41.0545 8.46955 40.3901 8.63784 39.796 8.95851C39.5577 9.07813 39.3382 9.22653 39.1414 9.39884C39.2158 9.5518 39.2889 9.70678 39.3607 9.86375C40.1555 9.53773 41.0793 9.47526 41.9083 9.76966C43.1879 10.1817 44.193 11.1812 44.6123 12.4584C44.8312 13.0785 44.8622 13.7493 44.7016 14.387C44.6723 14.5007 44.5691 14.5797 44.4516 14.5783C44.433 14.5808 44.4141 14.5808 44.3955 14.5783C44.3295 14.5631 44.2723 14.5223 44.2364 14.4649C44.2005 14.4075 44.1889 14.3381 44.2042 14.2722C44.345 13.7361 44.3219 13.17 44.1378 12.6472C44.1301 12.6338 44.1249 12.6191 44.1225 12.6038C43.7518 11.4829 42.8655 10.608 41.7399 10.2518C41.0312 10.0039 40.2428 10.0533 39.5654 10.3252C39.812 10.8979 40.042 11.4959 40.2552 12.1192C40.8303 13.8034 41.2583 15.4347 41.5735 17.016ZM8.63398 9.40713C8.43472 9.23125 8.21194 9.07996 7.9698 8.95841C7.37644 8.63814 6.71298 8.46986 6.0387 8.46862C5.60436 8.46594 5.17283 8.53844 4.7632 8.6829C3.29051 9.19602 2.13846 10.3622 1.64333 11.841C1.63582 11.87 1.62557 11.8982 1.61272 11.9252C1.57956 11.9992 0.793852 13.8283 2.27343 15.8971C2.85761 16.7134 3.93923 17.2696 5.16626 17.3869C5.34146 17.4036 5.51488 17.4108 5.68527 17.4086C5.00728 17.1887 4.40044 16.7715 3.94943 16.1981L3.86269 16.0833C3.78028 15.9685 3.80654 15.8086 3.92137 15.7262C4.03619 15.6438 4.19609 15.67 4.27851 15.7849L4.35759 15.892C4.82756 16.4898 5.4887 16.8797 6.20563 17.017C6.52048 15.4382 6.94832 13.8094 7.52337 12.1268C7.737 11.5004 7.96765 10.8993 8.21516 10.3237C7.53477 10.0465 6.73991 9.99449 6.02594 10.2442C4.89949 10.6005 4.01299 11.4766 3.64331 12.5988L3.628 12.6396C3.44597 13.1628 3.42289 13.7282 3.56167 14.2646C3.57694 14.3305 3.56535 14.3999 3.52947 14.4573C3.49358 14.5147 3.43634 14.5555 3.37035 14.5707C3.35372 14.5753 3.33658 14.5779 3.31933 14.5783C3.19773 14.5813 3.09095 14.498 3.06423 14.3794C2.90361 13.7417 2.93466 13.0709 3.15352 12.4508C3.57282 11.1736 4.57798 10.1741 5.85757 9.76205C6.69112 9.47122 7.62048 9.5359 8.4183 9.8653C8.48892 9.71064 8.56081 9.55792 8.63398 9.40713ZM21.4033 1.88708C17.8319 1.88708 11.6126 3.31309 8.4953 12.4457C6.04527 19.6173 6.33425 25.8563 6.58924 31.3615L6.5897 31.3715C6.81929 36.2617 7.03358 40.8816 5.37798 45.4555C1.50693 56.1564 0.110445 64.256 5.79116 68.8191C5.1784 66.8209 4.08847 61.4712 7.13811 54.805C9.13554 50.4402 9.63553 46.7362 9.70441 44.3995C9.77584 41.8663 9.37278 40.346 9.36768 40.3307C9.34035 40.2415 9.36383 40.1446 9.4289 40.0778C9.49397 40.0111 9.59027 39.9851 9.68007 40.0102C9.76987 40.0352 9.83887 40.1072 9.86002 40.198C9.87788 40.2618 10.286 41.7873 10.2146 44.3893C10.1483 46.7796 9.64063 50.5627 7.60239 55.0167C5.63302 59.3203 5.45445 63.0167 5.65088 65.3585C5.73253 66.6196 5.9873 67.8628 6.40747 69.0533C7.02641 68.8002 8.24386 68.2144 9.5917 67.0891C9.23663 65.9391 8.5394 62.765 10.4748 59.7972C10.5209 59.7133 10.6102 59.6623 10.7059 59.6651C10.8016 59.6679 10.8877 59.7241 10.9288 59.8106C10.9699 59.8971 10.9591 59.9993 10.9008 60.0753C9.21451 62.6668 9.68726 65.4925 10.0195 66.7171C11.4795 65.3949 13.032 63.4353 14.11 60.588C17.0741 52.7724 15.2599 46.7189 14.5956 44.9713C14.5867 44.9539 14.5787 44.9359 14.5718 44.9173V44.9084C14.5595 44.873 14.5514 44.8371 14.5472 44.8013C14.5127 44.605 14.5962 44.4026 14.7668 44.2888C14.9638 44.1575 15.2254 44.179 15.3983 44.3408C15.4583 44.3981 15.5038 44.469 15.531 44.5474L15.5315 44.5561L15.5316 44.5589C15.8358 45.2221 19.1743 52.7731 16.9493 59.5753C18.7988 57.7054 21.6125 53.4835 20.5488 45.6749C19.6176 38.8459 17.1814 33.5296 15.5692 30.0118C15.2248 29.2618 14.9264 28.6113 14.6738 28.0169C12.7957 23.6109 12.6559 18.8278 13.1719 15.4561C13.2102 15.14 13.2695 14.8167 13.3446 14.4921C13.3942 14.2523 13.4471 14.0223 13.5029 13.8028C13.5318 13.6842 13.5744 13.5712 13.6287 13.4656C14.2717 11.4474 15.3133 9.61586 15.431 9.4089L15.4391 9.3947C15.5124 9.27933 15.6637 9.24228 15.782 9.3107C15.9004 9.37911 15.9438 9.52867 15.8804 9.6498L15.8796 9.65123C15.8483 9.7058 15.0597 11.0802 14.4257 12.7428C14.5061 12.711 14.5899 12.6857 14.6764 12.6676C20.6661 11.3921 23.0946 9.13956 23.3778 7.4559V2.02738C22.7242 1.93024 22.0641 1.88333 21.4033 1.88708ZM9.34982 16.5783C9.37093 16.5819 9.3925 16.5819 9.4136 16.5783C9.52652 16.5801 9.62718 16.5074 9.66105 16.3997C9.90923 15.3614 10.2202 14.3391 10.5922 13.3385C10.6422 13.2068 10.5759 13.0594 10.4442 13.0094C10.3125 12.9594 10.1651 13.0256 10.1151 13.1574C9.7369 14.1751 9.41917 15.2143 9.1636 16.2696C9.1299 16.4062 9.21323 16.5443 9.34982 16.5783ZM9.32688 38.1878C9.20681 38.1913 9.10056 38.1105 9.07178 37.9939C9.05137 37.9148 7.1968 30.0578 8.2325 21.3129C8.2325 21.3129 8.36516 20.0681 8.68148 18.3997C8.70754 18.2588 8.84289 18.1657 8.98377 18.1918C9.12466 18.2179 9.21774 18.3532 9.19168 18.4941C8.87791 20.142 8.74781 21.3589 8.74781 21.3691C7.73906 29.9258 9.51507 37.6173 9.57301 37.8683L9.57433 37.874C9.60627 38.0106 9.52194 38.1473 9.38555 38.1801C9.36644 38.1853 9.3467 38.1879 9.32688 38.1878ZM37.6417 43.0014C37.6899 43.0521 37.7568 43.0807 37.8267 43.0806C37.9618 43.0794 38.0725 42.9731 38.0793 42.8382C38.1058 41.9938 38.2143 41.154 38.4032 40.3306C38.4212 40.2653 38.4125 40.1956 38.379 40.1367C38.3455 40.0778 38.29 40.0347 38.2247 40.0168C38.159 39.9989 38.089 40.008 38.03 40.042C37.9711 40.076 37.9282 40.1322 37.9109 40.198C37.7099 41.0559 37.5962 41.9319 37.5716 42.8127C37.5681 42.8826 37.5934 42.9508 37.6417 43.0014Z" fill="#372168"/>
</svg>
