<svg width="109" height="100" viewBox="0 0 109 75" fill="none" xmlns="http://www.w3.org/2000/svg">
<path fill-rule="evenodd" clip-rule="evenodd" d="M54.6021 32.7251L54.5838 32.7264L54.5839 32.7272C52.6009 32.8732 50.6284 33.1378 48.6771 33.5198L48.4931 33.5549C48.1547 33.6199 47.8104 33.6886 47.4603 33.765C47.3648 33.7859 47.2689 33.8073 47.1725 33.8294L47.1725 33.8293C45.4597 34.2138 43.7724 34.7038 42.1202 35.2967L41.8477 35.3958L41.8474 35.3949C40.6731 35.8233 39.5239 36.3177 38.4052 36.8756L38.405 36.8753C37.1589 37.5056 35.955 38.2192 34.8016 39.0117L34.7878 39.0094C33.0445 40.2177 31.4832 41.6697 30.1517 43.3211L30.1458 43.3223C28.4588 45.4414 27.2276 47.8862 26.5296 50.5034C26.4592 50.7642 26.3911 51.0256 26.3254 51.2875C26.3975 51.0332 26.4738 50.7801 26.5544 50.5281C27.2532 47.9078 28.4864 45.4604 30.1765 43.3396C31.5162 41.678 33.0886 40.2183 34.845 39.0055C35.9862 38.2175 37.1821 37.5119 38.4237 36.8942L38.56 36.8322C39.6339 36.2965 40.7379 35.8231 41.8663 35.4144L42.1387 35.3153C43.791 34.7224 45.4783 34.2323 47.1911 33.8479C47.705 33.7302 48.2065 33.6312 48.6957 33.5383C49.9154 33.2968 51.0732 33.1235 52.0639 32.9996C53.0522 32.8761 53.905 32.7957 54.5975 32.7461L54.6021 32.7251ZM61.8351 33.1041C61.8369 33.1044 61.8387 33.1046 61.8405 33.1049C62.9983 33.2721 64.2862 33.4888 65.6545 33.7983C66.1127 33.8974 66.5833 34.0027 67.0538 34.1265C67.0561 34.1271 67.0584 34.1276 67.0606 34.1282C67.0649 34.1247 67.0702 34.1204 67.0765 34.1153L67.0229 34.1017C66.5523 33.9779 66.0818 33.8726 65.6236 33.7736L65.6273 33.7633C64.3741 33.4845 63.1101 33.2559 61.8382 33.0779L61.8351 33.1041ZM75.6627 37.4191L76.236 37.7362L76.6957 38.0073L76.688 38.0025L76.2051 37.7176L75.6641 37.4184L75.6627 37.4191ZM82.9618 43.4099C83.0617 43.5355 83.1598 43.6624 83.2564 43.7908C83.1602 43.6625 83.0624 43.5355 82.963 43.41L82.9618 43.4099ZM86.6069 50.8225C93.3273 56.5632 97.9955 65.7395 100.253 70.9172C100.894 72.4015 102.489 73.231 104.072 72.9024C105.655 72.5738 106.789 71.1778 106.786 69.5612C106.788 69.164 106.719 68.7697 106.581 68.3972C104.245 62.1366 97.1525 46.1691 84.6395 43.6385C91.6537 44.8164 97.2134 48.5328 100.334 51.0854C101.056 51.6757 102 51.9197 102.918 51.7529C103.835 51.5861 104.633 51.0252 105.101 50.2185C105.863 48.9112 105.608 47.2493 104.488 46.2311C94.5075 37.1934 83.4308 36.247 77.9307 36.441C85.3944 33.7573 92.926 36.0795 97.2009 37.9839C98.1156 38.3848 99.1592 38.3696 100.062 37.942C100.964 37.5145 101.637 36.7166 101.907 35.7549C102.352 34.1759 101.621 32.502 100.16 31.7551C90.8452 27.1566 82.7053 27.6396 76.8272 29.327C79.8425 26.8409 83.4965 25.9566 86.0064 25.6563C87.7016 25.4675 88.9855 24.0371 88.9908 22.3314C88.9962 21.4268 88.6341 20.5587 87.9874 19.9261C87.3407 19.2934 86.465 18.9504 85.5606 18.9756C83.4087 19.0562 81.462 19.4236 79.7063 19.993C82.3242 18.4862 84.8201 17.4357 86.6751 16.759C88.4162 16.12 89.3676 14.2443 88.8546 12.462C88.3145 10.6447 86.4547 9.56029 84.6071 9.98533C75.5732 11.8806 69.2186 17.4407 65.097 22.592C67.597 17.224 70.9167 12.3767 73.0535 9.50241C73.5986 8.77399 73.8264 7.85635 73.6853 6.95759C73.5443 6.05883 73.0463 5.2551 72.3043 4.72866C70.9707 3.77431 69.1449 3.91254 67.9702 5.05682C64.2949 8.5751 61.4513 13.5655 59.35 18.343C59.274 13.1732 59.0175 8.60083 58.7942 5.64504C58.6762 3.68084 57.047 2.14942 55.0792 2.15296C54.0598 2.1516 53.0846 2.56923 52.3821 3.30801C51.6796 4.04679 51.3116 5.04179 51.3643 6.05988C51.5377 9.94787 51.7955 16.1618 51.9457 22.0078C49.536 15.6 46.0735 9.52659 43.9653 6.09085C42.9573 4.44656 40.842 3.8736 39.142 4.78442C38.2693 5.25226 37.6253 6.05592 37.3588 7.00958C37.0923 7.96324 37.2265 8.98434 37.7303 9.83679C40.4795 14.5147 45.3181 23.2712 46.83 29.3618C42.0215 20.1287 33.4966 12.6582 29.062 9.17427C27.4851 7.92904 25.2136 8.11563 23.861 9.60149C23.133 10.4015 22.7769 11.472 22.8807 12.5487C22.9845 13.6254 23.5384 14.6082 24.4059 15.2544C27.5921 17.6412 32.3898 21.5976 36.3202 26.3501C27.2036 21.1498 19.316 19.1665 15.0689 18.4183C13.1932 18.0953 11.3817 19.2591 10.8958 21.0993C10.6432 22.053 10.785 23.0683 11.2894 23.9163C11.7937 24.7642 12.6181 25.3735 13.5767 25.6068C18.1923 26.7239 26.2503 28.9613 32.2481 32.1834C22.08 30.2034 12.0797 31.5248 6.69164 32.6034C5.65844 32.8074 4.76389 33.4482 4.23818 34.3607C3.71247 35.2733 3.60695 36.3686 3.94875 37.3647C4.5155 39.0479 6.21234 40.078 7.96712 39.8042C11.4947 39.2506 17.6744 38.4393 24.0992 38.3351C14.4697 40.4462 5.81813 48.7031 2.2151 52.5466C1.15211 53.6868 0.99909 55.4033 1.8436 56.7136C2.39351 57.5693 3.29719 58.1345 4.30733 58.2543C5.31746 58.3741 6.32828 58.0361 7.06314 57.3327C11.5728 53.0149 20.7116 45.3039 30.1263 43.3264C21.6501 47.1567 15.1961 54.8352 12.3694 58.6454C11.4224 59.9169 11.5134 61.6821 12.5861 62.8495C13.2294 63.5598 14.1488 63.9567 15.107 63.9377C16.0651 63.9187 16.9681 63.4857 17.5827 62.7505C19.9396 59.8941 22.6129 57.3142 25.5513 55.0604C25.5898 54.8206 25.6302 54.581 25.6726 54.3419C25.6366 54.589 25.6044 54.8368 25.5761 55.0852C24.8765 66.1496 26.4306 72.4713 26.4306 72.4713C26.4306 72.4713 30.1827 46.9432 56.559 47.5004C83.3997 48.0391 86.6751 72.4403 86.6751 72.4403C86.6751 72.4403 89.0094 63.0414 86.607 50.8315C86.607 50.8285 86.607 50.8255 86.6069 50.8225Z" fill="black"/>
<path fill-rule="evenodd" clip-rule="evenodd" d="M54.6021 32.7251L54.5838 32.7264L54.5839 32.7272C52.6009 32.8732 50.6284 33.1378 48.6771 33.5198L48.4931 33.5549C48.1547 33.6199 47.8104 33.6886 47.4603 33.765C47.3648 33.7859 47.2689 33.8073 47.1725 33.8294L47.1725 33.8293C45.4597 34.2138 43.7724 34.7038 42.1202 35.2967L41.8477 35.3958L41.8474 35.3949C40.6731 35.8233 39.5239 36.3177 38.4052 36.8756L38.405 36.8753C37.1589 37.5056 35.955 38.2192 34.8016 39.0117L34.7878 39.0094C33.0445 40.2177 31.4832 41.6697 30.1517 43.3211L30.1458 43.3223C28.4588 45.4414 27.2276 47.8862 26.5296 50.5034C26.4592 50.7642 26.3911 51.0256 26.3254 51.2875C26.3975 51.0332 26.4738 50.7801 26.5544 50.5281C27.2532 47.9078 28.4864 45.4604 30.1765 43.3396C31.5162 41.678 33.0886 40.2183 34.845 39.0055C35.9862 38.2175 37.1821 37.5119 38.4237 36.8942L38.56 36.8322C39.6339 36.2965 40.7379 35.8231 41.8663 35.4144L42.1387 35.3153C43.791 34.7224 45.4783 34.2323 47.1911 33.8479C47.705 33.7302 48.2065 33.6312 48.6957 33.5383C49.9154 33.2968 51.0732 33.1235 52.0639 32.9996C53.0522 32.8761 53.905 32.7957 54.5975 32.7461L54.6021 32.7251ZM61.8351 33.1041C61.8369 33.1044 61.8387 33.1046 61.8405 33.1049C62.9983 33.2721 64.2862 33.4888 65.6545 33.7983C66.1127 33.8974 66.5833 34.0027 67.0538 34.1265C67.0561 34.1271 67.0584 34.1276 67.0606 34.1282C67.0649 34.1247 67.0702 34.1204 67.0765 34.1153L67.0229 34.1017C66.5523 33.9779 66.0818 33.8726 65.6236 33.7736L65.6273 33.7633C64.3741 33.4845 63.1101 33.2559 61.8382 33.0779L61.8351 33.1041ZM75.6627 37.4191L76.236 37.7362L76.6957 38.0073L76.688 38.0025L76.2051 37.7176L75.6641 37.4184L75.6627 37.4191ZM82.9618 43.4099C83.0617 43.5355 83.1598 43.6624 83.2564 43.7908C83.1602 43.6625 83.0624 43.5355 82.963 43.41L82.9618 43.4099ZM86.6069 50.8225C93.3273 56.5632 97.9955 65.7395 100.253 70.9172C100.894 72.4015 102.489 73.231 104.072 72.9024C105.655 72.5738 106.789 71.1778 106.786 69.5612C106.788 69.164 106.719 68.7697 106.581 68.3972C104.245 62.1366 97.1525 46.1691 84.6395 43.6385C91.6537 44.8164 97.2134 48.5328 100.334 51.0854C101.056 51.6757 102 51.9197 102.918 51.7529C103.835 51.5861 104.633 51.0252 105.101 50.2185C105.863 48.9112 105.608 47.2493 104.488 46.2311C94.5075 37.1934 83.4308 36.247 77.9307 36.441C85.3944 33.7573 92.926 36.0795 97.2009 37.9839C98.1156 38.3848 99.1592 38.3696 100.062 37.942C100.964 37.5145 101.637 36.7166 101.907 35.7549C102.352 34.1759 101.621 32.502 100.16 31.7551C90.8452 27.1566 82.7053 27.6396 76.8272 29.327C79.8425 26.8409 83.4965 25.9566 86.0064 25.6563C87.7016 25.4675 88.9855 24.0371 88.9908 22.3314C88.9962 21.4268 88.6341 20.5587 87.9874 19.9261C87.3407 19.2934 86.465 18.9504 85.5606 18.9756C83.4087 19.0562 81.462 19.4236 79.7063 19.993C82.3242 18.4862 84.8201 17.4357 86.6751 16.759C88.4162 16.12 89.3676 14.2443 88.8546 12.462C88.3145 10.6447 86.4547 9.56029 84.6071 9.98533C75.5732 11.8806 69.2186 17.4407 65.097 22.592C67.597 17.224 70.9167 12.3767 73.0535 9.50241C73.5986 8.77399 73.8264 7.85635 73.6853 6.95759C73.5443 6.05883 73.0463 5.2551 72.3043 4.72866C70.9707 3.77431 69.1449 3.91254 67.9702 5.05682C64.2949 8.5751 61.4513 13.5655 59.35 18.343C59.274 13.1732 59.0175 8.60083 58.7942 5.64504C58.6762 3.68084 57.047 2.14942 55.0792 2.15296C54.0598 2.1516 53.0846 2.56923 52.3821 3.30801C51.6796 4.04679 51.3116 5.04179 51.3643 6.05988C51.5377 9.94787 51.7955 16.1618 51.9457 22.0078C49.536 15.6 46.0735 9.52659 43.9653 6.09085C42.9573 4.44656 40.842 3.8736 39.142 4.78442C38.2693 5.25226 37.6253 6.05592 37.3588 7.00958C37.0923 7.96324 37.2265 8.98434 37.7303 9.83679C40.4795 14.5147 45.3181 23.2712 46.83 29.3618C42.0215 20.1287 33.4966 12.6582 29.062 9.17427C27.4851 7.92904 25.2136 8.11563 23.861 9.60149C23.133 10.4015 22.7769 11.472 22.8807 12.5487C22.9845 13.6254 23.5384 14.6082 24.4059 15.2544C27.5921 17.6412 32.3898 21.5976 36.3202 26.3501C27.2036 21.1498 19.316 19.1665 15.0689 18.4183C13.1932 18.0953 11.3817 19.2591 10.8958 21.0993C10.6432 22.053 10.785 23.0683 11.2894 23.9163C11.7937 24.7642 12.6181 25.3735 13.5767 25.6068C18.1923 26.7239 26.2503 28.9613 32.2481 32.1834C22.08 30.2034 12.0797 31.5248 6.69164 32.6034C5.65844 32.8074 4.76389 33.4482 4.23818 34.3607C3.71247 35.2733 3.60695 36.3686 3.94875 37.3647C4.5155 39.0479 6.21234 40.078 7.96712 39.8042C11.4947 39.2506 17.6744 38.4393 24.0992 38.3351C14.4697 40.4462 5.81813 48.7031 2.2151 52.5466C1.15211 53.6868 0.99909 55.4033 1.8436 56.7136C2.39351 57.5693 3.29719 58.1345 4.30733 58.2543C5.31746 58.3741 6.32828 58.0361 7.06314 57.3327C11.5728 53.0149 20.7116 45.3039 30.1263 43.3264C21.6501 47.1567 15.1961 54.8352 12.3694 58.6454C11.4224 59.9169 11.5134 61.6821 12.5861 62.8495C13.2294 63.5598 14.1488 63.9567 15.107 63.9377C16.0651 63.9187 16.9681 63.4857 17.5827 62.7505C19.9396 59.8941 22.6129 57.3142 25.5513 55.0604C25.5898 54.8206 25.6302 54.581 25.6726 54.3419C25.6366 54.589 25.6044 54.8368 25.5761 55.0852C24.8765 66.1496 26.4306 72.4713 26.4306 72.4713C26.4306 72.4713 30.1827 46.9432 56.559 47.5004C83.3997 48.0391 86.6751 72.4403 86.6751 72.4403C86.6751 72.4403 89.0094 63.0414 86.607 50.8315C86.607 50.8285 86.607 50.8255 86.6069 50.8225Z" fill="black" fill-opacity="0.1"/>
<path fill-rule="evenodd" clip-rule="evenodd" d="M62.2655 26.101C61.4198 27.6538 60.7936 29.0369 60.3536 30.1047C60.5623 26.2318 60.6066 22.2962 60.5623 18.6363C62.6009 14.0319 65.3286 9.26608 68.8123 5.92983C69.5556 5.21297 70.7022 5.12218 71.549 5.71313C72.0203 6.04618 72.3374 6.55532 72.4283 7.12525C72.5192 7.69517 72.3763 8.27767 72.032 8.74083C69.1606 12.6067 64.7386 19.2053 62.2655 26.101ZM61.6424 34.3247C61.6682 34.3275 61.694 34.3291 61.7199 34.3293C62.9983 34.5076 64.2684 34.7395 65.5269 35.0242C65.6286 35.0474 65.731 35.0709 65.834 35.0948C66.1278 35.1634 66.4209 35.2348 66.7133 35.3092L66.7353 35.3143C66.7448 35.3164 66.7543 35.3185 66.7639 35.3204C68.5346 35.7671 70.2721 36.3365 71.9638 37.0243C72.0162 37.0478 72.0701 37.0673 72.1252 37.0825C72.7854 37.3603 73.3659 37.623 73.908 37.8911L73.9885 37.9282C74.0112 37.939 74.0338 37.9498 74.0565 37.9607C74.0699 37.9672 74.0833 37.9736 74.0966 37.9801C74.4141 38.138 74.7269 38.3003 75.0349 38.4669C75.0485 38.4741 75.0624 38.481 75.0762 38.4876C75.2063 38.5534 75.3309 38.6246 75.4556 38.6958L75.4559 38.696L75.654 38.8136L76.0503 39.0365L76.527 39.3399C78.5452 40.5821 80.3424 42.1507 81.8457 43.9816C81.8841 44.0542 81.9296 44.1233 81.9819 44.188C82.2357 44.5038 82.4772 44.8381 82.7125 45.1787C83.8923 46.8973 84.7697 48.805 85.3068 50.8192L85.3935 51.1536C85.4075 51.2049 85.4249 51.2551 85.4453 51.3038C86.3966 56.2998 86.6771 61.4008 86.2789 66.4716C83.3688 58.9179 75.7531 46.6337 56.559 46.225H55.717C37.2907 46.225 29.7121 58.7755 26.8702 66.4159C26.5851 62.6511 26.5706 58.8707 26.8268 55.1038C26.8476 54.9122 26.8712 54.7209 26.8976 54.5301C27.0514 53.6544 27.2333 52.784 27.443 51.9201C27.4931 51.7423 27.5457 51.5652 27.6008 51.3888L27.7618 50.8068C28.4156 48.3512 29.5709 46.0576 31.1548 44.0703C32.3763 42.5616 33.8004 41.2295 35.3864 40.1114C35.4389 40.0851 35.4897 40.0549 35.5385 40.0209C37.7049 38.5381 40.0573 37.3473 42.535 36.4793L42.55 36.4738L42.5678 36.467H42.5721C44.1804 35.8928 45.8221 35.4172 47.4883 35.0429C47.9836 34.9315 48.4728 34.8324 48.9495 34.7395C50.0269 34.529 51.129 34.3557 52.2311 34.2133C53.0804 34.1086 53.8914 34.0312 54.5769 33.9811C54.6039 33.9809 54.6311 33.9799 54.6582 33.978C55.8223 33.8913 56.5095 33.8913 56.5157 33.8913C56.5219 33.8913 57.4197 33.8975 58.8809 34.0151C59.7044 34.0832 60.6332 34.1885 61.6424 34.3247ZM88.3713 54.2433C89.7716 64.7717 87.9221 72.4304 87.833 72.7871C87.6872 73.3615 87.1549 73.7521 86.5633 73.7189C85.9716 73.6857 85.4864 73.2379 85.4058 72.6508C85.2758 71.6973 81.9323 49.2898 56.4847 48.7512C31.5201 48.2187 27.7556 71.6602 27.607 72.6694C27.5219 73.2552 27.0341 73.6988 26.4429 73.7282L26.4058 73.6848C25.8367 73.6844 25.3412 73.2962 25.2046 72.7437L25.2016 72.7307C25.1129 72.3528 23.8677 67.0449 24.1772 57.7785C22.1393 59.539 20.2502 61.4669 18.53 63.543C17.6876 64.5516 16.4508 65.1475 15.137 65.1776H15.038C13.3162 65.1759 11.742 64.2052 10.9672 62.6676C10.1925 61.13 10.3493 59.2872 11.3725 57.9024C12.9766 55.7273 15.5066 52.6296 18.773 49.6093C14.2883 52.4612 10.4369 55.8322 7.92378 58.2182C7.05893 59.0468 5.90804 59.5102 4.71032 59.5122C4.52457 59.5122 4.33882 59.5122 4.15307 59.4812C2.41758 59.2723 0.946431 58.1066 0.346434 56.4647C-0.253563 54.8229 0.119257 52.9832 1.31112 51.7046C5.2482 47.4551 9.76514 43.7823 14.7284 40.7949C15.1883 40.5292 15.6461 40.2762 16.1015 40.0357C12.7984 40.3437 9.98217 40.7387 8.18383 41.0178C7.93212 41.0594 7.67739 41.0801 7.42226 41.0797C4.89443 41.0925 2.77329 39.177 2.52908 36.6609C2.28486 34.1449 3.99803 31.8572 6.48113 31.3836C10.6996 30.5499 17.0191 29.677 23.9978 29.9808C19.8463 28.4998 15.7814 27.4235 13.261 26.8142C10.719 26.1591 9.14018 23.6226 9.6747 21.0526C10.2092 18.4826 12.6685 16.7859 15.2609 17.1986C18.7657 17.816 24.1618 19.1464 30.5217 22.0089C28.0261 19.6516 25.5616 17.6743 23.6567 16.2451C22.2189 15.1391 21.4803 13.35 21.7192 11.5517C21.9582 9.75353 23.1383 8.21938 24.8151 7.52719C26.4918 6.835 28.4105 7.08993 29.8483 8.19596C32.9706 10.6518 37.4308 14.5122 41.5046 19.3359C40.163 16.6267 38.5451 13.647 36.6778 10.4622C36.0066 9.31746 35.8299 7.94896 36.1885 6.67134C36.547 5.39372 37.4098 4.31692 38.5786 3.68853C40.8558 2.47199 43.6865 3.24006 45.0365 5.44076C46.5997 7.99145 48.6322 11.5223 50.5162 15.4672C50.3922 11.9774 50.2531 8.67528 50.1383 6.11559C50.0704 4.75953 50.5622 3.43505 51.4985 2.45184C52.4349 1.46864 53.7339 0.912917 55.0916 0.914616C57.7058 0.927985 59.8666 2.95644 60.0449 5.56453C60.1768 7.55696 60.3254 10.1935 60.4321 13.2113C62.2522 9.8687 64.4555 6.66577 67.0786 4.15287C68.6785 2.61949 71.1389 2.43023 72.9545 3.70089C73.9724 4.41708 74.6576 5.5142 74.8547 6.74309C75.0517 7.97197 74.7438 9.22834 74.0009 10.2269C72.8309 11.8052 71.3938 13.8512 69.9461 16.1819C73.5529 12.9037 78.2692 10.0688 84.3533 8.79662C86.8121 8.22163 89.294 9.65836 90.0199 12.0769C90.7458 14.4955 89.4652 17.0614 87.0962 17.9355L87.0687 17.9455C87.7185 18.1558 88.3184 18.514 88.8174 19.0004C89.7177 19.8701 90.227 21.0675 90.2291 22.3192C90.2197 24.6396 88.4862 26.5891 86.1864 26.8724C90.5467 26.9867 95.4359 28.0125 100.662 30.5973C102.683 31.6028 103.698 33.9071 103.077 36.0769C102.503 38.0905 100.663 39.4786 98.5692 39.4761L98.594 39.4947C97.9326 39.4947 97.2786 39.3555 96.6746 39.086C95.76 38.681 94.6662 38.2446 93.4363 37.8448C97.3044 39.3756 101.394 41.7267 105.337 45.2962C106.591 46.4295 107.092 48.1778 106.628 49.8035C106.164 51.4293 104.815 52.6494 103.151 52.9491C102.886 53.0026 102.617 53.0337 102.346 53.042C101.326 53.0415 100.338 52.6894 99.5475 52.0451C99.129 51.7019 98.6474 51.3237 98.1072 50.9248C103.067 56.6925 106.21 63.8817 107.739 67.9762C108.48 69.9673 107.773 72.2071 106.024 73.4125C105.251 73.9467 104.332 74.2318 103.393 74.2298C102.961 74.2314 102.531 74.1709 102.117 74.0502C100.779 73.6709 99.6819 72.7121 99.1265 71.4374C97.2706 67.1586 93.5897 59.7936 88.3713 54.2433ZM84.5482 42.373C92.1417 43.5753 98.1308 47.6833 101.114 50.1257C101.557 50.4877 102.136 50.6371 102.698 50.5347C103.261 50.4322 103.75 50.088 104.036 49.5932C104.5 48.7914 104.34 47.7744 103.653 47.1537C96.7814 40.8963 87.7755 37.5066 78.4836 37.6805C80.3871 38.9416 82.0987 40.4708 83.5652 42.2208C83.8964 42.263 84.224 42.3138 84.5482 42.373ZM85.0839 33.9594C82.5476 33.9379 80.0322 34.3537 77.6467 35.1835C76.174 35.2517 75.1091 35.3964 74.5778 35.4817C74.0283 35.2286 73.4689 34.9835 72.9049 34.7519C71.9267 34.3474 70.9133 33.978 69.8648 33.6436C74.2981 30.9131 85.4678 25.8608 99.5847 32.8449C100.54 33.3185 101.018 34.4097 100.718 35.433C100.544 36.0455 100.112 36.5519 99.5351 36.82C98.9453 37.0894 98.2675 37.0894 97.6777 36.82C93.7195 35.0154 89.4332 34.0418 85.0839 33.9594ZM69.9531 30.7515C71.5904 29.8797 73.7202 28.926 76.2563 28.1811C79.4664 25.6395 83.2739 24.7451 85.864 24.4366C86.9212 24.3003 87.7148 23.4035 87.7215 22.3377C87.7328 21.7629 87.5092 21.2084 87.1023 20.8022C86.7016 20.4151 86.1608 20.2073 85.604 20.2263C83.5821 20.3009 81.7534 20.6409 80.104 21.1686C74.8054 24.2446 71.7321 27.772 69.9531 30.7515ZM86.2665 15.595C83.5285 16.5939 81.1443 17.7145 79.0681 18.9052C70.3593 21.8801 66.1435 29.5886 64.8807 32.3507C64.3225 32.2395 63.7611 32.1376 63.1983 32.0446C63.6832 29.2341 64.6952 26.3393 65.9568 23.5583C69.9517 18.5256 76.1296 13.0459 84.8795 11.2113C86.0899 10.9174 87.3196 11.6178 87.6844 12.8087C88.0109 13.9652 87.3935 15.1783 86.2665 15.595ZM35.5169 27.3253C26.8177 22.3849 19.2545 20.4187 14.8274 19.6319C14.6986 19.6104 14.568 19.6001 14.4374 19.601H14.4188C13.3209 19.6186 12.3658 20.3571 12.0722 21.4151C11.9018 22.0469 11.9937 22.7207 12.3271 23.2837C12.6605 23.8467 13.2071 24.2513 13.843 24.4057C21.0191 26.1393 33.4952 29.8172 38.6962 35.3525C39.184 35.1231 39.6904 34.9022 40.2109 34.6879C39.0672 32.1162 37.4041 29.6308 35.5169 27.3253ZM45.699 29.9386C45.967 31.0792 46.0887 32.048 46.0558 32.8246C44.8512 33.1378 43.6674 33.4753 42.5412 33.8541C38.8634 25.4273 30.1455 18.0407 25.1427 14.2824C24.5448 13.8426 24.1675 13.1648 24.1087 12.4249C24.0315 11.6977 24.2731 10.9727 24.7712 10.4374C25.2632 9.89792 25.9605 9.59198 26.6906 9.59529C27.263 9.60222 27.8167 9.80057 28.2633 10.1587C32.1472 13.2116 40.8782 20.7192 45.699 29.9386ZM49.4885 32.1104C49.9523 32.0298 50.3994 31.9585 50.8272 31.8956C50.8639 29.2623 50.8161 25.8618 50.7261 22.2849C48.2819 15.8514 44.7786 9.7826 42.9066 6.73478C42.4701 6.02151 41.6934 5.58738 40.8571 5.58933C39.9984 5.59343 39.2071 6.05564 38.7817 6.80167C38.3563 7.54771 38.3615 8.46408 38.7953 9.20524C42.4522 15.4265 46.4975 23.1022 47.9609 28.7963C48.5225 29.8776 49.0354 30.9832 49.4885 32.1104ZM31.8415 33.3857C33.6229 34.3557 35.1971 35.4129 36.3937 36.5497C35.7477 36.9187 35.1153 37.3112 34.4978 37.7266C25.32 36.2998 13.8911 37.6579 7.81852 38.6031C6.89448 38.7557 5.96556 38.3602 5.43509 37.5884C4.90462 36.8165 4.86828 35.8076 5.34187 34.9996C5.68368 34.3944 6.27495 33.9708 6.95788 33.8418C11.5831 32.9088 16.2884 32.4298 21.0067 32.4115L21.0005 32.362C24.6469 32.3209 28.2805 32.6655 31.8415 33.3857ZM53.3332 4.16528C53.7989 3.6734 54.4455 3.3939 55.1222 3.39133H55.0978C56.441 3.36907 57.5631 4.4093 57.6426 5.75034C58.2422 14.3111 58.3146 22.9007 57.8593 31.4704C57.0482 31.4208 56.5776 31.4208 56.5466 31.4208C56.5157 31.4208 55.7727 31.427 54.5344 31.5137C54.1629 31.5385 53.7604 31.5694 53.3394 31.6128C53.4137 24.5977 52.9431 12.7531 52.6459 6.02277C52.6067 5.33497 52.8557 4.66191 53.3332 4.16528ZM31.7235 39.8423C29.3275 39.6055 26.8109 39.5351 24.3291 39.5717C14.8104 41.6993 6.14949 50.1471 3.11907 53.3824C2.57712 53.9355 2.37136 54.7356 2.57931 55.4814C2.78726 56.2273 3.37732 56.8056 4.12722 56.9984C4.87712 57.1912 5.67293 56.9694 6.21489 56.4163C10.8338 52.0017 19.9355 44.3489 29.4707 42.1756C30.1656 41.3453 30.9185 40.5656 31.7235 39.8423ZM24.3825 54.3778C24.5402 53.1641 24.8021 51.9658 25.1657 50.7963C25.2204 50.5826 25.2767 50.3694 25.3346 50.1567C25.658 48.9531 26.0869 47.7804 26.6163 46.6522L26.6411 46.6027C20.499 50.491 15.8243 56.0449 13.3662 59.3636C12.7786 60.1634 12.8356 61.2663 13.5024 62.0013C13.9092 62.4407 14.4825 62.6881 15.0813 62.6823C15.6831 62.6741 16.2511 62.4026 16.6354 61.9394C18.9406 59.1496 21.5378 56.6147 24.3825 54.3778ZM87.6906 50.1443C94.5013 56.1007 99.1946 65.3943 101.399 70.4467C101.658 71.0402 102.169 71.4871 102.792 71.6655C103.414 71.844 104.084 71.7353 104.618 71.3692C105.203 70.9638 105.552 70.2977 105.553 69.586C105.554 69.3301 105.508 69.0761 105.417 68.8369C99.1141 51.9337 90.7802 46.7451 85.6535 45.1972C86.538 46.7532 87.2205 48.4157 87.6844 50.1443H87.6906Z" fill="#1E1E1E"/>
<path fill-rule="evenodd" clip-rule="evenodd" d="M74.4962 36.8137L74.4343 36.7827C73.7718 36.4546 73.1031 36.1636 72.4344 35.8787C70.674 35.163 68.8658 34.5713 67.0229 34.1079C66.5523 33.9841 66.0818 33.8789 65.6236 33.7798C64.2552 33.4702 62.9674 33.2535 61.8095 33.0863C60.6517 32.9191 59.7787 32.8325 58.98 32.7706C57.4444 32.6405 56.5033 32.6405 56.5033 32.6405C56.5033 32.6405 55.7913 32.6405 54.5715 32.7272C53.8781 32.7767 53.0236 32.8572 52.033 32.9811C51.0423 33.1049 49.8845 33.2783 48.6647 33.5197C48.1756 33.6126 47.674 33.7117 47.1601 33.8293C45.4474 34.2138 43.76 34.7038 42.1078 35.2967L41.8353 35.3958C40.7069 35.8045 39.603 36.2779 38.529 36.8137C40.2193 31.0988 47.6245 26.8018 56.4847 26.8018C65.345 26.8018 72.8059 31.0988 74.4962 36.8137Z" fill="#076A29"/>
<path fill-rule="evenodd" clip-rule="evenodd" d="M74.4962 36.8137L74.4343 36.7827C73.7718 36.4546 73.1031 36.1636 72.4344 35.8787C70.674 35.163 68.8658 34.5713 67.0229 34.1079C66.5523 33.9841 66.0818 33.8789 65.6236 33.7798C64.2552 33.4702 62.9674 33.2535 61.8095 33.0863C60.6517 32.9191 59.7787 32.8325 58.98 32.7706C57.4444 32.6405 56.5033 32.6405 56.5033 32.6405C56.5033 32.6405 55.7913 32.6405 54.5715 32.7272C53.8781 32.7767 53.0236 32.8572 52.033 32.9811C51.0423 33.1049 49.8845 33.2783 48.6647 33.5197C48.1756 33.6126 47.674 33.7117 47.1601 33.8293C45.4474 34.2138 43.76 34.7038 42.1078 35.2967L41.8353 35.3958C40.7069 35.8045 39.603 36.2779 38.529 36.8137C40.2193 31.0988 47.6245 26.8018 56.4847 26.8018C65.345 26.8018 72.8059 31.0988 74.4962 36.8137Z" fill="white" fill-opacity="0.16"/>
<path fill-rule="evenodd" clip-rule="evenodd" d="M54.4786 12.0347C54.1822 12.0325 53.929 11.8205 53.8746 11.5291C53.8203 11.2377 53.9801 10.9487 54.2557 10.8398C54.9298 10.6453 55.6397 10.6092 56.3299 10.7345C56.4935 10.7546 56.6424 10.8391 56.7435 10.9692C56.8446 11.0994 56.8896 11.2645 56.8686 11.428C56.8485 11.5916 56.764 11.7404 56.6339 11.8415C56.5037 11.9426 56.3386 11.9876 56.1751 11.9666C55.6784 11.8771 55.1685 11.8897 54.6768 12.0038C54.613 12.0256 54.546 12.0361 54.4786 12.0347ZM80.1368 17.1985C79.8986 17.1979 79.6819 17.0606 79.5795 16.8456C79.3806 16.3797 79.0901 15.9586 78.7251 15.6073C78.4705 15.3952 78.4281 15.0203 78.6287 14.7567C78.8293 14.493 79.202 14.434 79.4743 14.6228C80.0063 15.0835 80.4292 15.6566 80.7126 16.3008C80.7847 16.4493 80.7946 16.6204 80.7399 16.7762C80.6853 16.932 80.5707 17.0595 80.4216 17.1304C80.3335 17.1756 80.2358 17.1989 80.1368 17.1985ZM35.219 21.8173C35.3234 22.0248 35.5352 22.1564 35.7675 22.1581C35.9591 22.1528 36.1375 22.0591 36.2505 21.9043C36.5996 21.5383 37.0214 21.2494 37.4888 21.056C37.6379 20.9851 37.7525 20.8576 37.8071 20.7018C37.8618 20.546 37.852 20.3748 37.7798 20.2263C37.6321 19.9193 37.2641 19.7892 36.9563 19.9353C36.3089 20.2161 35.7332 20.6394 35.2722 21.1736C35.1351 21.3612 35.1146 21.6097 35.219 21.8173ZM23.44 24.2199H23.3224C22.9908 24.1572 22.7705 23.8405 22.827 23.5079C23.0949 22.4253 23.6562 21.4376 24.4492 20.6535C24.6886 20.4073 25.0822 20.4018 25.3284 20.6411C25.5747 20.8805 25.5802 21.2742 25.3408 21.5204C24.7201 22.1261 24.2732 22.8873 24.0468 23.7246C23.9879 24.0129 23.7343 24.22 23.44 24.2199ZM38.5352 38.052C38.2451 38.0508 37.9646 37.9478 37.7427 37.761C37.3633 37.4453 37.2076 36.9344 37.3464 36.4607C39.2039 30.1453 47.253 25.5634 56.5405 25.5634C65.8279 25.5634 73.8337 30.1453 75.7345 36.4607C75.8833 36.9609 75.7026 37.5008 75.2825 37.8105C74.9042 38.0895 74.4005 38.1303 73.9823 37.9158H73.9328C73.3569 37.6247 72.7254 37.3399 72.0072 37.0427C70.3037 36.3482 68.5533 35.7751 66.769 35.3276C66.3047 35.21 65.8527 35.1047 65.4131 35.0057C64.2119 34.7394 62.9364 34.5104 61.6981 34.3308C60.6889 34.1946 59.7601 34.0893 58.9366 34.0212C57.4754 33.9036 56.5776 33.8974 56.5714 33.8974C56.5652 33.8974 55.878 33.8974 54.7139 33.9841C54.0019 34.0336 53.1413 34.1141 52.2373 34.2255C51.1352 34.3679 50.0331 34.5413 48.9557 34.7518C48.479 34.8447 47.9898 34.9438 47.4945 35.0552C45.8283 35.4295 44.1866 35.9051 42.5783 36.4793H42.5164L42.3183 36.5474C41.2318 36.9415 40.1692 37.3983 39.1358 37.9158C38.9503 38.011 38.7437 38.0579 38.5352 38.052ZM56.5088 31.4022C56.6511 31.4027 57.5862 31.4107 59.0543 31.5384C59.9273 31.6065 60.9117 31.7179 61.9581 31.8603C63.3017 32.0523 64.6143 32.2875 65.8712 32.5724C66.3356 32.6714 66.8186 32.7829 67.3077 32.9129C68.8379 33.2946 70.345 33.7639 71.8214 34.3184C68.9856 30.5539 63.1036 28.0401 56.4909 28.0401C49.8783 28.0401 43.9962 30.5539 41.1666 34.3122L41.3895 34.2317L41.6558 34.1326H41.7301C43.4139 33.535 45.1321 33.0388 46.8753 32.6467C47.4016 32.529 47.9217 32.4238 48.4232 32.3247C49.5439 32.108 50.7079 31.9222 51.8596 31.7736C52.8379 31.656 53.7171 31.5693 54.4786 31.5198C55.6689 31.4127 56.4244 31.4028 56.5088 31.4022ZM50.8999 48.1257C51.0167 48.2735 51.1944 48.3601 51.3828 48.361L51.3952 48.3177C51.6332 48.319 51.8508 48.1838 51.9551 47.9699C52.0594 47.756 52.0319 47.5013 51.8844 47.3146C51.2698 46.3881 50.8914 45.3252 50.7822 44.2188C50.7292 43.8769 50.4091 43.6426 50.0671 43.6956C49.7252 43.7486 49.4909 44.0688 49.5439 44.4108C49.6763 45.7434 50.1427 47.0211 50.8999 48.1257ZM55.3331 48.0329C55.204 48.032 55.0785 47.9909 54.974 47.9152C54.6982 47.7162 54.6346 47.3319 54.8316 47.0546C55.395 46.2683 55.5931 43.0734 55.5808 41.2407C55.5808 40.8987 55.858 40.6215 56.1999 40.6215C56.5419 40.6215 56.8191 40.8987 56.8191 41.2407C56.8191 42.0951 56.8191 46.4478 55.8408 47.779C55.7226 47.9408 55.5334 48.0354 55.3331 48.0329ZM60.3235 48.2558C60.426 48.3247 60.5468 48.3613 60.6703 48.3611C60.8806 48.3655 61.0788 48.2629 61.1966 48.0886C61.919 47.1832 62.366 46.0893 62.4844 44.9371C62.5143 44.7159 62.4239 44.4955 62.2472 44.3591C62.0706 44.2226 61.8346 44.1908 61.6281 44.2755C61.4216 44.3602 61.276 44.5487 61.2461 44.7699C61.1547 45.7334 60.7774 46.6477 60.1626 47.3952C59.9694 47.6773 60.0415 48.0626 60.3235 48.2558ZM13.2981 36.8693C13.0977 36.867 12.9108 36.7678 12.7966 36.6031C12.4415 35.9964 12.2297 35.3166 12.1774 34.6156C12.1509 34.3944 12.2444 34.1758 12.4227 34.0422C12.601 33.9086 12.837 33.8803 13.0418 33.9679C13.2467 34.0555 13.3892 34.2458 13.4158 34.467C13.4533 34.9685 13.5924 35.4572 13.8244 35.9034C14.0109 36.1876 13.9335 36.5689 13.651 36.7579C13.5475 36.8301 13.4244 36.869 13.2981 36.8693ZM8.30147 49.8222C8.40599 49.8979 8.53154 49.939 8.66058 49.9399V49.9523C8.92823 49.9549 9.16731 49.7854 9.25322 49.5318C9.33913 49.2783 9.25242 48.9983 9.03827 48.8378C8.66611 48.4913 8.37263 48.069 8.17764 47.5994C8.0792 47.4003 7.88203 47.2689 7.6604 47.2546C7.43877 47.2403 7.22635 47.3453 7.10315 47.5301C6.97996 47.7149 6.96471 47.9514 7.06314 48.1505C7.34473 48.7939 7.76805 49.3654 8.30147 49.8222ZM22.536 54.9675C22.407 54.9667 22.2814 54.9256 22.1769 54.8499C21.6438 54.3927 21.2205 53.8213 20.9386 53.1782C20.7864 52.8704 20.9125 52.4976 21.2203 52.3454C21.5281 52.1932 21.9009 52.3193 22.0531 52.6271C22.2507 53.0952 22.5438 53.517 22.9137 53.8654C23.1279 54.026 23.2146 54.306 23.1287 54.5595C23.0428 54.813 22.8037 54.9826 22.536 54.9799V54.9675ZM26.3686 40.281C26.4684 40.5029 26.6888 40.6458 26.9321 40.6463C27.0149 40.6447 27.0968 40.6279 27.1736 40.5967C27.488 40.4632 27.6348 40.1002 27.5017 39.7856C27.3576 39.3023 27.3092 38.7954 27.3593 38.2935C27.3805 37.9536 27.1233 37.6603 26.7835 37.6371C26.6192 37.627 26.4576 37.6827 26.3345 37.7919C26.2113 37.9011 26.1367 38.0548 26.1272 38.2192C26.0519 38.9158 26.1344 39.6205 26.3686 40.281ZM62.0015 18.7896L62.0139 18.7898H61.9892L62.0015 18.7896ZM62.5859 18.3238C62.5172 18.5931 62.2778 18.7828 62.0015 18.7896C61.9042 18.7872 61.8087 18.7618 61.7228 18.7155C61.2917 18.452 60.8114 18.2793 60.3112 18.2078C59.9692 18.2078 59.692 17.9306 59.692 17.5886C59.692 17.2467 59.9692 16.9695 60.3112 16.9695C61.0089 17.0354 61.6823 17.2599 62.2801 17.6258C62.5301 17.7607 62.6562 18.0485 62.5859 18.3238ZM48.2932 20.7216C48.4106 20.8552 48.5797 20.9319 48.7576 20.9321C48.8972 20.9313 49.0325 20.8833 49.1415 20.7959C49.552 20.4968 50.02 20.286 50.516 20.1767C50.7364 20.1254 50.9112 19.9579 50.9719 19.74C51.0327 19.522 50.9697 19.2883 50.8077 19.1303C50.6457 18.9724 50.4104 18.9154 50.194 18.9818C49.5174 19.1336 48.8829 19.4339 48.3365 19.861C48.0921 20.0891 48.0729 20.4701 48.2932 20.7216ZM76.6199 25.9535C76.3952 25.9519 76.1891 25.8287 76.0812 25.6316C75.8534 25.1812 75.54 24.7796 75.1587 24.449C74.8961 24.2514 74.8335 23.8831 75.0162 23.61C75.1988 23.3368 75.5631 23.2539 75.846 23.4212C76.398 23.8533 76.8464 24.4033 77.1586 25.031C77.2383 25.1746 77.2576 25.3441 77.2124 25.502C77.1671 25.66 77.0609 25.7934 76.9171 25.873C76.8271 25.9261 76.7244 25.9539 76.6199 25.9535ZM88.4132 33.3161C88.5345 33.4653 88.7182 33.5496 88.9103 33.5445C89.1897 33.5351 89.4282 33.3398 89.4923 33.0677C89.6907 32.3946 89.731 31.6847 89.61 30.9935C89.5248 30.6705 89.1988 30.4732 88.8732 30.5477C88.5426 30.6245 88.3355 30.9532 88.4088 31.2845C88.4698 31.7868 88.4298 32.2963 88.2911 32.7829C88.2469 32.9699 88.292 33.167 88.4132 33.3161ZM96.0802 45.8101C95.9765 45.8106 95.8743 45.785 95.783 45.7358C95.6382 45.6572 95.5307 45.5242 95.4842 45.3662C95.4377 45.2082 95.4561 45.0381 95.5353 44.8937C95.7988 44.4626 95.9716 43.9822 96.0431 43.482C96.0431 43.1401 96.3203 42.8629 96.6622 42.8629C97.0042 42.8629 97.2814 43.1401 97.2814 43.482C97.2168 44.182 96.9923 44.8577 96.6251 45.4571C96.5246 45.6682 96.3139 45.8047 96.0802 45.8101ZM97.433 60.9287C97.5166 61.1783 97.7489 61.3477 98.012 61.3511C98.1481 61.3524 98.2808 61.3089 98.3897 61.2272C98.9695 60.8329 99.4522 60.3121 99.8014 59.7041C99.9388 59.3983 99.8079 59.0387 99.5061 58.8928C99.2042 58.7469 98.8411 58.8678 98.6869 59.1654C98.4097 59.5878 98.0546 59.9534 97.6405 60.2428C97.4326 60.4041 97.3493 60.6792 97.433 60.9287Z" fill="#1E1E1E"/>
</svg>
