<svg width="75" height="71" viewBox="0 0 75 71" fill="none" xmlns="http://www.w3.org/2000/svg">
<path fill-rule="evenodd" clip-rule="evenodd" d="M42.8685 26.18C44.7403 30.0293 48.4442 32.4781 54.0244 32.826C56.8654 33.0213 59.0408 35.4324 58.9439 38.2785V38.3357C60.0018 37.9819 61.1556 38.0513 62.1634 38.5295C64.4713 39.6262 65.4578 43.2905 63.2733 46.6421C61.5997 49.1966 58.7722 49.6458 56.6229 49.1481V49.1481C56.482 49.5357 56.3366 49.9277 56.1825 50.3064L55.9094 50.9891C54.5235 54.5304 52.4824 57.7787 49.8932 60.5639V60.5639V69.5529C59.5209 65.8578 60.8201 57.9478 61.7847 56.0496C63.0311 53.548 73.4163 52.6979 73.4163 39.5557C73.4163 28.871 66.9949 25.6207 63.6565 22.4937C60.3181 19.3667 60.4017 8.92865 51.1044 3.6832C41.1068 -1.96302 31.6993 2.36193 28.427 4.32182C27.7595 4.72786 27.0043 4.968 26.2249 5.02209C22.7587 5.25552 12.6731 6.95996 10.9642 18.8602C10.6502 21.0422 9.55468 23.0361 7.88124 24.4712C5.00087 26.9244 0.076939 31.518 0.99302 39.9829C2.0104 49.3815 7.78435 53.7682 11.409 55.3977C12.9417 56.0936 14.7254 56.97 15.1879 58.5908C16.5532 63.343 17.6851 67.8793 25.2075 69.5397L25.137 60.5507C25.1583 60.5763 25.1819 60.5999 25.2075 60.6212L25.1414 60.5507C22.5508 57.7641 20.5083 54.5143 19.1209 50.9715L18.8478 50.2888C18.7024 49.9101 18.5571 49.5181 18.4074 49.1305V49.1305C16.2581 49.6282 13.4306 49.179 11.757 46.6245C9.55485 43.2729 10.559 39.6086 12.8668 38.5119C13.8761 38.0334 15.0314 37.964 16.0907 38.3181V38.3181C16.014 36.3732 17.1691 34.5903 18.9755 33.8654C25.071 31.4519 26.7446 27.8316 27.0309 24.4976C27.6563 17.2791 32.4128 17.3187 32.4128 17.3187C32.4128 17.3187 38.3233 16.8475 42.8685 26.18Z" fill="black"/>
<path fill-rule="evenodd" clip-rule="evenodd" d="M25.0049 70.4426C25.0679 70.4491 25.1314 70.4491 25.1943 70.4426V70.4382C25.6808 70.4382 26.0752 70.0439 26.0752 69.5574L26.0091 60.9691C26.1398 60.641 26.0617 60.2665 25.8109 60.0178L25.7669 59.965C23.2557 57.2585 21.2748 54.1048 19.9269 50.6676L19.8694 50.5255C19.7975 50.348 19.7279 50.1758 19.6582 49.9982L19.6136 49.8803C19.4912 49.5568 19.3664 49.2269 19.2486 48.8971C19.1956 48.7245 19.0929 48.5714 18.9535 48.4567C18.7426 48.2894 18.4668 48.2278 18.2048 48.2893C16.377 48.7077 13.9239 48.3598 12.4793 46.1577C11.5248 44.7903 11.204 43.0786 11.5984 41.4584C11.8185 40.5431 12.4196 39.7656 13.25 39.3223C14.0591 38.9415 14.9843 38.8894 15.8309 39.177C16.1054 39.2636 16.405 39.2107 16.6332 39.0352C16.8614 38.8596 16.9894 38.5837 16.976 38.2961C16.9145 36.725 17.8471 35.2847 19.3059 34.6979C24.6922 32.5442 27.511 29.2366 27.9117 24.5681C28.4491 18.3141 32.2587 18.1952 32.4129 18.1952H32.5318L32.5486 18.195C32.9372 18.1896 38.0211 18.1189 42.133 26.5632C44.2338 30.8794 48.343 33.3458 54.0244 33.6981C56.3821 33.8846 58.1816 35.8834 58.1204 38.2477V38.3049C58.107 38.5925 58.235 38.8685 58.4632 39.044C58.6914 39.2195 58.991 39.2724 59.2655 39.1858C60.1106 38.898 61.0345 38.9501 61.842 39.3311C62.6735 39.7731 63.2751 40.5511 63.4936 41.4672C63.8857 43.0875 63.5651 44.7982 62.6127 46.1665C61.1549 48.3774 58.7017 48.7386 56.8872 48.2981C56.6259 48.2392 56.352 48.3025 56.1429 48.4699C56.0093 48.5735 55.9096 48.7146 55.8566 48.8751C55.7421 49.1486 55.6368 49.4221 55.5341 49.6889C55.4945 49.7916 55.4554 49.8934 55.4162 49.9938C55.3237 50.2316 55.24 50.443 55.1475 50.672C53.8012 54.096 51.8298 57.2398 49.3339 59.9429C49.1593 60.1094 49.0606 60.3403 49.0609 60.5815V69.5706C49.0624 69.8596 49.2055 70.1296 49.444 70.2929C49.6831 70.4574 49.9879 70.4937 50.2588 70.3898C58.7766 67.1086 61.058 60.7005 62.1503 57.6175C62.3176 57.1198 62.4674 56.6926 62.5907 56.446C62.8041 56.0191 63.7843 55.4759 64.8284 54.8974L64.8633 54.8781C68.3999 52.927 74.3148 49.6634 74.3148 39.5601C74.3148 30.165 69.5265 26.227 66.0299 23.3513L66.026 23.3481C65.3742 22.8284 64.7752 22.3308 64.2643 21.8551C63.2433 20.8957 62.5169 18.96 61.6765 16.7204L61.6765 16.7204L61.6765 16.7204L61.6765 16.7203L61.6764 16.7203L61.6764 16.7202L61.6746 16.7154L61.6728 16.7105C60.0566 12.3903 57.8449 6.47858 51.5449 2.9213C40.7501 -3.16535 30.7833 1.8819 27.9778 3.56872C27.9391 3.5923 27.9001 3.6152 27.8608 3.63742L27.2335 0.763242C27.2073 0.602097 27.0942 0.468637 26.9395 0.416466C26.7848 0.364295 26.6139 0.401972 26.4955 0.514365C26.3771 0.626757 26.3306 0.795425 26.3747 0.952625L26.9472 3.59517C24.6596 2.16079 21.6661 2.31181 21.1652 2.33709L21.1652 2.33709C21.1309 2.33882 21.1083 2.33996 21.0984 2.33996C20.8552 2.36063 20.6747 2.57458 20.6954 2.81782C20.7161 3.06106 20.93 3.24148 21.1733 3.22081C21.2173 3.21714 23.9867 2.99935 26.1447 4.14787C22.8037 4.38129 11.9142 6.11943 10.101 18.7369C9.82053 20.7097 8.82721 22.5115 7.30872 23.8018L7.27585 23.83C4.80469 25.955 -0.8831 30.8458 0.116607 40.0975C1.26611 50.7117 8.14112 54.9133 11.0435 56.2346C12.5233 56.9128 13.9944 57.6703 14.3423 58.8771L14.4348 59.203C15.756 63.8759 17.1434 68.7074 25.0049 70.4426ZM28.8763 5.08379C32.4275 2.96678 36.4738 1.82292 40.6078 1.76742C44.1356 1.78955 47.5963 2.73393 50.6464 4.50683C56.389 7.74804 58.3887 13.0897 59.9961 17.3836L59.9966 17.3848C60.9127 19.8336 61.7054 21.952 63.0267 23.194C63.5816 23.7093 64.2026 24.2202 64.8633 24.7619C68.2722 27.563 72.509 31.0468 72.509 39.613C72.509 48.666 67.3816 51.502 63.9815 53.3827L63.9692 53.3894L63.9321 53.4099C62.5311 54.1799 61.4065 54.798 60.9699 55.7105C60.7672 56.1569 60.5893 56.6141 60.437 57.0802L60.4165 57.137C59.4408 59.8342 57.4914 65.2232 50.7477 68.2846V60.9691C53.2924 58.1526 55.3107 54.9021 56.7066 51.3723L56.9841 50.672C57.0458 50.5135 57.1074 50.3549 57.1647 50.192C59.8333 50.6108 62.5001 49.429 63.9824 47.1707C65.2278 45.3732 65.6357 43.1252 65.1011 41.0047C64.5748 38.8135 62.6364 37.2954 60.4411 37.2515C60.6789 35.781 60.4217 34.262 59.6927 32.9406C58.3935 30.6063 55.8302 29.197 54.0289 28.6993C53.6941 28.6068 53.3594 28.5231 53.0247 28.4438C50.6156 27.8669 48.3386 27.3208 46.7222 21.8023C45.216 16.6625 40.4858 13.9936 38.526 13.1127C38.3046 13.0105 38.0424 13.1072 37.9402 13.3285C37.838 13.5499 37.9347 13.8121 38.156 13.9143C40.0102 14.7643 44.4717 17.2571 45.8766 22.0489C47.6372 28.0568 50.2687 28.6897 52.8128 29.3015L52.8177 29.3027C53.1436 29.3775 53.4695 29.4568 53.7954 29.5493C55.4294 29.9985 57.7548 31.2714 58.922 33.3678C59.4866 34.3877 59.7275 35.5434 59.6307 36.6852C59.018 34.0814 56.7675 32.1454 54.0509 31.9716C49.0389 31.6457 45.4362 29.5185 43.6305 25.8057C38.9179 16.1076 32.6551 16.4379 32.3116 16.4643C31.6509 16.5216 26.7622 17.0105 26.1192 24.4492C25.7845 28.4439 23.4018 31.1833 18.632 33.0727C16.8501 33.7845 15.5703 35.3766 15.2584 37.2699C14.4526 37.1679 13.6637 37.2682 12.9459 37.5335C12.877 35.5016 13.1532 31.2351 16.6016 30.6151C18.1916 30.3288 19.3279 29.6286 19.9797 28.5319C21.094 26.6557 20.3497 24.3391 20.3144 24.2422C20.2378 24.0111 19.9884 23.8859 19.7573 23.9625C19.5262 24.0391 19.401 24.2886 19.4776 24.5197C19.478 24.5214 19.4795 24.5267 19.4821 24.5355C19.5389 24.7306 20.0904 26.6244 19.2222 28.0827C18.7069 28.9503 17.7644 29.5097 16.4431 29.7475C12.0919 30.5311 11.9795 35.9139 12.0903 37.9479C11.0121 38.6058 10.1917 39.6758 9.8764 40.9871C9.34371 43.1082 9.75313 45.356 10.9995 47.153C12.4796 49.4115 15.1453 50.5936 17.8128 50.1744L17.9978 50.6632C18.0556 50.8201 18.1134 50.9598 18.1712 51.0995C18.2059 51.1833 18.2406 51.2671 18.2753 51.3547C19.6682 54.885 21.6852 58.1358 24.2298 60.9515L24.2595 64.8377C22.7709 64.3836 21.5079 63.3536 20.7681 61.9557C20.6464 61.7441 20.3763 61.6711 20.1647 61.7927C19.9531 61.9144 19.8801 62.1845 20.0017 62.3961C20.9031 64.0685 22.453 65.2788 24.2666 65.7588L24.2871 68.4387C18.4074 66.7664 17.3344 63.0183 16.1024 58.7151L16.0996 58.7054L16.0027 58.3794C15.4037 56.2874 13.1135 55.248 11.7438 54.627C9.11447 53.4335 2.89128 49.593 1.83867 39.9037C1.06353 32.531 4.74106 28.3117 8.44502 25.1583C10.2891 23.585 11.4951 21.3923 11.8363 18.9924C13.4218 7.95535 22.4681 6.16723 26.2866 5.90738C27.2034 5.84465 28.0916 5.56217 28.8763 5.08379ZM40.6078 1.76742L40.6092 1.7674H40.6047L40.6078 1.76742ZM65.8146 48.7738C65.6125 48.7748 65.4356 48.6381 65.3856 48.4423C65.3356 48.2465 65.4253 48.0418 65.6032 47.9458C67.8053 46.7346 68.466 44.6074 68.6157 43.0395C68.6389 42.7994 68.851 42.6227 69.0914 42.6431C69.2083 42.6531 69.3165 42.7095 69.3917 42.7996C69.467 42.8898 69.5031 43.0062 69.4921 43.1231C69.3556 44.5809 68.7214 47.2499 66.0216 48.7209C65.958 48.7553 65.8869 48.7734 65.8146 48.7738ZM55.0947 21.3751H55.1387C55.3543 21.3658 55.5314 21.2017 55.5571 20.9875C55.5707 20.8712 55.5375 20.7543 55.4648 20.6626C55.3921 20.5709 55.2858 20.5119 55.1695 20.4986C55.0859 20.4898 53.0687 20.2211 52.3156 17.0985C51.4215 13.4386 49.2194 12.593 49.1269 12.5578C48.9762 12.4928 48.8018 12.517 48.6745 12.6207C48.5472 12.7243 48.4881 12.8901 48.5212 13.0509C48.5542 13.2117 48.674 13.3408 48.8318 13.3858C48.8671 13.3946 50.6948 14.0816 51.4744 17.3099C52.3817 21.0624 54.9846 21.3751 55.0947 21.3751Z" fill="#372168"/>
</svg>
