<svg width="77" height="100" viewBox="0 0 77 71" fill="none" xmlns="http://www.w3.org/2000/svg">
<path fill-rule="evenodd" clip-rule="evenodd" d="M76.1141 68.6451C75.9348 69.3834 75.9805 70.1321 75.7625 70.8071C75.5801 70.563 75.3853 70.3283 75.179 70.104C75.0032 69.9072 74.8204 69.7138 74.6306 69.524C73.7304 68.6229 72.7555 67.7997 71.7163 67.0632C71.3894 66.8277 71.0519 66.5957 70.7039 66.3601L70.5035 66.2266C69.8004 65.759 69.0341 65.3126 68.2607 64.8837C67.0128 64.1806 65.7085 63.5514 64.3938 62.9537L63.8032 62.6936L63.2513 62.4581L63.0966 62.3913H63.0685L62.601 62.1979C62.1123 61.9905 61.6272 61.7972 61.1386 61.6073C59.8765 61.1152 58.6251 60.6687 57.4087 60.261C55.4929 59.6176 53.6789 59.0763 52.0759 58.6333C50.4729 58.1904 50.2584 58.1306 47.8891 57.5541V46.0588C49.9542 43.8285 51.5798 41.2285 52.6805 38.3953L52.8985 37.8504C53.0145 37.5481 53.1305 37.2352 53.25 36.9259C54.9655 37.3231 57.2224 36.9645 58.5583 34.9256C60.316 32.2504 59.5144 29.3256 57.6724 28.4503C56.7514 28.0144 55.1062 28.2604 55.1062 28.2604C55.2534 27.1548 55.1986 26.0315 54.9445 24.9454C54.4706 22.893 53.04 21.1929 51.0986 20.3754C50.3428 20.0626 49.3409 19.3208 48.3426 17.6616C46.3212 14.2974 41.4313 13.9985 41.4313 13.9985C40.0252 13.8404 38.8229 12.9158 37.9441 11.8682C36.0669 11.7803 33.0823 13.3552 32.098 15.7351C30.9063 18.6318 26.9409 16.3011 25.243 18.5474C23.1654 21.3 26.5261 23.4338 24.3536 27.9687C24.0794 28.5417 23.6997 29.178 23.3271 29.8599C22.1362 32.0119 21.9213 34.5702 22.7365 36.8907C22.7365 36.8907 22.7365 36.8907 22.7365 36.9118C22.849 37.2212 22.965 37.534 23.0881 37.8363L23.306 38.3812C23.4198 38.7247 23.5633 39.0576 23.7349 39.3761C24.8047 41.826 26.2849 44.0753 28.1116 46.0272V49.8519V57.5225C27.0569 57.7756 25.6508 58.1342 23.9669 58.5771C22.3569 59.0235 20.5324 59.5649 18.606 60.2117C17.6111 60.5457 16.5916 60.9148 15.5652 61.2945C15.3367 61.3788 15.1046 61.4667 14.8621 61.5581L14.0641 61.8745L13.252 62.205C12.3416 62.5811 11.4346 62.9854 10.5417 63.4072C9.58198 63.8607 8.63985 64.3388 7.72937 64.845C7.18097 65.1509 6.64312 65.4637 6.12284 65.7871C5.90958 65.9184 5.69865 66.052 5.49007 66.1879L5.08229 66.4586L4.55147 66.8101C4.3757 66.9296 4.19993 67.0527 4.03822 67.1617C3.05346 67.8712 2.13032 68.6627 1.27865 69.5275L1.00445 69.4713C0.876958 69.1034 0.783985 68.7244 0.726732 68.3393C-0.348975 61.5195 2.64261 61.6003 2.16452 58.0392C1.32435 51.7819 5.02604 50.4847 5.64475 48.0485C6.17557 45.9639 4.91707 43.5699 5.29321 40.7857C5.9541 35.6463 8.00357 34.1979 9.36051 32.6617C11.0373 30.7634 11.1744 28.0214 10.8159 25.87C10.4573 23.7186 11.0373 21.4301 13.1782 18.9166C14.2574 17.6475 14.8023 15.6473 15.073 13.995C15.7133 10.0071 18.2514 6.57885 21.8788 4.80231C22.2303 4.63709 22.5326 4.48593 22.7822 4.34883C23.422 3.99729 24.0548 3.64575 24.6735 3.24851C26.0797 2.37318 28.892 2.4681 30.7235 1.61035C32.1296 0.945938 33.4163 0.383478 36.0176 1.56113C36.9075 1.97957 37.7194 2.54664 38.4186 3.23797C41.3366 1.72347 44.6635 1.18501 47.9102 1.70175C50.6276 2.11656 53.2782 3.0165 55.2925 6.90802C56.0553 8.39151 57.704 9.1192 59.5742 11.2741C61.4444 13.4291 61.0858 16.1957 62.3865 17.1378C63.3095 17.8844 64.0967 18.7847 64.7137 19.7989C65.7226 21.2402 66.6788 23.251 65.7367 25.8876C64.3024 29.9197 63.7048 31.8883 65.6171 33.4281C67.0549 34.5881 67.8072 36.3529 67.7721 38.8839C67.7721 39.2917 67.7299 39.703 67.6842 40.1073C67.5717 41.074 67.4346 43.7809 69.0903 45.1413C70.9992 46.7127 72.908 48.502 71.5511 51.2827C71.1636 52.0352 70.9181 52.8527 70.8269 53.6942C70.5879 55.9433 71.6241 58.1377 73.5127 59.3821C76.1457 61.3156 77.6714 62.2999 76.1141 68.6451Z" fill="black"/>
<path fill-rule="evenodd" clip-rule="evenodd" d="M76.1141 68.6451C75.9348 69.3834 75.9805 70.1321 75.7625 70.8071C75.5801 70.563 75.3853 70.3283 75.179 70.104C75.0032 69.9072 74.8204 69.7138 74.6306 69.524C73.7304 68.6229 72.7555 67.7997 71.7163 67.0632C71.3894 66.8277 71.0519 66.5957 70.7039 66.3601L70.5035 66.2266C69.8004 65.759 69.0341 65.3126 68.2607 64.8837C67.0128 64.1806 65.7085 63.5514 64.3938 62.9537L63.8032 62.6936L63.2513 62.4581L63.0966 62.3913H63.0685L62.601 62.1979C62.1123 61.9905 61.6272 61.7972 61.1386 61.6073C59.8765 61.1152 58.6251 60.6687 57.4087 60.261C55.4929 59.6176 53.6789 59.0763 52.0759 58.6333C50.4729 58.1904 50.2584 58.1306 47.8891 57.5541V46.0588C49.9542 43.8285 51.5798 41.2285 52.6805 38.3953L52.8985 37.8504C53.0145 37.5481 53.1305 37.2352 53.25 36.9259C54.9655 37.3231 57.2224 36.9645 58.5583 34.9256C60.316 32.2504 59.5144 29.3256 57.6724 28.4503C56.7514 28.0144 55.1062 28.2604 55.1062 28.2604C55.2534 27.1548 55.1986 26.0315 54.9445 24.9454C54.4706 22.893 53.04 21.1929 51.0986 20.3754C50.3428 20.0626 49.3409 19.3208 48.3426 17.6616C46.3212 14.2974 41.4313 13.9985 41.4313 13.9985C40.0252 13.8404 38.8229 12.9158 37.9441 11.8682C36.0669 11.7803 33.0823 13.3552 32.098 15.7351C30.9063 18.6318 26.9409 16.3011 25.243 18.5474C23.1654 21.3 26.5261 23.4338 24.3536 27.9687C24.0794 28.5417 23.6997 29.178 23.3271 29.8599C22.1362 32.0119 21.9213 34.5702 22.7365 36.8907C22.7365 36.8907 22.7365 36.8907 22.7365 36.9118C22.849 37.2212 22.965 37.534 23.0881 37.8363L23.306 38.3812C23.4198 38.7247 23.5633 39.0576 23.7349 39.3761C24.8047 41.826 26.2849 44.0753 28.1116 46.0272V49.8519V57.5225C27.0569 57.7756 25.6508 58.1342 23.9669 58.5771C22.3569 59.0235 20.5324 59.5649 18.606 60.2117C17.6111 60.5457 16.5916 60.9148 15.5652 61.2945C15.3367 61.3788 15.1046 61.4667 14.8621 61.5581L14.0641 61.8745L13.252 62.205C12.3416 62.5811 11.4346 62.9854 10.5417 63.4072C9.58198 63.8607 8.63985 64.3388 7.72937 64.845C7.18097 65.1509 6.64312 65.4637 6.12284 65.7871C5.90958 65.9184 5.69865 66.052 5.49007 66.1879L5.08229 66.4586L4.55147 66.8101C4.3757 66.9296 4.19993 67.0527 4.03822 67.1617C3.05346 67.8712 2.13032 68.6627 1.27865 69.5275L1.00445 69.4713C0.876958 69.1034 0.783985 68.7244 0.726732 68.3393C-0.348975 61.5195 2.64261 61.6003 2.16452 58.0392C1.32435 51.7819 5.02604 50.4847 5.64475 48.0485C6.17557 45.9639 4.91707 43.5699 5.29321 40.7857C5.9541 35.6463 8.00357 34.1979 9.36051 32.6617C11.0373 30.7634 11.1744 28.0214 10.8159 25.87C10.4573 23.7186 11.0373 21.4301 13.1782 18.9166C14.2574 17.6475 14.8023 15.6473 15.073 13.995C15.7133 10.0071 18.2514 6.57885 21.8788 4.80231C22.2303 4.63709 22.5326 4.48593 22.7822 4.34883C23.422 3.99729 24.0548 3.64575 24.6735 3.24851C26.0797 2.37318 28.892 2.4681 30.7235 1.61035C32.1296 0.945938 33.4163 0.383478 36.0176 1.56113C36.9075 1.97957 37.7194 2.54664 38.4186 3.23797C41.3366 1.72347 44.6635 1.18501 47.9102 1.70175C50.6276 2.11656 53.2782 3.0165 55.2925 6.90802C56.0553 8.39151 57.704 9.1192 59.5742 11.2741C61.4444 13.4291 61.0858 16.1957 62.3865 17.1378C63.3095 17.8844 64.0967 18.7847 64.7137 19.7989C65.7226 21.2402 66.6788 23.251 65.7367 25.8876C64.3024 29.9197 63.7048 31.8883 65.6171 33.4281C67.0549 34.5881 67.8072 36.3529 67.7721 38.8839C67.7721 39.2917 67.7299 39.703 67.6842 40.1073C67.5717 41.074 67.4346 43.7809 69.0903 45.1413C70.9992 46.7127 72.908 48.502 71.5511 51.2827C71.1636 52.0352 70.9181 52.8527 70.8269 53.6942C70.5879 55.9433 71.6241 58.1377 73.5127 59.3821C76.1457 61.3156 77.6714 62.2999 76.1141 68.6451Z" fill="white" fill-opacity="0.09"/>
</svg>
